<?xml version="1.0" encoding="utf-8" standalone="no"?>
<!DOCTYPE svg PUBLIC "-//W3C//DTD SVG 1.1//EN"
  "http://www.w3.org/Graphics/SVG/1.1/DTD/svg11.dtd">
<svg xmlns:xlink="http://www.w3.org/1999/xlink" width="510.23622pt" height="325.984252pt" viewBox="0 0 510.23622 325.984252" xmlns="http://www.w3.org/2000/svg" version="1.1">
 <title>Existing full-cell records define the positive-electrode problem</title>
 <metadata>
  <rdf:RDF xmlns:dc="http://purl.org/dc/elements/1.1/" xmlns:cc="http://creativecommons.org/ns#" xmlns:rdf="http://www.w3.org/1999/02/22-rdf-syntax-ns#">
   <cc:Work>
    <dc:type rdf:resource="http://purl.org/dc/dcmitype/StillImage"/>
    <dc:title>Existing full-cell records define the positive-electrode problem</dc:title>
    <dc:date>2026-07-20</dc:date>
    <dc:format>image/svg+xml</dc:format>
    <dc:creator>
     <cc:Agent>
      <dc:title>R582_Fig1_experimental_problem.py</dc:title>
     </cc:Agent>
    </dc:creator>
   </cc:Work>
  </rdf:RDF>
 </metadata>
 <defs>
  <style type="text/css">*{stroke-linejoin: round; stroke-linecap: butt}</style>
 </defs>
 <g id="figure_1">
  <g id="patch_1">
   <path d="M 0 325.984252 
L 510.23622 325.984252 
L 510.23622 0 
L 0 0 
z
" style="fill: #ffffff"/>
  </g>
  <g id="axes_1">
   <g id="patch_2">
    <path d="M 49.545345 48.062045 
L 55.889011 48.062045 
L 55.889011 32.650005 
L 49.545345 32.650005 
z
" clip-path="url(#p0e324d0d0c)" style="fill: #4d4d4d; stroke: #4d4d4d; stroke-width: 0.65; stroke-linejoin: miter"/>
   </g>
   <g id="patch_3">
    <path d="M 55.889011 48.062045 
L 103.818934 48.062045 
L 103.818934 32.650005 
L 55.889011 32.650005 
z
" clip-path="url(#p0e324d0d0c)" style="fill: url(#hd1f89cf037); stroke: #4d4d4d; stroke-width: 0.65; stroke-linejoin: miter"/>
   </g>
   <g id="patch_4">
    <path d="M 103.818934 48.062045 
L 111.572304 48.062045 
L 111.572304 32.650005 
L 103.818934 32.650005 
z
" clip-path="url(#p0e324d0d0c)" style="fill: #dcefeb; stroke: #4d4d4d; stroke-width: 0.65; stroke-linejoin: miter"/>
   </g>
   <g id="patch_5">
    <path d="M 111.572304 48.062045 
L 159.502226 48.062045 
L 159.502226 32.650005 
L 111.572304 32.650005 
z
" clip-path="url(#p0e324d0d0c)" style="fill: #eef0f2; stroke: #4d4d4d; stroke-width: 0.65; stroke-linejoin: miter"/>
   </g>
   <g id="patch_6">
    <path d="M 159.502226 48.062045 
L 165.845892 48.062045 
L 165.845892 32.650005 
L 159.502226 32.650005 
z
" clip-path="url(#p0e324d0d0c)" style="fill: #4d4d4d; stroke: #4d4d4d; stroke-width: 0.65; stroke-linejoin: miter"/>
   </g>
   <g id="patch_7">
    <path d="M 108.752896 26.998924 
C 111.369901 26.998924 113.880072 26.620011 115.730573 25.945638 
C 117.581075 25.271264 118.620822 24.356489 118.620822 23.402781 
C 118.620822 22.449073 117.581075 21.534297 115.730573 20.859924 
C 113.880072 20.18555 111.369901 19.806638 108.752896 19.806638 
C 106.135892 19.806638 103.625721 20.18555 101.77522 20.859924 
C 99.924718 21.534297 98.884971 22.449073 98.884971 23.402781 
C 98.884971 24.356489 99.924718 25.271264 101.77522 25.945638 
C 103.625721 26.620011 106.135892 26.998924 108.752896 26.998924 
z
" clip-path="url(#p0e324d0d0c)" style="fill: #ffffff; stroke: #4d4d4d; stroke-width: 0.75; stroke-linejoin: miter"/>
   </g>
   <g id="line2d_1">
    <path d="M 52.646693 32.650005 
L 52.646693 23.402781 
L 98.884971 23.402781 
" clip-path="url(#p0e324d0d0c)" style="fill: none; stroke: #4d4d4d; stroke-width: 0.75; stroke-linecap: square"/>
   </g>
   <g id="line2d_2">
    <path d="M 118.620822 23.402781 
L 162.603574 23.402781 
L 162.603574 32.650005 
" clip-path="url(#p0e324d0d0c)" style="fill: none; stroke: #4d4d4d; stroke-width: 0.75; stroke-linecap: square"/>
   </g>
   <g id="line2d_3">
    <path d="M 59.41327 49.603249 
L 100.294675 49.603249 
" clip-path="url(#p0e324d0d0c)" style="fill: none; stroke: #d8912b; stroke-linecap: square"/>
   </g>
   <g id="text_1">
    <text style="fill: #111111; font: 700 8.2px 'TeX Gyre Termes', serif; text-anchor: start" x="21.351273" y="10.419618" transform="rotate(-0 21.351273 10.419618)">a</text>
   </g>
   <g id="text_2">
    <text style="fill: #243b53; font: 700 7.2px 'TeX Gyre Termes', serif; text-anchor: middle" x="108.752896" y="25.098156" transform="rotate(-0 108.752896 25.098156)">V</text>
   </g>
   <g id="text_3">
    <text style="fill: #d8912b; font: 700 6.5px 'TeX Gyre Termes', serif" transform="translate(63.877176 54.509304)">positive felt</text>
    <text style="fill: #d8912b; font: 700 6.5px 'TeX Gyre Termes', serif" transform="translate(63.334324 61.114116)">model focus</text>
   </g>
   <g id="text_4">
    <text style="fill: #2a9d8f; font: 6.5px 'TeX Gyre Termes', serif" transform="translate(109.13943 52.267783) rotate(-90)">separator</text>
   </g>
   <g id="text_5">
    <text style="fill: #7b858c; font: 6.5px 'TeX Gyre Termes', serif; text-anchor: middle" x="135.537265" y="41.867275" transform="rotate(-0 135.537265 41.867275)">negative side</text>
   </g>
   <g id="text_6">
    <text style="font: 700 7.5px 'TeX Gyre Termes', serif; text-anchor: start" x="38.267717" y="11.669291" transform="rotate(-0 38.267717 11.669291)">Full-cell record, positive-electrode focus</text>
   </g>
  </g>
  <g id="axes_2">
   <g id="patch_8">
    <path d="M 38.267717 285.23622 
L 179.238076 285.23622 
L 179.238076 113.097877 
L 38.267717 113.097877 
z
" style="fill: #ffffff"/>
   </g>
   <g id="line2d_4">
    <path d="M 38.267717 162.280261 
L 179.238076 162.280261 
" clip-path="url(#pe5cc51b73b)" style="fill: none; stroke-dasharray: 2.4,1.6; stroke-dashoffset: 0; stroke: #d6dadd; stroke-width: 0.8"/>
   </g>
   <g id="matplotlib.axis_1">
    <g id="xtick_1">
     <g id="line2d_5">
      <defs>
       <path id="m28bd0b525f" d="M 0 0 
L 0 2.7 
" style="stroke: #4d4d4d; stroke-width: 0.7"/>
      </defs>
      <g>
       <use xlink:href="#m28bd0b525f" x="43.689653" y="285.23622" style="fill: #4d4d4d; stroke: #4d4d4d; stroke-width: 0.7"/>
      </g>
     </g>
     <g id="text_7">
      <text style="fill: #4d4d4d; font: 6.5px 'TeX Gyre Termes', serif; text-anchor: middle" x="43.689653" y="295.875517" transform="rotate(-0 43.689653 295.875517)">40</text>
     </g>
    </g>
    <g id="xtick_2">
     <g id="line2d_6">
      <g>
       <use xlink:href="#m28bd0b525f" x="87.065149" y="285.23622" style="fill: #4d4d4d; stroke: #4d4d4d; stroke-width: 0.7"/>
      </g>
     </g>
     <g id="text_8">
      <text style="fill: #4d4d4d; font: 6.5px 'TeX Gyre Termes', serif; text-anchor: middle" x="87.065149" y="295.875517" transform="rotate(-0 87.065149 295.875517)">160</text>
     </g>
    </g>
    <g id="xtick_3">
     <g id="line2d_7">
      <g>
       <use xlink:href="#m28bd0b525f" x="130.440644" y="285.23622" style="fill: #4d4d4d; stroke: #4d4d4d; stroke-width: 0.7"/>
      </g>
     </g>
     <g id="text_9">
      <text style="fill: #4d4d4d; font: 6.5px 'TeX Gyre Termes', serif; text-anchor: middle" x="130.440644" y="295.875517" transform="rotate(-0 130.440644 295.875517)">280</text>
     </g>
    </g>
    <g id="xtick_4">
     <g id="line2d_8">
      <g>
       <use xlink:href="#m28bd0b525f" x="173.816139" y="285.23622" style="fill: #4d4d4d; stroke: #4d4d4d; stroke-width: 0.7"/>
      </g>
     </g>
     <g id="text_10">
      <text style="fill: #4d4d4d; font: 6.5px 'TeX Gyre Termes', serif; text-anchor: middle" x="173.816139" y="295.875517" transform="rotate(-0 173.816139 295.875517)">400</text>
     </g>
    </g>
    <g id="text_11">
     <!-- Current density (mA cm$^{-2}$) -->
     <g style="fill: #4d4d4d" transform="translate(69.656896 306.97422)">
      <text>
       <tspan style="font: 7.2px 'TeX Gyre Termes'" x="0 4.794052 8.387787 10.781219 13.174652 16.365891 19.959625 21.957733 23.754593 27.348328 30.539566 34.133301 36.92923 38.927338 40.925446 44.51918 46.31604 48.709473 54.301331 59.490692 61.287552 64.47879 75.637983" y="-0.3781250000000007">Current density (mA cm)</tspan>
       <tspan style="font: 5.04px 'TeX Gyre Termes'" x="70.126156 72.963775" y="-2.5984375000000006">−2</tspan>
      </text>
     </g>
    </g>
   </g>
   <g id="matplotlib.axis_2">
    <g id="ytick_1">
     <g id="line2d_9">
      <defs>
       <path id="m6f9731b59d" d="M 0 0 
L -2.7 0 
" style="stroke: #4d4d4d; stroke-width: 0.7"/>
      </defs>
      <g>
       <use xlink:href="#m6f9731b59d" x="38.267717" y="285.23622" style="fill: #4d4d4d; stroke: #4d4d4d; stroke-width: 0.7"/>
      </g>
     </g>
     <g id="text_12">
      <text style="fill: #4d4d4d; font: 6.5px 'TeX Gyre Termes', serif; text-anchor: end" x="32.067717" y="287.455869" transform="rotate(-0 32.067717 287.455869)">80</text>
     </g>
    </g>
    <g id="ytick_2">
     <g id="line2d_10">
      <g>
       <use xlink:href="#m6f9731b59d" x="38.267717" y="244.250901" style="fill: #4d4d4d; stroke: #4d4d4d; stroke-width: 0.7"/>
      </g>
     </g>
     <g id="text_13">
      <text style="fill: #4d4d4d; font: 6.5px 'TeX Gyre Termes', serif; text-anchor: end" x="32.067717" y="246.470549" transform="rotate(-0 32.067717 246.470549)">85</text>
     </g>
    </g>
    <g id="ytick_3">
     <g id="line2d_11">
      <g>
       <use xlink:href="#m6f9731b59d" x="38.267717" y="203.265581" style="fill: #4d4d4d; stroke: #4d4d4d; stroke-width: 0.7"/>
      </g>
     </g>
     <g id="text_14">
      <text style="fill: #4d4d4d; font: 6.5px 'TeX Gyre Termes', serif; text-anchor: end" x="32.067717" y="205.485229" transform="rotate(-0 32.067717 205.485229)">90</text>
     </g>
    </g>
    <g id="ytick_4">
     <g id="line2d_12">
      <g>
       <use xlink:href="#m6f9731b59d" x="38.267717" y="162.280261" style="fill: #4d4d4d; stroke: #4d4d4d; stroke-width: 0.7"/>
      </g>
     </g>
     <g id="text_15">
      <text style="fill: #4d4d4d; font: 6.5px 'TeX Gyre Termes', serif; text-anchor: end" x="32.067717" y="164.499909" transform="rotate(-0 32.067717 164.499909)">95</text>
     </g>
    </g>
    <g id="ytick_5">
     <g id="line2d_13">
      <g>
       <use xlink:href="#m6f9731b59d" x="38.267717" y="121.294941" style="fill: #4d4d4d; stroke: #4d4d4d; stroke-width: 0.7"/>
      </g>
     </g>
     <g id="text_16">
      <text style="fill: #4d4d4d; font: 6.5px 'TeX Gyre Termes', serif; text-anchor: end" x="32.067717" y="123.514589" transform="rotate(-0 32.067717 123.514589)">100</text>
     </g>
    </g>
    <g id="text_17">
     <text style="fill: #4d4d4d; font: 7.2px 'TeX Gyre Termes', serif; text-anchor: middle" x="16.748342" y="199.167049" transform="rotate(-90 16.748342 199.167049)">Coulombic efficiency (%)</text>
    </g>
   </g>
   <g id="patch_9">
    <path d="M 38.267717 285.23622 
L 38.267717 113.097877 
" style="fill: none; stroke: #4d4d4d; stroke-width: 0.8; stroke-linejoin: miter; stroke-linecap: square"/>
   </g>
   <g id="patch_10">
    <path d="M 38.267717 285.23622 
L 179.238076 285.23622 
" style="fill: none; stroke: #4d4d4d; stroke-width: 0.8; stroke-linejoin: miter; stroke-linecap: square"/>
   </g>
   <g id="text_18">
    <text style="fill: #111111; font: 700 8.2px 'TeX Gyre Termes', serif; text-anchor: start" x="15.712459" y="105.392035" transform="rotate(-0 15.712459 105.392035)">c</text>
   </g>
   <g id="LineCollection_1">
    <path d="M 58.148152 135.457696 
L 58.148152 135.457696 
" clip-path="url(#pe5cc51b73b)" style="fill: none; stroke: #3b6fb6; stroke-width: 0.75"/>
    <path d="M 72.60665 140.221778 
L 72.60665 133.43694 
" clip-path="url(#pe5cc51b73b)" style="fill: none; stroke: #3b6fb6; stroke-width: 0.75"/>
    <path d="M 87.065149 139.346166 
L 87.065149 129.609391 
" clip-path="url(#pe5cc51b73b)" style="fill: none; stroke: #3b6fb6; stroke-width: 0.75"/>
    <path d="M 101.523647 138.934825 
L 101.523647 128.360103 
" clip-path="url(#pe5cc51b73b)" style="fill: none; stroke: #3b6fb6; stroke-width: 0.75"/>
    <path d="M 115.982146 137.532861 
L 115.982146 121.570664 
" clip-path="url(#pe5cc51b73b)" style="fill: none; stroke: #3b6fb6; stroke-width: 0.75"/>
    <path d="M 130.440644 149.685632 
L 130.440644 134.05874 
" clip-path="url(#pe5cc51b73b)" style="fill: none; stroke: #3b6fb6; stroke-width: 0.75"/>
    <path d="M 144.899142 156.874951 
L 144.899142 141.209166 
" clip-path="url(#pe5cc51b73b)" style="fill: none; stroke: #3b6fb6; stroke-width: 0.75"/>
    <path d="M 159.357641 152.711336 
L 159.357641 142.265955 
" clip-path="url(#pe5cc51b73b)" style="fill: none; stroke: #3b6fb6; stroke-width: 0.75"/>
   </g>
   <g id="text_19">
    <text style="fill: #7b858c; font: 6.5px 'TeX Gyre Termes', serif; text-anchor: end" x="172.731752" y="158.820292" transform="rotate(-0 172.731752 158.820292)">95% CE reference</text>
   </g>
   <g id="text_20">
    <text style="fill: #243b53; font: 700 6.5px 'TeX Gyre Termes', serif; text-anchor: middle" x="95.017323" y="123.65112" transform="rotate(-0 95.017323 123.65112)">same cell</text>
   </g>
   <g id="patch_11">
    <path d="M 59.052103 184.876989 
Q 51.945657 174.762852 44.839212 164.648714 
" style="fill: none; stroke: #2a9d8f; stroke-width: 0.7; stroke-linecap: round"/>
   </g>
   <g id="text_21">
    <text style="fill: #2a9d8f; font: 6.5px 'TeX Gyre Termes', serif" transform="translate(50.195978 192.130456)">separate</text>
    <text style="fill: #2a9d8f; font: 6.5px 'TeX Gyre Termes', serif" transform="translate(50.195978 198.868315)">pristine cell</text>
   </g>
   <g id="patch_12">
    <path d="M 154.39824 248.067896 
Q 163.439936 237.952528 172.481633 227.837161 
" style="fill: none; stroke: #c65d57; stroke-width: 0.7; stroke-linecap: round"/>
   </g>
   <g id="text_22">
    <text style="fill: #c65d57; font: 6.5px 'TeX Gyre Termes', serif; text-anchor: end" x="168.394202" y="255.280349" transform="rotate(-0 168.394202 255.280349)">P350C+ proxy</text>
   </g>
   <g id="text_23">
    <text style="font: 700 7.5px 'TeX Gyre Termes', serif; text-anchor: start" x="38.267717" y="110.097877" transform="rotate(-0 38.267717 110.097877)">Pristine rate ladder</text>
   </g>
   <g id="line2d_14">
    <path d="M 58.148152 135.457696 
L 72.60665 134.671713 
L 87.065149 131.603518 
L 101.523647 131.327006 
L 115.982146 131.744596 
L 130.440644 139.571136 
L 144.899142 144.321962 
L 159.357641 148.317354 
" clip-path="url(#pe5cc51b73b)" style="fill: none; stroke: #243b53; stroke-width: 1.2; stroke-linecap: square"/>
    <defs>
     <path id="mc4eaaae05a" d="M 0 2.1 
C 0.556927 2.1 1.091118 1.878731 1.484924 1.484924 
C 1.878731 1.091118 2.1 0.556927 2.1 0 
C 2.1 -0.556927 1.878731 -1.091118 1.484924 -1.484924 
C 1.091118 -1.878731 0.556927 -2.1 0 -2.1 
C -0.556927 -2.1 -1.091118 -1.878731 -1.484924 -1.484924 
C -1.878731 -1.091118 -2.1 -0.556927 -2.1 0 
C -2.1 0.556927 -1.878731 1.091118 -1.484924 1.484924 
C -1.091118 1.878731 -0.556927 2.1 0 2.1 
z
" style="stroke: #ffffff; stroke-width: 0.55"/>
    </defs>
    <g clip-path="url(#pe5cc51b73b)">
     <use xlink:href="#mc4eaaae05a" x="58.148152" y="135.457696" style="fill: #3b6fb6; stroke: #ffffff; stroke-width: 0.55"/>
     <use xlink:href="#mc4eaaae05a" x="72.60665" y="134.671713" style="fill: #3b6fb6; stroke: #ffffff; stroke-width: 0.55"/>
     <use xlink:href="#mc4eaaae05a" x="87.065149" y="131.603518" style="fill: #3b6fb6; stroke: #ffffff; stroke-width: 0.55"/>
     <use xlink:href="#mc4eaaae05a" x="101.523647" y="131.327006" style="fill: #3b6fb6; stroke: #ffffff; stroke-width: 0.55"/>
     <use xlink:href="#mc4eaaae05a" x="115.982146" y="131.744596" style="fill: #3b6fb6; stroke: #ffffff; stroke-width: 0.55"/>
     <use xlink:href="#mc4eaaae05a" x="130.440644" y="139.571136" style="fill: #3b6fb6; stroke: #ffffff; stroke-width: 0.55"/>
     <use xlink:href="#mc4eaaae05a" x="144.899142" y="144.321962" style="fill: #3b6fb6; stroke: #ffffff; stroke-width: 0.55"/>
     <use xlink:href="#mc4eaaae05a" x="159.357641" y="148.317354" style="fill: #3b6fb6; stroke: #ffffff; stroke-width: 0.55"/>
    </g>
   </g>
   <g id="LineCollection_2">
    <path d="M 43.689653 163.6426 
L 43.689653 162.114979 
" clip-path="url(#pe5cc51b73b)" style="fill: none; stroke: #2a9d8f; stroke-width: 0.8"/>
   </g>
   <g id="LineCollection_3">
    <path d="M 173.816139 275.187412 
L 173.816139 214.984921 
" clip-path="url(#pe5cc51b73b)" style="fill: none; stroke: #c65d57; stroke-width: 0.8"/>
   </g>
   <g id="line2d_15">
    <defs>
     <path id="m029a17d278" d="M 0 3.394113 
L 3.394113 0 
L 0 -3.394113 
L -3.394113 0 
z
" style="stroke: #ffffff; stroke-width: 0.6; stroke-linejoin: miter"/>
    </defs>
    <g clip-path="url(#pe5cc51b73b)">
     <use xlink:href="#m029a17d278" x="43.689653" y="163.012623" style="fill: #2a9d8f; stroke: #ffffff; stroke-width: 0.6; stroke-linejoin: miter"/>
    </g>
   </g>
   <g id="line2d_16">
    <defs>
     <path id="m4287eb563b" d="M -1.3 2.6 
L 0 1.3 
L 1.3 2.6 
L 2.6 1.3 
L 1.3 0 
L 2.6 -1.3 
L 1.3 -2.6 
L 0 -1.3 
L -1.3 -2.6 
L -2.6 -1.3 
L -1.3 0 
L -2.6 1.3 
z
" style="stroke: #ffffff; stroke-width: 0.55; stroke-linejoin: miter"/>
    </defs>
    <g clip-path="url(#pe5cc51b73b)">
     <use xlink:href="#m4287eb563b" x="173.816139" y="226.344186" style="fill: #c65d57; stroke: #ffffff; stroke-width: 0.55; stroke-linejoin: miter"/>
    </g>
   </g>
  </g>
  <g id="axes_3">
   <g id="patch_13">
    <path d="M 199.940017 107.613756 
L 502.582677 107.613756 
L 502.582677 14.669291 
L 199.940017 14.669291 
z
" style="fill: #ffffff"/>
   </g>
   <g id="patch_14">
    <path d="M 331.08517 107.613756 
L 331.08517 14.669291 
L 439.532123 14.669291 
L 439.532123 107.613756 
z
" clip-path="url(#pb8d0db477a)" style="fill: #f7e9cf; opacity: 0.55"/>
   </g>
   <g id="line2d_17">
    <path d="M 409.318802 107.613756 
L 409.318802 14.669291 
" clip-path="url(#pb8d0db477a)" style="fill: none; stroke-dasharray: 2.7,1.8; stroke-dashoffset: 0; stroke: #3b6fb6; stroke-width: 0.9"/>
   </g>
   <g id="line2d_18">
    <path d="M 451.108457 107.613756 
L 451.108457 14.669291 
" clip-path="url(#pb8d0db477a)" style="fill: none; stroke-dasharray: 1.21,1.76; stroke-dashoffset: 0; stroke: #2a9d8f; stroke-width: 1.1"/>
   </g>
   <g id="matplotlib.axis_3">
    <g id="xtick_5"/>
    <g id="xtick_6"/>
    <g id="xtick_7"/>
    <g id="xtick_8"/>
    <g id="xtick_9"/>
    <g id="xtick_10"/>
    <g id="xtick_11"/>
   </g>
   <g id="matplotlib.axis_4">
    <g id="ytick_6">
     <g id="line2d_19">
      <g>
       <use xlink:href="#m6f9731b59d" x="199.940017" y="99.412774" style="fill: #4d4d4d; stroke: #4d4d4d; stroke-width: 0.7"/>
      </g>
     </g>
     <g id="text_24">
      <text style="fill: #4d4d4d; font: 6.5px 'TeX Gyre Termes', serif; text-anchor: end" x="193.740017" y="101.632423" transform="rotate(-0 193.740017 101.632423)">1.35</text>
     </g>
    </g>
    <g id="ytick_7">
     <g id="line2d_20">
      <g>
       <use xlink:href="#m6f9731b59d" x="199.940017" y="72.076167" style="fill: #4d4d4d; stroke: #4d4d4d; stroke-width: 0.7"/>
      </g>
     </g>
     <g id="text_25">
      <text style="fill: #4d4d4d; font: 6.5px 'TeX Gyre Termes', serif; text-anchor: end" x="193.740017" y="74.295815" transform="rotate(-0 193.740017 74.295815)">1.40</text>
     </g>
    </g>
    <g id="ytick_8">
     <g id="line2d_21">
      <g>
       <use xlink:href="#m6f9731b59d" x="199.940017" y="44.739559" style="fill: #4d4d4d; stroke: #4d4d4d; stroke-width: 0.7"/>
      </g>
     </g>
     <g id="text_26">
      <text style="fill: #4d4d4d; font: 6.5px 'TeX Gyre Termes', serif; text-anchor: end" x="193.740017" y="46.959208" transform="rotate(-0 193.740017 46.959208)">1.45</text>
     </g>
    </g>
    <g id="ytick_9">
     <g id="line2d_22">
      <g>
       <use xlink:href="#m6f9731b59d" x="199.940017" y="17.402952" style="fill: #4d4d4d; stroke: #4d4d4d; stroke-width: 0.7"/>
      </g>
     </g>
     <g id="text_27">
      <text style="fill: #4d4d4d; font: 6.5px 'TeX Gyre Termes', serif; text-anchor: end" x="193.740017" y="19.622601" transform="rotate(-0 193.740017 19.622601)">1.50</text>
     </g>
    </g>
    <g id="text_28">
     <text style="fill: #4d4d4d; font: 7.2px 'TeX Gyre Termes', serif; text-anchor: middle" x="176.795642" y="61.141524" transform="rotate(-90 176.795642 61.141524)">Cell voltage (V)</text>
    </g>
   </g>
   <g id="line2d_23">
    <path d="M 203.092545 99.449388 
L 206.875578 99.917547 
L 210.028106 100.015569 
L 220.7467 99.218885 
L 237.139844 97.521 
L 241.553383 96.974751 
L 249.749955 96.111975 
L 254.163494 95.3645 
L 260.468549 94.661309 
L 268.665121 93.570116 
L 271.187143 93.23875 
L 274.339671 92.799029 
L 278.75321 92.264775 
L 312.170004 87.294393 
L 315.953037 86.66889 
L 318.475059 86.207621 
L 321.627587 85.621609 
L 325.41062 84.963498 
L 328.563148 84.390198 
L 332.346181 83.748981 
L 350.630842 80.079764 
L 355.04438 79.074867 
L 360.71893 77.52279 
L 365.132469 76.551349 
L 368.915502 75.471239 
L 371.437524 74.803159 
L 376.481569 73.107535 
L 380.895108 71.643303 
L 394.766229 66.211664 
L 399.810274 63.470196 
L 402.332296 62.100058 
L 406.745835 59.348973 
L 411.159374 56.484714 
L 411.789879 56.763349 
L 414.311901 59.545771 
L 414.942407 59.669954 
L 418.094935 52.867315 
L 419.355946 52.28211 
L 421.247462 51.514891 
L 421.877968 50.94001 
L 425.030496 46.99043 
L 428.813529 43.277068 
L 431.335551 41.149334 
L 431.966056 40.242937 
L 435.118584 34.347164 
L 438.271112 31.636327 
L 438.901617 32.005911 
L 441.42364 34.051809 
L 442.054145 33.434138 
L 445.206673 25.423711 
L 448.359201 24.963384 
L 448.989706 29.24247 
L 451.511728 49.906212 
L 452.142234 52.607617 
L 454.664256 53.016797 
L 455.294762 53.257131 
L 458.447289 58.627613 
L 459.077795 58.698428 
L 461.599817 57.961911 
L 462.230322 58.046354 
L 464.752345 59.683086 
L 465.38285 59.736382 
L 468.535378 45.312801 
L 469.165883 47.917787 
L 471.687906 65.144249 
L 472.318411 65.737329 
L 475.470939 43.56863 
L 478.623467 64.181052 
L 479.253972 63.744766 
L 481.775994 55.233831 
L 482.4065 53.936466 
L 486.189533 54.19507 
L 488.711555 54.60425 
L 489.972566 55.485211 
L 491.864083 56.988946 
L 492.494588 57.19242 
L 498.169138 54.185122 
L 498.799644 53.868008 
L 499.430149 55.716017 
L 501.952172 67.541308 
L 501.952172 67.541308 
" clip-path="url(#pb8d0db477a)" style="fill: none; stroke: #d6dadd; stroke-width: 0.65; stroke-linecap: square"/>
   </g>
   <g id="patch_15">
    <path d="M 199.940017 107.613756 
L 199.940017 14.669291 
" style="fill: none; stroke: #4d4d4d; stroke-width: 0.8; stroke-linejoin: miter; stroke-linecap: square"/>
   </g>
   <g id="patch_16">
    <path d="M 199.940017 107.613756 
L 502.582677 107.613756 
" style="fill: none; stroke: #4d4d4d; stroke-width: 0.8; stroke-linejoin: miter; stroke-linecap: square"/>
   </g>
   <g id="text_29">
    <text style="fill: #111111; font: 700 8.2px 'TeX Gyre Termes', serif; text-anchor: start" x="180.268244" y="7.411623" transform="rotate(-0 180.268244 7.411623)">b</text>
   </g>
   <g id="line2d_24">
    <path d="M 203.092545 99.505998 
L 206.245072 99.848013 
L 209.3976 99.951119 
L 213.180633 99.835037 
L 218.855183 99.374966 
L 233.356811 97.933957 
L 252.271977 95.696836 
L 283.797254 91.518219 
L 314.692026 86.877178 
L 335.498709 83.108177 
L 350.000336 80.190815 
L 359.457919 77.93916 
L 368.915502 75.468314 
L 373.959547 73.958973 
L 380.895108 71.584032 
L 390.352691 67.997438 
L 395.396735 65.77166 
L 398.549263 64.182289 
L 400.440779 62.999379 
L 402.962802 61.299224 
L 404.223813 60.720346 
L 410.528868 58.353454 
L 413.681396 56.958919 
L 415.572912 55.923164 
L 417.464429 54.66499 
L 419.986451 52.648138 
L 422.508473 50.338267 
L 424.39999 48.157845 
L 429.444034 41.929058 
L 431.966056 39.298732 
L 435.74909 35.659024 
L 437.010101 33.986751 
L 439.532123 29.990935 
L 440.162629 29.286932 
L 440.793134 28.792689 
L 441.42364 28.499799 
L 442.054145 28.403335 
L 442.684651 28.491074 
L 443.315156 28.728863 
L 443.945662 29.116266 
L 445.206673 30.3192 
L 446.467684 32.014159 
L 447.728695 34.195702 
L 449.620212 38.110472 
L 452.772739 45.383003 
L 454.664256 50.623112 
L 455.925267 54.192535 
L 456.555773 55.628035 
L 457.186278 56.70175 
L 457.816784 57.42701 
L 458.447289 57.825913 
L 459.077795 57.962401 
L 462.860828 58.001507 
L 463.491334 57.835126 
L 464.752345 57.215458 
L 466.013356 56.313248 
L 467.274367 55.546188 
L 468.535378 55.154256 
L 469.796389 55.080367 
L 471.687906 55.167746 
L 477.362455 55.836241 
L 479.253972 56.338665 
L 480.514983 56.296612 
L 481.145489 56.091948 
L 482.4065 55.379265 
L 483.037005 55.151176 
L 483.667511 55.070598 
L 484.298016 55.173824 
L 486.820039 56.403845 
L 487.450544 56.269343 
L 488.08105 55.851284 
L 489.342061 54.496671 
L 491.233577 54.225333 
L 492.494588 54.256427 
L 493.7556 54.496137 
L 495.016611 54.977917 
L 496.277622 55.735219 
L 497.538633 56.801494 
L 498.799644 58.210197 
L 500.060655 59.994778 
L 501.321666 62.188691 
L 501.952172 63.449601 
L 501.952172 63.449601 
" clip-path="url(#pb8d0db477a)" style="fill: none; stroke: #243b53; stroke-width: 1.45; stroke-linecap: square"/>
   </g>
   <g id="text_30">
    <text style="fill: #d8912b; font: 700 6.5px 'TeX Gyre Termes', serif; text-anchor: middle" x="385.308646" y="24.627707" transform="rotate(-0 385.308646 24.627707)">voltage-rise feature</text>
   </g>
   <g id="text_31">
    <!-- $Q_s$ -->
    <g style="fill: #3b6fb6" transform="translate(399.662375 97.278265)">
     <text>
      <tspan style="font: italic 6.5px 'TeX Gyre Termes'" x="0" y="-0.671875">Q</tspan>
      <tspan style="font: italic 4.55px 'TeX Gyre Termes'" x="4.692993" y="0.18593749999999964">s</tspan>
     </text>
    </g>
    <text style="fill: #3b6fb6; font: 6.5px 'TeX Gyre Termes', serif" transform="translate(394.917375 104.016125)">83.0</text>
   </g>
   <g id="text_32">
    <!-- $Q_{f,\mathrm{cal}}$ -->
    <g style="fill: #2a9d8f" transform="translate(454.134884 96.868968)">
     <text>
      <tspan style="font: italic 6.5px 'TeX Gyre Termes'" x="0" y="-0.671875">Q</tspan>
      <tspan style="font: italic 4.55px 'TeX Gyre Termes'" x="4.692993" y="0.18593749999999964">f</tspan>
      <tspan style="font: 4.55px 'TeX Gyre Termes'" x="5.957887 7.752406 9.772607 11.792809" y="0.18593749999999964">,cal</tspan>
     </text>
    </g>
    <text style="fill: #2a9d8f; font: 6.5px 'TeX Gyre Termes', serif" transform="translate(454.134884 104.016125)">99.6</text>
   </g>
   <g id="text_33">
    <!-- Representative charge at 40 mA cm$^{-2}$ -->
    <g transform="translate(199.940017 11.669291)">
     <text>
      <tspan style="font: 700 7.5px 'TeX Gyre Termes'" x="0 5.414993 8.74498 12.914963 16.244949 19.574936 22.492432 25.822418 29.992401 32.489899 36.239883 38.737381 40.822372 44.572357 47.902344 49.777328 53.107315 57.277298 61.027283 64.357269 68.107254 71.437241 73.312225 77.06221 79.559708 81.434692 85.184677 88.934662 90.809647 97.057129 102.472122 104.347107 107.677094" y="-0.13750000000000107">Representative charge at 40 mA cm</tspan>
      <tspan style="font: 5.25px 'TeX Gyre Termes'" x="113.982545 116.943542" y="-2.4562500000000007">−2</tspan>
     </text>
    </g>
   </g>
  </g>
  <g id="axes_4">
   <g id="patch_17">
    <path d="M 199.940017 175.63949 
L 502.582677 175.63949 
L 502.582677 111.539859 
L 199.940017 111.539859 
z
" style="fill: #ffffff"/>
   </g>
   <g id="line2d_25">
    <path d="M 199.940017 136.897954 
L 502.582677 136.897954 
" clip-path="url(#p9b90f66708)" style="fill: none; stroke: #d6dadd; stroke-width: 0.7; stroke-linecap: square"/>
   </g>
   <g id="PolyCollection_1">
    <defs>
     <path id="md37224be03" d="M 203.092545 -189.086298 
L 203.092545 -189.086298 
L 203.72305 -189.086298 
L 204.353556 -189.086298 
L 204.984061 -189.086298 
L 205.614567 -189.086298 
L 206.245072 -189.086298 
L 206.875578 -189.086298 
L 207.506084 -189.086298 
L 208.136589 -189.086298 
L 208.767095 -189.086298 
L 209.3976 -189.086298 
L 210.028106 -189.086298 
L 210.658611 -189.086298 
L 211.289117 -189.086298 
L 211.919622 -189.086298 
L 212.550128 -189.086298 
L 213.180633 -189.086298 
L 213.811139 -189.086298 
L 214.441645 -189.086298 
L 215.07215 -189.086298 
L 215.702656 -189.086298 
L 216.333161 -189.086298 
L 216.963667 -189.086298 
L 217.594172 -189.086298 
L 218.224678 -189.086298 
L 218.855183 -189.086298 
L 219.485689 -189.086298 
L 220.116194 -189.086298 
L 220.7467 -189.086298 
L 221.377205 -189.086298 
L 222.007711 -189.086298 
L 222.638217 -189.086298 
L 223.268722 -189.086298 
L 223.899228 -189.086298 
L 224.529733 -189.086298 
L 225.160239 -189.086298 
L 225.790744 -189.086298 
L 226.42125 -189.086298 
L 227.051755 -189.086298 
L 227.682261 -189.086298 
L 228.312766 -189.086298 
L 228.943272 -189.086298 
L 229.573778 -189.086298 
L 230.204283 -189.086298 
L 230.834789 -189.086298 
L 231.465294 -189.086298 
L 232.0958 -189.086298 
L 232.726305 -189.086298 
L 233.356811 -189.086298 
L 233.987316 -189.086298 
L 234.617822 -189.086298 
L 235.248327 -189.086298 
L 235.878833 -189.086298 
L 236.509338 -189.086298 
L 237.139844 -189.086298 
L 237.77035 -189.086298 
L 238.400855 -189.086298 
L 239.031361 -189.086298 
L 239.661866 -189.086298 
L 240.292372 -189.086298 
L 240.922877 -189.086298 
L 241.553383 -189.086298 
L 242.183888 -189.086298 
L 242.814394 -189.086298 
L 243.444899 -189.086298 
L 244.075405 -189.086298 
L 244.705911 -189.086298 
L 245.336416 -189.086298 
L 245.966922 -189.086298 
L 246.597427 -189.086298 
L 247.227933 -189.086298 
L 247.858438 -189.086298 
L 248.488944 -189.086298 
L 249.119449 -189.086298 
L 249.749955 -189.086298 
L 250.38046 -189.086298 
L 251.010966 -189.086298 
L 251.641471 -189.086298 
L 252.271977 -189.086298 
L 252.902483 -189.086298 
L 253.532988 -189.086298 
L 254.163494 -189.086298 
L 254.793999 -189.086298 
L 255.424505 -189.086298 
L 256.05501 -189.086298 
L 256.685516 -189.086298 
L 257.316021 -189.086298 
L 257.946527 -189.086298 
L 258.577032 -189.086298 
L 259.207538 -189.086298 
L 259.838044 -189.086298 
L 260.468549 -189.086298 
L 261.099055 -189.086298 
L 261.72956 -189.086298 
L 262.360066 -189.086298 
L 262.990571 -189.086298 
L 263.621077 -189.086298 
L 264.251582 -189.086298 
L 264.882088 -189.086298 
L 265.512593 -189.086298 
L 266.143099 -189.086298 
L 266.773604 -189.086298 
L 267.40411 -189.086298 
L 268.034616 -189.086298 
L 268.665121 -189.086298 
L 269.295627 -189.086298 
L 269.926132 -189.086298 
L 270.556638 -189.086298 
L 271.187143 -189.086298 
L 271.817649 -189.086298 
L 272.448154 -189.086298 
L 273.07866 -189.086298 
L 273.709165 -189.086298 
L 274.339671 -189.086298 
L 274.970177 -189.086298 
L 275.600682 -189.086298 
L 276.231188 -189.086298 
L 276.861693 -189.086298 
L 277.492199 -189.086298 
L 278.122704 -189.086298 
L 278.75321 -189.086298 
L 279.383715 -189.086298 
L 280.014221 -189.086298 
L 280.644726 -189.086298 
L 281.275232 -189.086298 
L 281.905737 -189.086298 
L 282.536243 -189.086298 
L 283.166749 -189.086298 
L 283.797254 -189.086298 
L 284.42776 -189.086298 
L 285.058265 -189.086298 
L 285.688771 -189.086298 
L 286.319276 -189.086298 
L 286.949782 -189.086298 
L 287.580287 -189.086298 
L 288.210793 -189.086298 
L 288.841298 -189.086298 
L 289.471804 -189.086298 
L 290.10231 -189.086298 
L 290.732815 -189.086298 
L 291.363321 -189.086298 
L 291.993826 -189.086298 
L 292.624332 -189.086298 
L 293.254837 -189.086298 
L 293.885343 -189.086298 
L 294.515848 -189.086298 
L 295.146354 -189.086298 
L 295.776859 -189.086298 
L 296.407365 -189.086298 
L 297.037871 -189.086298 
L 297.668376 -189.086298 
L 298.298882 -189.086298 
L 298.929387 -189.086298 
L 299.559893 -189.086298 
L 300.190398 -189.086298 
L 300.820904 -189.086298 
L 301.451409 -189.086298 
L 302.081915 -189.086298 
L 302.71242 -189.086298 
L 303.342926 -189.086298 
L 303.973431 -189.086298 
L 304.603937 -189.086298 
L 305.234443 -189.086298 
L 305.864948 -189.086298 
L 306.495454 -189.086298 
L 307.125959 -189.086298 
L 307.756465 -189.086298 
L 308.38697 -189.086298 
L 309.017476 -189.086298 
L 309.647981 -189.086298 
L 310.278487 -189.086298 
L 310.908992 -189.086298 
L 311.539498 -189.086298 
L 312.170004 -189.086298 
L 312.800509 -189.086298 
L 313.431015 -189.086298 
L 314.06152 -189.086298 
L 314.692026 -189.086298 
L 315.322531 -189.086298 
L 315.953037 -189.086298 
L 316.583542 -189.086298 
L 317.214048 -189.086298 
L 317.844553 -189.086298 
L 318.475059 -189.086298 
L 319.105564 -189.086298 
L 319.73607 -189.086298 
L 320.366576 -189.086298 
L 320.997081 -189.086298 
L 321.627587 -189.086298 
L 322.258092 -189.086298 
L 322.888598 -189.086298 
L 323.519103 -189.086298 
L 324.149609 -189.086298 
L 324.780114 -189.086298 
L 325.41062 -189.086298 
L 326.041125 -189.086298 
L 326.671631 -189.086298 
L 327.302137 -189.086298 
L 327.932642 -189.086298 
L 328.563148 -189.086298 
L 329.193653 -189.086298 
L 329.824159 -189.086298 
L 330.454664 -189.086298 
L 331.08517 -189.086298 
L 331.715675 -189.086298 
L 332.346181 -189.086298 
L 332.976686 -189.086298 
L 333.607192 -189.086298 
L 334.237697 -189.086298 
L 334.868203 -189.086298 
L 335.498709 -189.086298 
L 336.129214 -189.086298 
L 336.75972 -189.086298 
L 337.390225 -189.086298 
L 338.020731 -189.086298 
L 338.651236 -189.086298 
L 339.281742 -189.086298 
L 339.912247 -189.086298 
L 340.542753 -189.086298 
L 341.173258 -189.086298 
L 341.803764 -189.086298 
L 342.43427 -189.086298 
L 343.064775 -189.086298 
L 343.695281 -189.086298 
L 344.325786 -189.086298 
L 344.956292 -189.086298 
L 345.586797 -189.086298 
L 346.217303 -189.086298 
L 346.847808 -189.086298 
L 347.478314 -189.086298 
L 348.108819 -189.086298 
L 348.739325 -189.086298 
L 349.36983 -189.086298 
L 350.000336 -189.086298 
L 350.630842 -189.086298 
L 351.261347 -189.086298 
L 351.891853 -189.086298 
L 352.522358 -189.086298 
L 353.152864 -189.086298 
L 353.783369 -189.086298 
L 354.413875 -189.086298 
L 355.04438 -189.086298 
L 355.674886 -189.086298 
L 356.305391 -189.086298 
L 356.935897 -189.086298 
L 357.566403 -189.086298 
L 358.196908 -189.086298 
L 358.827414 -189.086298 
L 359.457919 -189.086298 
L 360.088425 -189.086298 
L 360.71893 -189.086298 
L 361.349436 -189.086298 
L 361.979941 -189.086298 
L 362.610447 -189.086298 
L 363.240952 -189.086298 
L 363.871458 -189.086298 
L 364.501963 -189.086298 
L 365.132469 -189.086298 
L 365.762975 -189.086298 
L 366.39348 -189.086298 
L 367.023986 -189.086298 
L 367.654491 -189.086298 
L 368.284997 -189.086298 
L 368.915502 -189.086298 
L 369.546008 -189.086298 
L 370.176513 -189.086298 
L 370.807019 -189.086298 
L 371.437524 -189.086298 
L 372.06803 -189.086298 
L 372.698536 -189.086298 
L 373.329041 -189.086298 
L 373.959547 -189.086298 
L 374.590052 -189.086298 
L 375.220558 -189.086298 
L 375.851063 -189.086298 
L 376.481569 -189.086298 
L 377.112074 -189.086298 
L 377.74258 -189.086298 
L 378.373085 -189.086298 
L 379.003591 -189.086298 
L 379.634096 -189.086298 
L 380.264602 -189.086298 
L 380.895108 -189.086298 
L 381.525613 -189.086298 
L 382.156119 -189.086298 
L 382.786624 -189.086298 
L 383.41713 -189.086298 
L 384.047635 -189.086298 
L 384.678141 -189.086298 
L 385.308646 -189.086298 
L 385.939152 -189.086298 
L 386.569657 -189.086298 
L 387.200163 -189.086298 
L 387.830669 -189.086298 
L 388.461174 -189.086298 
L 389.09168 -189.086298 
L 389.722185 -189.086298 
L 390.352691 -189.086298 
L 390.983196 -189.086298 
L 391.613702 -189.086298 
L 392.244207 -189.086298 
L 392.874713 -189.086298 
L 393.505218 -189.086298 
L 394.135724 -189.086298 
L 394.766229 -189.086298 
L 395.396735 -189.086298 
L 396.027241 -189.086298 
L 396.657746 -189.086298 
L 397.288252 -189.086298 
L 397.918757 -189.086298 
L 398.549263 -189.086298 
L 399.179768 -189.086298 
L 399.810274 -189.086298 
L 400.440779 -189.086298 
L 401.071285 -189.086298 
L 401.70179 -189.086298 
L 402.332296 -189.086298 
L 402.962802 -189.086298 
L 403.593307 -189.086298 
L 404.223813 -189.086298 
L 404.854318 -189.086298 
L 405.484824 -189.086298 
L 406.115329 -189.086298 
L 406.745835 -189.086298 
L 407.37634 -189.086298 
L 408.006846 -189.086298 
L 408.637351 -189.086298 
L 409.267857 -189.086298 
L 409.898363 -189.086298 
L 410.528868 -189.086298 
L 411.159374 -189.086298 
L 411.789879 -189.086298 
L 412.420385 -189.086298 
L 413.05089 -189.086298 
L 413.681396 -189.086298 
L 414.311901 -189.086298 
L 414.942407 -189.086298 
L 415.572912 -189.086298 
L 416.203418 -189.086298 
L 416.833923 -189.086298 
L 417.464429 -189.086298 
L 418.094935 -189.086298 
L 418.72544 -189.086298 
L 419.355946 -189.086298 
L 419.986451 -189.086298 
L 420.616957 -189.086298 
L 421.247462 -189.086298 
L 421.877968 -189.086298 
L 422.508473 -189.086298 
L 423.138979 -189.086298 
L 423.769484 -189.086298 
L 424.39999 -189.086298 
L 425.030496 -189.086298 
L 425.661001 -189.086298 
L 426.291507 -189.086298 
L 426.922012 -189.086298 
L 427.552518 -189.086298 
L 428.183023 -189.086298 
L 428.813529 -189.086298 
L 429.444034 -189.086298 
L 430.07454 -189.086298 
L 430.705045 -189.086298 
L 431.335551 -189.086298 
L 431.966056 -189.086298 
L 432.596562 -189.086298 
L 433.227068 -189.086298 
L 433.857573 -189.086298 
L 434.488079 -189.086298 
L 435.118584 -189.086298 
L 435.74909 -189.086298 
L 436.379595 -189.086298 
L 437.010101 -189.086298 
L 437.640606 -189.086298 
L 438.271112 -189.086298 
L 438.901617 -189.086298 
L 439.532123 -189.086298 
L 440.162629 -189.086298 
L 440.793134 -189.086298 
L 441.42364 -189.086298 
L 442.054145 -189.086298 
L 442.684651 -189.086298 
L 443.315156 -189.086298 
L 443.945662 -189.086298 
L 444.576167 -189.086298 
L 445.206673 -189.086298 
L 445.837178 -189.086298 
L 446.467684 -189.086298 
L 447.098189 -189.086298 
L 447.728695 -189.086298 
L 448.359201 -189.086298 
L 448.989706 -189.086298 
L 449.620212 -189.086298 
L 450.250717 -189.086298 
L 450.881223 -189.086298 
L 451.511728 -189.086298 
L 452.142234 -189.086298 
L 452.772739 -189.086298 
L 453.403245 -189.086298 
L 454.03375 -189.086298 
L 454.664256 -189.086298 
L 455.294762 -189.086298 
L 455.925267 -189.086298 
L 456.555773 -189.086298 
L 457.186278 -189.086298 
L 457.816784 -189.086298 
L 458.447289 -189.086298 
L 459.077795 -189.086298 
L 459.7083 -189.086298 
L 460.338806 -189.086298 
L 460.969311 -189.086298 
L 461.599817 -189.086298 
L 462.230322 -189.086298 
L 462.860828 -189.086298 
L 463.491334 -189.086298 
L 464.121839 -189.086298 
L 464.752345 -189.086298 
L 465.38285 -189.086298 
L 466.013356 -189.086298 
L 466.643861 -189.086298 
L 467.274367 -189.086298 
L 467.904872 -189.086298 
L 468.535378 -189.086298 
L 469.165883 -189.086298 
L 469.796389 -189.086298 
L 470.426895 -189.086298 
L 471.0574 -189.086298 
L 471.687906 -189.086298 
L 472.318411 -189.086298 
L 472.948917 -189.086298 
L 473.579422 -189.086298 
L 474.209928 -189.086298 
L 474.840433 -189.086298 
L 475.470939 -189.086298 
L 476.101444 -189.086298 
L 476.73195 -189.086298 
L 477.362455 -189.086298 
L 477.992961 -189.086298 
L 478.623467 -189.086298 
L 479.253972 -189.086298 
L 479.884478 -189.086298 
L 480.514983 -189.086298 
L 481.145489 -189.086298 
L 481.775994 -189.086298 
L 482.4065 -189.086298 
L 483.037005 -189.086298 
L 483.667511 -189.086298 
L 484.298016 -189.086298 
L 484.928522 -189.086298 
L 485.559028 -189.086298 
L 486.189533 -189.086298 
L 486.820039 -189.086298 
L 487.450544 -189.086298 
L 488.08105 -189.086298 
L 488.711555 -189.086298 
L 489.342061 -189.086298 
L 489.972566 -189.086298 
L 490.603072 -189.086298 
L 491.233577 -189.086298 
L 491.864083 -189.086298 
L 492.494588 -189.086298 
L 493.125094 -189.086298 
L 493.7556 -189.086298 
L 494.386105 -189.086298 
L 495.016611 -189.086298 
L 495.647116 -189.086298 
L 496.277622 -189.086298 
L 496.908127 -189.086298 
L 497.538633 -189.086298 
L 498.169138 -189.086298 
L 498.799644 -189.086298 
L 499.430149 -189.086298 
L 500.060655 -189.086298 
L 500.691161 -189.086298 
L 501.321666 -189.086298 
L 501.952172 -189.086298 
L 501.952172 -189.086298 
L 501.952172 -189.086298 
L 501.321666 -189.086298 
L 500.691161 -189.086298 
L 500.060655 -189.086298 
L 499.430149 -189.086298 
L 498.799644 -189.086298 
L 498.169138 -189.086298 
L 497.538633 -189.086298 
L 496.908127 -189.086298 
L 496.277622 -189.086298 
L 495.647116 -189.086298 
L 495.016611 -189.086298 
L 494.386105 -189.086298 
L 493.7556 -189.086298 
L 493.125094 -189.086298 
L 492.494588 -189.086298 
L 491.864083 -189.086298 
L 491.233577 -189.885903 
L 490.603072 -190.960407 
L 489.972566 -191.927164 
L 489.342061 -192.786172 
L 488.711555 -194.332659 
L 488.08105 -195.765483 
L 487.450544 -195.502297 
L 486.820039 -194.065507 
L 486.189533 -192.13279 
L 485.559028 -190.051896 
L 484.928522 -189.086298 
L 484.298016 -189.086298 
L 483.667511 -189.086298 
L 483.037005 -189.086298 
L 482.4065 -190.192103 
L 481.775994 -192.562946 
L 481.145489 -194.594138 
L 480.514983 -195.095931 
L 479.884478 -194.369942 
L 479.253972 -192.676417 
L 478.623467 -190.389731 
L 477.992961 -189.086298 
L 477.362455 -189.086298 
L 476.73195 -189.086298 
L 476.101444 -189.086298 
L 475.470939 -189.086298 
L 474.840433 -189.086298 
L 474.209928 -189.086298 
L 473.579422 -189.086298 
L 472.948917 -189.086298 
L 472.318411 -189.086298 
L 471.687906 -189.086298 
L 471.0574 -189.086298 
L 470.426895 -189.161196 
L 469.796389 -191.431292 
L 469.165883 -194.038177 
L 468.535378 -196.557749 
L 467.904872 -198.582456 
L 467.274367 -199.690504 
L 466.643861 -199.642186 
L 466.013356 -198.208659 
L 465.38285 -195.6048 
L 464.752345 -192.989579 
L 464.121839 -191.19509 
L 463.491334 -190.868071 
L 462.860828 -192.070285 
L 462.230322 -194.966675 
L 461.599817 -197.577399 
L 460.969311 -199.102039 
L 460.338806 -198.267252 
L 459.7083 -194.950869 
L 459.077795 -189.086298 
L 458.447289 -189.086298 
L 457.816784 -189.086298 
L 457.186278 -189.086298 
L 456.555773 -189.086298 
L 455.925267 -189.086298 
L 455.294762 -189.086298 
L 454.664256 -189.086298 
L 454.03375 -189.086298 
L 453.403245 -189.086298 
L 452.772739 -189.086298 
L 452.142234 -189.086298 
L 451.511728 -189.086298 
L 450.881223 -189.086298 
L 450.250717 -189.086298 
L 449.620212 -189.086298 
L 448.989706 -189.086298 
L 448.359201 -189.086298 
L 447.728695 -189.086298 
L 447.098189 -189.086298 
L 446.467684 -189.086298 
L 445.837178 -189.086298 
L 445.206673 -189.086298 
L 444.576167 -189.086298 
L 443.945662 -189.086298 
L 443.315156 -189.219601 
L 442.684651 -194.140799 
L 442.054145 -198.913293 
L 441.42364 -203.178948 
L 440.793134 -206.687619 
L 440.162629 -209.190336 
L 439.532123 -210.452759 
L 438.901617 -210.229884 
L 438.271112 -208.992812 
L 437.640606 -207.431066 
L 437.010101 -205.796996 
L 436.379595 -204.423922 
L 435.74909 -203.71316 
L 435.118584 -203.878384 
L 434.488079 -204.132384 
L 433.857573 -204.560468 
L 433.227068 -205.252967 
L 432.596562 -206.221931 
L 431.966056 -207.490403 
L 431.335551 -208.732107 
L 430.705045 -209.769519 
L 430.07454 -210.294055 
L 429.444034 -210.264049 
L 428.813529 -209.616447 
L 428.183023 -208.557133 
L 427.552518 -207.401651 
L 426.922012 -206.537151 
L 426.291507 -206.066083 
L 425.661001 -205.960085 
L 425.030496 -206.17992 
L 424.39999 -206.485359 
L 423.769484 -206.7457 
L 423.138979 -206.827347 
L 422.508473 -206.791293 
L 421.877968 -206.700821 
L 421.247462 -206.47463 
L 420.616957 -206.087616 
L 419.986451 -205.534951 
L 419.355946 -204.805252 
L 418.72544 -203.880122 
L 418.094935 -202.817733 
L 417.464429 -201.719723 
L 416.833923 -200.620752 
L 416.203418 -199.551365 
L 415.572912 -198.539436 
L 414.942407 -197.609884 
L 414.311901 -196.763575 
L 413.681396 -196.021276 
L 413.05089 -195.404103 
L 412.420385 -194.920831 
L 411.789879 -194.578977 
L 411.159374 -194.350038 
L 410.528868 -194.214659 
L 409.898363 -194.149503 
L 409.267857 -194.138106 
L 408.637351 -194.159233 
L 408.006846 -194.248937 
L 407.37634 -194.487667 
L 406.745835 -194.910477 
L 406.115329 -195.541117 
L 405.484824 -196.394825 
L 404.854318 -197.468595 
L 404.223813 -198.48669 
L 403.593307 -199.356883 
L 402.962802 -199.975042 
L 402.332296 -200.226846 
L 401.70179 -199.985192 
L 401.071285 -199.52449 
L 400.440779 -199.00176 
L 399.810274 -198.482161 
L 399.179768 -198.034206 
L 398.549263 -197.738058 
L 397.918757 -197.569831 
L 397.288252 -197.40029 
L 396.657746 -197.2268 
L 396.027241 -197.049708 
L 395.396735 -196.87226 
L 394.766229 -196.697258 
L 394.135724 -196.526971 
L 393.505218 -196.365182 
L 392.874713 -196.217549 
L 392.244207 -196.081109 
L 391.613702 -195.952455 
L 390.983196 -195.833527 
L 390.352691 -195.724534 
L 389.722185 -195.627075 
L 389.09168 -195.537419 
L 388.461174 -195.451075 
L 387.830669 -195.368976 
L 387.200163 -195.299011 
L 386.569657 -195.238114 
L 385.939152 -195.185639 
L 385.308646 -195.144079 
L 384.678141 -195.115462 
L 384.047635 -195.089884 
L 383.41713 -195.067369 
L 382.786624 -195.052451 
L 382.156119 -195.034084 
L 381.525613 -195.000702 
L 380.895108 -194.960677 
L 380.264602 -194.919467 
L 379.634096 -194.868743 
L 379.003591 -194.809683 
L 378.373085 -194.744607 
L 377.74258 -194.674887 
L 377.112074 -194.60039 
L 376.481569 -194.529546 
L 375.851063 -194.465965 
L 375.220558 -194.404767 
L 374.590052 -194.341469 
L 373.959547 -194.280186 
L 373.329041 -194.218731 
L 372.698536 -194.151412 
L 372.06803 -194.081638 
L 371.437524 -194.01282 
L 370.807019 -193.943018 
L 370.176513 -193.87034 
L 369.546008 -193.791286 
L 368.915502 -193.706032 
L 368.284997 -193.614737 
L 367.654491 -193.519872 
L 367.023986 -193.429313 
L 366.39348 -193.349912 
L 365.762975 -193.285623 
L 365.132469 -193.233611 
L 364.501963 -193.191094 
L 363.871458 -193.160617 
L 363.240952 -193.142039 
L 362.610447 -193.136241 
L 361.979941 -193.141988 
L 361.349436 -193.158248 
L 360.71893 -193.179129 
L 360.088425 -193.1985 
L 359.457919 -193.210738 
L 358.827414 -193.211818 
L 358.196908 -193.197686 
L 357.566403 -193.168554 
L 356.935897 -193.136129 
L 356.305391 -193.102974 
L 355.674886 -193.071495 
L 355.04438 -193.042903 
L 354.413875 -193.018665 
L 353.783369 -192.990236 
L 353.152864 -192.954615 
L 352.522358 -192.909304 
L 351.891853 -192.851462 
L 351.261347 -192.777872 
L 350.630842 -192.695945 
L 350.000336 -192.614588 
L 349.36983 -192.53548 
L 348.739325 -192.462455 
L 348.108819 -192.400192 
L 347.478314 -192.351262 
L 346.847808 -192.31095 
L 346.217303 -192.281327 
L 345.586797 -192.264063 
L 344.956292 -192.25912 
L 344.325786 -192.266304 
L 343.695281 -192.280304 
L 343.064775 -192.298563 
L 342.43427 -192.322893 
L 341.803764 -192.347267 
L 341.173258 -192.365434 
L 340.542753 -192.378278 
L 339.912247 -192.38855 
L 339.281742 -192.388697 
L 338.651236 -192.377892 
L 338.020731 -192.357791 
L 337.390225 -192.330302 
L 336.75972 -192.299133 
L 336.129214 -192.269488 
L 335.498709 -192.2464 
L 334.868203 -192.228568 
L 334.237697 -192.21501 
L 333.607192 -192.20268 
L 332.976686 -192.189279 
L 332.346181 -192.166589 
L 331.715675 -192.136666 
L 331.08517 -192.10123 
L 330.454664 -192.063042 
L 329.824159 -192.025123 
L 329.193653 -191.994903 
L 328.563148 -191.973738 
L 327.932642 -191.960102 
L 327.302137 -191.952694 
L 326.671631 -191.950418 
L 326.041125 -191.950151 
L 325.41062 -191.948505 
L 324.780114 -191.947204 
L 324.149609 -191.947786 
L 323.519103 -191.949334 
L 322.888598 -191.951744 
L 322.258092 -191.958511 
L 321.627587 -191.967545 
L 320.997081 -191.97665 
L 320.366576 -191.984798 
L 319.73607 -191.991576 
L 319.105564 -191.996818 
L 318.475059 -191.999008 
L 317.844553 -191.995808 
L 317.214048 -191.985824 
L 316.583542 -191.974783 
L 315.953037 -191.963591 
L 315.322531 -191.953527 
L 314.692026 -191.946239 
L 314.06152 -191.943745 
L 313.431015 -191.939733 
L 312.800509 -191.931063 
L 312.170004 -191.922064 
L 311.539498 -191.90871 
L 310.908992 -191.887125 
L 310.278487 -191.858305 
L 309.647981 -191.82697 
L 309.017476 -191.788756 
L 308.38697 -191.744395 
L 307.756465 -191.698565 
L 307.125959 -191.655171 
L 306.495454 -191.608076 
L 305.864948 -191.558504 
L 305.234443 -191.507699 
L 304.603937 -191.454599 
L 303.973431 -191.397768 
L 303.342926 -191.343691 
L 302.71242 -191.296287 
L 302.081915 -191.257427 
L 301.451409 -191.229041 
L 300.820904 -191.213123 
L 300.190398 -191.208448 
L 299.559893 -191.210636 
L 298.929387 -191.21737 
L 298.298882 -191.227 
L 297.668376 -191.238491 
L 297.037871 -191.250556 
L 296.407365 -191.266797 
L 295.776859 -191.28739 
L 295.146354 -191.312883 
L 294.515848 -191.341639 
L 293.885343 -191.371878 
L 293.254837 -191.403658 
L 292.624332 -191.436509 
L 291.993826 -191.469336 
L 291.363321 -191.501012 
L 290.732815 -191.530381 
L 290.10231 -191.556256 
L 289.471804 -191.577417 
L 288.841298 -191.596044 
L 288.210793 -191.611794 
L 287.580287 -191.621121 
L 286.949782 -191.620799 
L 286.319276 -191.616397 
L 285.688771 -191.606417 
L 285.058265 -191.586851 
L 284.42776 -191.562471 
L 283.797254 -191.538234 
L 283.166749 -191.511766 
L 282.536243 -191.481804 
L 281.905737 -191.456447 
L 281.275232 -191.434416 
L 280.644726 -191.413499 
L 280.014221 -191.392556 
L 279.383715 -191.371985 
L 278.75321 -191.347873 
L 278.122704 -191.318554 
L 277.492199 -191.28604 
L 276.861693 -191.252214 
L 276.231188 -191.218841 
L 275.600682 -191.187559 
L 274.970177 -191.159883 
L 274.339671 -191.137207 
L 273.709165 -191.120798 
L 273.07866 -191.110017 
L 272.448154 -191.104158 
L 271.817649 -191.106351 
L 271.187143 -191.11522 
L 270.556638 -191.128595 
L 269.926132 -191.145052 
L 269.295627 -191.164642 
L 268.665121 -191.187067 
L 268.034616 -191.211538 
L 267.40411 -191.236024 
L 266.773604 -191.258596 
L 266.143099 -191.277414 
L 265.512593 -191.288636 
L 264.882088 -191.281878 
L 264.251582 -191.260196 
L 263.621077 -191.226011 
L 262.990571 -191.186197 
L 262.360066 -191.14732 
L 261.72956 -191.12304 
L 261.099055 -191.115047 
L 260.468549 -191.122705 
L 259.838044 -191.143083 
L 259.207538 -191.166946 
L 258.577032 -191.189974 
L 257.946527 -191.208212 
L 257.316021 -191.219041 
L 256.685516 -191.219699 
L 256.05501 -191.217578 
L 255.424505 -191.214756 
L 254.793999 -191.214123 
L 254.163494 -191.216554 
L 253.532988 -191.223355 
L 252.902483 -191.231489 
L 252.271977 -191.23758 
L 251.641471 -191.236239 
L 251.010966 -191.227541 
L 250.38046 -191.21297 
L 249.749955 -191.193698 
L 249.119449 -191.170593 
L 248.488944 -191.146851 
L 247.858438 -191.124776 
L 247.227933 -191.10203 
L 246.597427 -191.076284 
L 245.966922 -191.05017 
L 245.336416 -191.023693 
L 244.705911 -190.995143 
L 244.075405 -190.965444 
L 243.444899 -190.935616 
L 242.814394 -190.908265 
L 242.183888 -190.886503 
L 241.553383 -190.874222 
L 240.922877 -190.873885 
L 240.292372 -190.887625 
L 239.661866 -190.914857 
L 239.031361 -190.94318 
L 238.400855 -190.969332 
L 237.77035 -190.989623 
L 237.139844 -190.999897 
L 236.509338 -190.995503 
L 235.878833 -190.985556 
L 235.248327 -190.972389 
L 234.617822 -190.956562 
L 233.987316 -190.938788 
L 233.356811 -190.919935 
L 232.726305 -190.899625 
L 232.0958 -190.877064 
L 231.465294 -190.856718 
L 230.834789 -190.83861 
L 230.204283 -190.82082 
L 229.573778 -190.802164 
L 228.943272 -190.783954 
L 228.312766 -190.764002 
L 227.682261 -190.740143 
L 227.051755 -190.715496 
L 226.42125 -190.693213 
L 225.790744 -190.669617 
L 225.160239 -190.643857 
L 224.529733 -190.619367 
L 223.899228 -190.593972 
L 223.268722 -190.565336 
L 222.638217 -190.534833 
L 222.007711 -190.505817 
L 221.377205 -190.489398 
L 220.7467 -190.486157 
L 220.116194 -190.490753 
L 219.485689 -190.498466 
L 218.855183 -190.503105 
L 218.224678 -190.504311 
L 217.594172 -190.503768 
L 216.963667 -190.495049 
L 216.333161 -190.472769 
L 215.702656 -190.434687 
L 215.07215 -190.348831 
L 214.441645 -190.251913 
L 213.811139 -190.143934 
L 213.180633 -190.024895 
L 212.550128 -189.894794 
L 211.919622 -189.753632 
L 211.289117 -189.601409 
L 210.658611 -189.438125 
L 210.028106 -189.26378 
L 209.3976 -189.086298 
L 208.767095 -189.086298 
L 208.136589 -189.086298 
L 207.506084 -189.086298 
L 206.875578 -189.086298 
L 206.245072 -189.086298 
L 205.614567 -189.086298 
L 204.984061 -189.086298 
L 204.353556 -189.086298 
L 203.72305 -189.086298 
L 203.092545 -189.086298 
z
"/>
    </defs>
    <g clip-path="url(#p9b90f66708)">
     <use xlink:href="#md37224be03" x="0" y="325.984252" style="fill: #f7e9cf; fill-opacity: 0.95"/>
    </g>
   </g>
   <g id="line2d_26">
    <path d="M 409.318802 175.63949 
L 409.318802 111.539859 
" clip-path="url(#p9b90f66708)" style="fill: none; stroke-dasharray: 2.7,1.8; stroke-dashoffset: 0; stroke: #3b6fb6; stroke-width: 0.9"/>
   </g>
   <g id="line2d_27">
    <path d="M 451.108457 175.63949 
L 451.108457 111.539859 
" clip-path="url(#p9b90f66708)" style="fill: none; stroke-dasharray: 1.21,1.76; stroke-dashoffset: 0; stroke: #2a9d8f; stroke-width: 1.1"/>
   </g>
   <g id="matplotlib.axis_5">
    <g id="xtick_12">
     <g id="line2d_28">
      <g>
       <use xlink:href="#m28bd0b525f" x="199.940017" y="175.63949" style="fill: #4d4d4d; stroke: #4d4d4d; stroke-width: 0.7"/>
      </g>
     </g>
     <g id="text_34">
      <text style="fill: #4d4d4d; font: 6.5px 'TeX Gyre Termes', serif; text-anchor: middle" x="199.940017" y="186.278787" transform="rotate(-0 199.940017 186.278787)">0</text>
     </g>
    </g>
    <g id="xtick_13">
     <g id="line2d_29">
      <g>
       <use xlink:href="#m28bd0b525f" x="250.38046" y="175.63949" style="fill: #4d4d4d; stroke: #4d4d4d; stroke-width: 0.7"/>
      </g>
     </g>
     <g id="text_35">
      <text style="fill: #4d4d4d; font: 6.5px 'TeX Gyre Termes', serif; text-anchor: middle" x="250.38046" y="186.278787" transform="rotate(-0 250.38046 186.278787)">20</text>
     </g>
    </g>
    <g id="xtick_14">
     <g id="line2d_30">
      <g>
       <use xlink:href="#m28bd0b525f" x="300.820904" y="175.63949" style="fill: #4d4d4d; stroke: #4d4d4d; stroke-width: 0.7"/>
      </g>
     </g>
     <g id="text_36">
      <text style="fill: #4d4d4d; font: 6.5px 'TeX Gyre Termes', serif; text-anchor: middle" x="300.820904" y="186.278787" transform="rotate(-0 300.820904 186.278787)">40</text>
     </g>
    </g>
    <g id="xtick_15">
     <g id="line2d_31">
      <g>
       <use xlink:href="#m28bd0b525f" x="351.261347" y="175.63949" style="fill: #4d4d4d; stroke: #4d4d4d; stroke-width: 0.7"/>
      </g>
     </g>
     <g id="text_37">
      <text style="fill: #4d4d4d; font: 6.5px 'TeX Gyre Termes', serif; text-anchor: middle" x="351.261347" y="186.278787" transform="rotate(-0 351.261347 186.278787)">60</text>
     </g>
    </g>
    <g id="xtick_16">
     <g id="line2d_32">
      <g>
       <use xlink:href="#m28bd0b525f" x="401.70179" y="175.63949" style="fill: #4d4d4d; stroke: #4d4d4d; stroke-width: 0.7"/>
      </g>
     </g>
     <g id="text_38">
      <text style="fill: #4d4d4d; font: 6.5px 'TeX Gyre Termes', serif; text-anchor: middle" x="401.70179" y="186.278787" transform="rotate(-0 401.70179 186.278787)">80</text>
     </g>
    </g>
    <g id="xtick_17">
     <g id="line2d_33">
      <g>
       <use xlink:href="#m28bd0b525f" x="452.142234" y="175.63949" style="fill: #4d4d4d; stroke: #4d4d4d; stroke-width: 0.7"/>
      </g>
     </g>
     <g id="text_39">
      <text style="fill: #4d4d4d; font: 6.5px 'TeX Gyre Termes', serif; text-anchor: middle" x="452.142234" y="186.278787" transform="rotate(-0 452.142234 186.278787)">100</text>
     </g>
    </g>
    <g id="xtick_18">
     <g id="line2d_34">
      <g>
       <use xlink:href="#m28bd0b525f" x="502.582677" y="175.63949" style="fill: #4d4d4d; stroke: #4d4d4d; stroke-width: 0.7"/>
      </g>
     </g>
     <g id="text_40">
      <text style="fill: #4d4d4d; font: 6.5px 'TeX Gyre Termes', serif; text-anchor: middle" x="502.582677" y="186.278787" transform="rotate(-0 502.582677 186.278787)">120</text>
     </g>
    </g>
    <g id="text_41">
     <!-- Areal capacity (mAh cm$^{-2}$) -->
     <g style="fill: #4d4d4d" transform="translate(311.769347 197.37749)">
      <text>
       <tspan style="font: 7.2px 'TeX Gyre Termes'" x="0 5.189362 7.582794 10.774033 13.965271 15.963379 17.760239 20.951477 24.142715 27.73645 30.927689 34.118927 36.117035 38.115143 41.708878 43.505737 45.89917 51.491028 56.680389 60.274124 62.070984 65.262222 76.421415" y="-0.3781250000000007">Areal capacity (mAh cm)</tspan>
       <tspan style="font: 5.04px 'TeX Gyre Termes'" x="70.909588 73.747207" y="-2.5984375000000006">−2</tspan>
      </text>
     </g>
    </g>
   </g>
   <g id="matplotlib.axis_6">
    <g id="ytick_10">
     <g id="line2d_35">
      <g>
       <use xlink:href="#m6f9731b59d" x="199.940017" y="172.117532" style="fill: #4d4d4d; stroke: #4d4d4d; stroke-width: 0.7"/>
      </g>
     </g>
     <g id="text_42">
      <text style="fill: #4d4d4d; font: 6.5px 'TeX Gyre Termes', serif; text-anchor: end" x="193.740017" y="174.33718" transform="rotate(-0 193.740017 174.33718)">-0.010</text>
     </g>
    </g>
    <g id="ytick_11">
     <g id="line2d_36">
      <g>
       <use xlink:href="#m6f9731b59d" x="199.940017" y="136.897954" style="fill: #4d4d4d; stroke: #4d4d4d; stroke-width: 0.7"/>
      </g>
     </g>
     <g id="text_43">
      <text style="fill: #4d4d4d; font: 6.5px 'TeX Gyre Termes', serif; text-anchor: end" x="193.740017" y="139.117603" transform="rotate(-0 193.740017 139.117603)">0.000</text>
     </g>
    </g>
    <g id="ytick_12">
     <g id="line2d_37">
      <g>
       <use xlink:href="#m6f9731b59d" x="199.940017" y="119.288166" style="fill: #4d4d4d; stroke: #4d4d4d; stroke-width: 0.7"/>
      </g>
     </g>
     <g id="text_44">
      <text style="fill: #4d4d4d; font: 6.5px 'TeX Gyre Termes', serif; text-anchor: end" x="193.740017" y="121.507814" transform="rotate(-0 193.740017 121.507814)">0.005</text>
     </g>
    </g>
   </g>
   <g id="line2d_38">
    <path d="M 203.092545 139.368299 
L 206.245072 137.998825 
L 209.3976 136.905878 
L 212.550128 136.089458 
L 215.702656 135.549565 
L 218.224678 135.479941 
L 223.899228 135.39028 
L 236.509338 134.988749 
L 239.661866 135.069395 
L 242.183888 135.097749 
L 254.793999 134.770129 
L 270.556638 134.855657 
L 274.339671 134.847045 
L 289.471804 134.406835 
L 302.081915 134.726825 
L 314.692026 134.038013 
L 324.149609 134.036466 
L 329.824159 133.959129 
L 334.868203 133.755684 
L 341.803764 133.636985 
L 346.217303 133.702925 
L 349.36983 133.448772 
L 353.783369 132.994016 
L 360.088425 132.785752 
L 363.871458 132.823635 
L 366.39348 132.63434 
L 377.74258 131.309365 
L 381.525613 130.98355 
L 388.461174 130.533177 
L 392.244207 129.903143 
L 395.396735 129.111992 
L 399.179768 127.950046 
L 400.440779 126.982492 
L 401.70179 125.99906 
L 402.332296 125.757406 
L 402.962802 126.00921 
L 403.593307 126.627369 
L 404.854318 128.515657 
L 405.484824 129.589427 
L 406.115329 130.443135 
L 406.745835 131.073775 
L 407.37634 131.496585 
L 408.006846 131.735315 
L 409.267857 131.846146 
L 410.528868 131.769593 
L 411.789879 131.405275 
L 412.420385 131.063421 
L 413.681396 129.962976 
L 414.942407 128.374368 
L 416.203418 126.432887 
L 419.355946 121.179 
L 419.986451 120.449301 
L 420.616957 119.896636 
L 421.247462 119.509622 
L 421.877968 119.283431 
L 423.138979 119.156905 
L 423.769484 119.238552 
L 425.661001 120.024167 
L 426.291507 119.918169 
L 426.922012 119.447101 
L 427.552518 118.582601 
L 428.813529 116.367805 
L 429.444034 115.720203 
L 430.07454 115.690197 
L 430.705045 116.214733 
L 431.966056 118.493849 
L 432.596562 119.762321 
L 433.227068 120.731285 
L 433.857573 121.423784 
L 434.488079 121.851868 
L 435.74909 122.271092 
L 436.379595 121.56033 
L 437.640606 118.553186 
L 438.271112 116.99144 
L 438.901617 115.754367 
L 439.532123 115.531493 
L 440.162629 116.793916 
L 440.793134 119.296633 
L 441.42364 122.805304 
L 442.684651 131.843453 
L 446.467684 160.538631 
L 448.359201 173.893979 
L 449.620212 180.907266 
L 450.250717 183.43554 
L 450.881223 185.281266 
L 451.511728 186.464686 
L 452.142234 186.768112 
L 452.772739 186.180411 
L 453.403245 185.182124 
L 454.03375 183.474586 
L 454.664256 180.799082 
L 455.294762 177.250473 
L 455.925267 173.050186 
L 456.555773 167.246016 
L 457.816784 152.315393 
L 459.077795 137.026456 
L 459.7083 131.033383 
L 460.338806 127.717 
L 460.969311 126.882213 
L 461.599817 128.406853 
L 462.860828 133.913967 
L 463.491334 135.116181 
L 464.121839 134.789162 
L 464.752345 132.994673 
L 466.013356 127.775593 
L 466.643861 126.342066 
L 467.274367 126.293748 
L 467.904872 127.401796 
L 468.535378 129.426503 
L 470.426895 136.823056 
L 471.0574 138.689493 
L 471.687906 140.070911 
L 472.318411 141.151243 
L 472.948917 141.991703 
L 473.579422 142.592309 
L 474.209928 142.970822 
L 474.840433 143.143695 
L 475.470939 143.051182 
L 476.101444 142.589385 
L 476.73195 141.655344 
L 477.362455 140.189349 
L 477.992961 138.152953 
L 479.253972 133.307835 
L 479.884478 131.61431 
L 480.514983 130.888321 
L 481.145489 131.390114 
L 483.667511 139.232129 
L 484.298016 139.513716 
L 484.928522 138.238341 
L 486.189533 133.851462 
L 486.820039 131.918745 
L 487.450544 130.481955 
L 488.08105 130.218769 
L 489.342061 133.19808 
L 490.603072 135.023845 
L 491.864083 137.280601 
L 493.125094 139.968349 
L 494.386105 143.087087 
L 495.647116 146.636817 
L 497.538633 152.76952 
L 499.430149 159.871953 
L 501.321666 167.944116 
L 501.952172 170.850332 
L 501.952172 170.850332 
" clip-path="url(#p9b90f66708)" style="fill: none; stroke: #d8912b; stroke-width: 1.2; stroke-linecap: square"/>
   </g>
   <g id="patch_18">
    <path d="M 199.940017 175.63949 
L 199.940017 111.539859 
" style="fill: none; stroke: #4d4d4d; stroke-width: 0.8; stroke-linejoin: miter; stroke-linecap: square"/>
   </g>
   <g id="patch_19">
    <path d="M 199.940017 175.63949 
L 502.582677 175.63949 
" style="fill: none; stroke: #4d4d4d; stroke-width: 0.8; stroke-linejoin: miter; stroke-linecap: square"/>
   </g>
   <g id="patch_20">
    <path d="M 317.188185 127.160618 
Q 323.235884 130.086078 329.283583 133.011539 
" style="fill: none; stroke: #3b6fb6; stroke-width: 0.65; stroke-linecap: round"/>
   </g>
   <g id="text_45">
    <text style="fill: #3b6fb6; font: 6.5px 'TeX Gyre Termes', serif; text-anchor: end" x="318.475059" y="123.315229" transform="rotate(-0 318.475059 123.315229)">rise onset</text>
   </g>
   <g id="patch_21">
    <path d="M 431.152942 113.690268 
Q 434.366734 114.39646 437.580527 115.102653 
" style="fill: none; stroke: #d8912b; stroke-width: 0.65; stroke-linecap: round"/>
   </g>
   <g id="text_46">
    <text style="fill: #d8912b; font: 6.5px 'TeX Gyre Termes', serif; text-anchor: end" x="428.183023" y="111.655419" transform="rotate(-0 428.183023 111.655419)">maximum</text>
   </g>
   <g id="text_47">
    <!-- $dV/dQ$ -->
    <g style="fill: #4d4d4d" transform="translate(202.361158 118.543141)">
     <text>
      <tspan style="font: italic 6.5px 'TeX Gyre Termes'" x="0 3.25 9.028488 12.278488" y="-0.5625">dVdQ</tspan>
      <tspan style="font: 6.5px 'TeX Gyre Termes'" x="7.221497" y="-0.5625">/</tspan>
     </text>
    </g>
    <!-- (V mAh$^{-1}$ cm$^2$) -->
    <g style="fill: #4d4d4d" transform="translate(202.361158 125.827)">
     <text>
      <tspan style="font: 6.5px 'TeX Gyre Termes'" x="0 2.16449 6.857483 8.482483 13.539474 18.232468 26.516676 28.141676 31.027677 38.552677" y="-0.9250000000000007">(V mAh cm)</tspan>
      <tspan style="font: 4.55px 'TeX Gyre Termes'" x="21.532507 24.098707 36.134708" y="-2.9265625000000006">−12</tspan>
     </text>
    </g>
   </g>
   <g id="line2d_39">
    <path d="M 331.08517 133.883022 
" clip-path="url(#p9b90f66708)" style="fill: none; stroke: #1f77b4; stroke-width: 1.5; stroke-linecap: square"/>
    <defs>
     <path id="m341a70164d" d="M 0 2 
C 0.530406 2 1.03916 1.789267 1.414214 1.414214 
C 1.789267 1.03916 2 0.530406 2 0 
C 2 -0.530406 1.789267 -1.03916 1.414214 -1.414214 
C 1.03916 -1.789267 0.530406 -2 0 -2 
C -0.530406 -2 -1.03916 -1.789267 -1.414214 -1.414214 
C -1.789267 -1.03916 -2 -0.530406 -2 0 
C -2 0.530406 -1.789267 1.03916 -1.414214 1.414214 
C -1.03916 1.789267 -0.530406 2 0 2 
z
" style="stroke: #ffffff; stroke-width: 0.55"/>
    </defs>
    <g clip-path="url(#p9b90f66708)">
     <use xlink:href="#m341a70164d" x="331.08517" y="133.883022" style="fill: #3b6fb6; stroke: #ffffff; stroke-width: 0.55"/>
    </g>
   </g>
   <g id="line2d_40">
    <path d="M 439.532123 115.531493 
" clip-path="url(#p9b90f66708)" style="fill: none; stroke: #ff7f0e; stroke-width: 1.5; stroke-linecap: square"/>
    <defs>
     <path id="m6c3d2fb32a" d="M 0 -2.4 
L -2.4 2.4 
L 2.4 2.4 
z
" style="stroke: #d8912b; stroke-linejoin: miter"/>
    </defs>
    <g clip-path="url(#p9b90f66708)">
     <use xlink:href="#m6c3d2fb32a" x="439.532123" y="115.531493" style="fill: #ffffff; stroke: #d8912b; stroke-linejoin: miter"/>
    </g>
   </g>
  </g>
  <g id="axes_5">
   <g id="patch_22">
    <path d="M 199.940017 285.23622 
L 502.582677 285.23622 
L 502.582677 222.694608 
L 199.940017 222.694608 
z
" style="fill: #ffffff"/>
   </g>
   <g id="line2d_41">
    <path d="M 349.272197 285.23622 
L 349.272197 222.694608 
" clip-path="url(#p7a9ddccb92)" style="fill: none; stroke-dasharray: 2.7,1.8; stroke-dashoffset: 0; stroke: #3b6fb6; stroke-width: 0.9"/>
   </g>
   <g id="line2d_42">
    <path d="M 417.967521 285.23622 
L 417.967521 222.694608 
" clip-path="url(#p7a9ddccb92)" style="fill: none; stroke-dasharray: 1.21,1.76; stroke-dashoffset: 0; stroke: #2a9d8f; stroke-width: 1.1"/>
   </g>
   <g id="LineCollection_4">
    <path d="M 220.668966 232.148573 
L 398.937931 232.148573 
" clip-path="url(#p7a9ddccb92)" style="fill: none; stroke: #4d4d4d; stroke-width: 0.9"/>
   </g>
   <g id="LineCollection_5">
    <path d="M 215.486729 246.693134 
L 386.500561 246.693134 
" clip-path="url(#p7a9ddccb92)" style="fill: none; stroke: #4d4d4d; stroke-width: 0.9"/>
   </g>
   <g id="LineCollection_6">
    <path d="M 219.632519 261.237695 
L 447.650961 261.237695 
" clip-path="url(#p7a9ddccb92)" style="fill: none; stroke: #4d4d4d; stroke-width: 0.9"/>
   </g>
   <g id="LineCollection_7">
    <path d="M 375.099639 275.782256 
L 477.707938 275.782256 
" clip-path="url(#p7a9ddccb92)" style="fill: none; stroke: #4d4d4d; stroke-width: 0.9"/>
   </g>
   <g id="matplotlib.axis_7">
    <g id="xtick_19">
     <g id="line2d_43">
      <g>
       <use xlink:href="#m28bd0b525f" x="212.377387" y="285.23622" style="fill: #4d4d4d; stroke: #4d4d4d; stroke-width: 0.7"/>
      </g>
     </g>
     <g id="text_48">
      <text style="fill: #4d4d4d; font: 6.5px 'TeX Gyre Termes', serif; text-anchor: middle" x="212.377387" y="295.875517" transform="rotate(-0 212.377387 295.875517)">50</text>
     </g>
    </g>
    <g id="xtick_20">
     <g id="line2d_44">
      <g>
       <use xlink:href="#m28bd0b525f" x="295.293184" y="285.23622" style="fill: #4d4d4d; stroke: #4d4d4d; stroke-width: 0.7"/>
      </g>
     </g>
     <g id="text_49">
      <text style="fill: #4d4d4d; font: 6.5px 'TeX Gyre Termes', serif; text-anchor: middle" x="295.293184" y="295.875517" transform="rotate(-0 295.293184 295.875517)">70</text>
     </g>
    </g>
    <g id="xtick_21">
     <g id="line2d_45">
      <g>
       <use xlink:href="#m28bd0b525f" x="378.208981" y="285.23622" style="fill: #4d4d4d; stroke: #4d4d4d; stroke-width: 0.7"/>
      </g>
     </g>
     <g id="text_50">
      <text style="fill: #4d4d4d; font: 6.5px 'TeX Gyre Termes', serif; text-anchor: middle" x="378.208981" y="295.875517" transform="rotate(-0 378.208981 295.875517)">90</text>
     </g>
    </g>
    <g id="xtick_22">
     <g id="line2d_46">
      <g>
       <use xlink:href="#m28bd0b525f" x="461.124779" y="285.23622" style="fill: #4d4d4d; stroke: #4d4d4d; stroke-width: 0.7"/>
      </g>
     </g>
     <g id="text_51">
      <text style="fill: #4d4d4d; font: 6.5px 'TeX Gyre Termes', serif; text-anchor: middle" x="461.124779" y="295.875517" transform="rotate(-0 461.124779 295.875517)">110</text>
     </g>
    </g>
    <g id="text_52">
     <!-- Feature capacity (mAh cm$^{-2}$) -->
     <g style="fill: #4d4d4d" transform="translate(308.961347 306.97422)">
      <text>
       <tspan style="font: 7.2px 'TeX Gyre Termes'" x="0 3.996231 7.187469 10.378708 12.376816 15.970551 18.363983 21.555222 23.352081 26.54332 29.734558 33.328293 36.519531 39.71077 41.708878 43.706985 47.30072 49.09758 51.491013 57.08287 62.272232 65.865967 67.662827 70.854065 82.013258" y="-0.3781250000000007">Feature capacity (mAh cm)</tspan>
       <tspan style="font: 5.04px 'TeX Gyre Termes'" x="76.501431 79.33905" y="-2.5984375000000006">−2</tspan>
      </text>
     </g>
    </g>
   </g>
   <g id="matplotlib.axis_8">
    <g id="ytick_13">
     <g id="line2d_47">
      <g>
       <use xlink:href="#m6f9731b59d" x="199.940017" y="232.148573" style="fill: #4d4d4d; stroke: #4d4d4d; stroke-width: 0.7"/>
      </g>
     </g>
     <g id="text_53">
      <text style="fill: #4d4d4d; font: 6.5px 'TeX Gyre Termes', serif; text-anchor: end" x="193.740017" y="234.368221" transform="rotate(-0 193.740017 234.368221)">20</text>
     </g>
    </g>
    <g id="ytick_14">
     <g id="line2d_48">
      <g>
       <use xlink:href="#m6f9731b59d" x="199.940017" y="246.693134" style="fill: #4d4d4d; stroke: #4d4d4d; stroke-width: 0.7"/>
      </g>
     </g>
     <g id="text_54">
      <text style="fill: #4d4d4d; font: 6.5px 'TeX Gyre Termes', serif; text-anchor: end" x="193.740017" y="248.912782" transform="rotate(-0 193.740017 248.912782)">21</text>
     </g>
    </g>
    <g id="ytick_15">
     <g id="line2d_49">
      <g>
       <use xlink:href="#m6f9731b59d" x="199.940017" y="261.237695" style="fill: #4d4d4d; stroke: #4d4d4d; stroke-width: 0.7"/>
      </g>
     </g>
     <g id="text_55">
      <text style="fill: #4d4d4d; font: 6.5px 'TeX Gyre Termes', serif; text-anchor: end" x="193.740017" y="263.457343" transform="rotate(-0 193.740017 263.457343)">22</text>
     </g>
    </g>
    <g id="ytick_16">
     <g id="line2d_50">
      <g>
       <use xlink:href="#m6f9731b59d" x="199.940017" y="275.782256" style="fill: #4d4d4d; stroke: #4d4d4d; stroke-width: 0.7"/>
      </g>
     </g>
     <g id="text_56">
      <text style="fill: #4d4d4d; font: 6.5px 'TeX Gyre Termes', serif; text-anchor: end" x="193.740017" y="278.001904" transform="rotate(-0 193.740017 278.001904)">23</text>
     </g>
    </g>
    <g id="text_57">
     <text style="fill: #4d4d4d; font: 7.2px 'TeX Gyre Termes', serif; text-anchor: middle" x="181.670642" y="253.965414" transform="rotate(-90 181.670642 253.965414)">Cycle</text>
    </g>
   </g>
   <g id="LineCollection_8">
    <path d="M 213.413834 232.148573 
L 255.90818 232.148573 
" clip-path="url(#p7a9ddccb92)" style="fill: none; stroke: #3b6fb6; stroke-opacity: 0.26; stroke-width: 3.2"/>
   </g>
   <g id="LineCollection_9">
    <path d="M 389.609903 232.148573 
L 441.432277 232.148573 
" clip-path="url(#p7a9ddccb92)" style="fill: none; stroke: #d8912b; stroke-opacity: 0.3; stroke-width: 3.2"/>
   </g>
   <g id="LineCollection_10">
    <path d="M 215.486729 246.693134 
L 245.543706 246.693134 
" clip-path="url(#p7a9ddccb92)" style="fill: none; stroke: #3b6fb6; stroke-opacity: 0.26; stroke-width: 3.2"/>
   </g>
   <g id="LineCollection_11">
    <path d="M 386.500561 246.693134 
L 452.833199 246.693134 
" clip-path="url(#p7a9ddccb92)" style="fill: none; stroke: #d8912b; stroke-opacity: 0.3; stroke-width: 3.2"/>
   </g>
   <g id="LineCollection_12">
    <path d="M 218.596071 261.237695 
L 221.705414 261.237695 
" clip-path="url(#p7a9ddccb92)" style="fill: none; stroke: #3b6fb6; stroke-opacity: 0.26; stroke-width: 3.2"/>
   </g>
   <g id="LineCollection_13">
    <path d="M 445.578067 261.237695 
L 462.161226 261.237695 
" clip-path="url(#p7a9ddccb92)" style="fill: none; stroke: #d8912b; stroke-opacity: 0.3; stroke-width: 3.2"/>
   </g>
   <g id="LineCollection_14">
    <path d="M 264.19976 275.782256 
L 375.099639 275.782256 
" clip-path="url(#p7a9ddccb92)" style="fill: none; stroke: #3b6fb6; stroke-opacity: 0.26; stroke-width: 3.2"/>
   </g>
   <g id="LineCollection_15">
    <path d="M 443.505172 275.782256 
L 482.890175 275.782256 
" clip-path="url(#p7a9ddccb92)" style="fill: none; stroke: #d8912b; stroke-opacity: 0.3; stroke-width: 3.2"/>
   </g>
   <g id="patch_23">
    <path d="M 199.940017 285.23622 
L 199.940017 222.694608 
" style="fill: none; stroke: #4d4d4d; stroke-width: 0.8; stroke-linejoin: miter; stroke-linecap: square"/>
   </g>
   <g id="patch_24">
    <path d="M 199.940017 285.23622 
L 502.582677 285.23622 
" style="fill: none; stroke: #4d4d4d; stroke-width: 0.8; stroke-linejoin: miter; stroke-linecap: square"/>
   </g>
   <g id="text_58">
    <text style="fill: #111111; font: 700 8.2px 'TeX Gyre Termes', serif; text-anchor: start" x="180.268244" y="217.886527" transform="rotate(-0 180.268244 217.886527)">d</text>
   </g>
   <g id="text_59">
    <!-- $Q_s$ -->
    <g style="fill: #3b6fb6" transform="translate(339.325565 229.315589)">
     <text>
      <tspan style="font: italic 6.5px 'TeX Gyre Termes'" x="0" y="-0.671875">Q</tspan>
      <tspan style="font: italic 4.55px 'TeX Gyre Termes'" x="4.692993" y="0.18593749999999964">s</tspan>
     </text>
    </g>
   </g>
   <g id="text_60">
    <!-- $Q_{f,\mathrm{cal}}$ -->
    <g style="fill: #2a9d8f" transform="translate(421.284153 229.231292)">
     <text>
      <tspan style="font: italic 6.5px 'TeX Gyre Termes'" x="0" y="-0.671875">Q</tspan>
      <tspan style="font: italic 4.55px 'TeX Gyre Termes'" x="4.692993" y="0.18593749999999964">f</tspan>
      <tspan style="font: 4.55px 'TeX Gyre Termes'" x="5.957887 7.752406 9.772607 11.792809" y="0.18593749999999964">,cal</tspan>
     </text>
    </g>
   </g>
   <g id="text_61">
    <text style="font: 700 7.5px 'TeX Gyre Termes', serif; text-anchor: start" x="199.940017" y="219.694608" transform="rotate(-0 199.940017 219.694608)">Feature timing across four cycles</text>
   </g>
   <g id="line2d_51">
    <path d="M 220.668966 232.148573 
" clip-path="url(#p7a9ddccb92)" style="fill: none; stroke: #1f77b4; stroke-width: 1.5; stroke-linecap: square"/>
    <defs>
     <path id="m70ca8ca8fb" d="M 0 2.05 
C 0.543666 2.05 1.065139 1.833999 1.449569 1.449569 
C 1.833999 1.065139 2.05 0.543666 2.05 0 
C 2.05 -0.543666 1.833999 -1.065139 1.449569 -1.449569 
C 1.065139 -1.833999 0.543666 -2.05 0 -2.05 
C -0.543666 -2.05 -1.065139 -1.833999 -1.449569 -1.449569 
C -1.833999 -1.065139 -2.05 -0.543666 -2.05 0 
C -2.05 0.543666 -1.833999 1.065139 -1.449569 1.449569 
C -1.065139 1.833999 -0.543666 2.05 0 2.05 
z
" style="stroke: #ffffff; stroke-width: 0.55"/>
    </defs>
    <g clip-path="url(#p7a9ddccb92)">
     <use xlink:href="#m70ca8ca8fb" x="220.668966" y="232.148573" style="fill: #3b6fb6; stroke: #ffffff; stroke-width: 0.55"/>
    </g>
   </g>
   <g id="line2d_52">
    <path d="M 398.937931 232.148573 
" clip-path="url(#p7a9ddccb92)" style="fill: none; stroke: #ff7f0e; stroke-width: 1.5; stroke-linecap: square"/>
    <g clip-path="url(#p7a9ddccb92)">
     <use xlink:href="#m6c3d2fb32a" x="398.937931" y="232.148573" style="fill: #ffffff; stroke: #d8912b; stroke-linejoin: miter"/>
    </g>
   </g>
   <g id="line2d_53">
    <path d="M 215.486729 246.693134 
" clip-path="url(#p7a9ddccb92)" style="fill: none; stroke: #2ca02c; stroke-width: 1.5; stroke-linecap: square"/>
    <g clip-path="url(#p7a9ddccb92)">
     <use xlink:href="#m70ca8ca8fb" x="215.486729" y="246.693134" style="fill: #3b6fb6; stroke: #ffffff; stroke-width: 0.55"/>
    </g>
   </g>
   <g id="line2d_54">
    <path d="M 386.500561 246.693134 
" clip-path="url(#p7a9ddccb92)" style="fill: none; stroke: #d62728; stroke-width: 1.5; stroke-linecap: square"/>
    <g clip-path="url(#p7a9ddccb92)">
     <use xlink:href="#m6c3d2fb32a" x="386.500561" y="246.693134" style="fill: #ffffff; stroke: #d8912b; stroke-linejoin: miter"/>
    </g>
   </g>
   <g id="line2d_55">
    <path d="M 219.632519 261.237695 
" clip-path="url(#p7a9ddccb92)" style="fill: none; stroke: #9467bd; stroke-width: 1.5; stroke-linecap: square"/>
    <g clip-path="url(#p7a9ddccb92)">
     <use xlink:href="#m70ca8ca8fb" x="219.632519" y="261.237695" style="fill: #3b6fb6; stroke: #ffffff; stroke-width: 0.55"/>
    </g>
   </g>
   <g id="line2d_56">
    <path d="M 447.650961 261.237695 
" clip-path="url(#p7a9ddccb92)" style="fill: none; stroke: #8c564b; stroke-width: 1.5; stroke-linecap: square"/>
    <g clip-path="url(#p7a9ddccb92)">
     <use xlink:href="#m6c3d2fb32a" x="447.650961" y="261.237695" style="fill: #ffffff; stroke: #d8912b; stroke-linejoin: miter"/>
    </g>
   </g>
   <g id="line2d_57">
    <path d="M 375.099639 275.782256 
" clip-path="url(#p7a9ddccb92)" style="fill: none; stroke: #e377c2; stroke-width: 1.5; stroke-linecap: square"/>
    <g clip-path="url(#p7a9ddccb92)">
     <use xlink:href="#m70ca8ca8fb" x="375.099639" y="275.782256" style="fill: #3b6fb6; stroke: #ffffff; stroke-width: 0.55"/>
    </g>
   </g>
   <g id="line2d_58">
    <path d="M 477.707938 275.782256 
" clip-path="url(#p7a9ddccb92)" style="fill: none; stroke: #7f7f7f; stroke-width: 1.5; stroke-linecap: square"/>
    <g clip-path="url(#p7a9ddccb92)">
     <use xlink:href="#m6c3d2fb32a" x="477.707938" y="275.782256" style="fill: #ffffff; stroke: #d8912b; stroke-linejoin: miter"/>
    </g>
   </g>
   <g id="legend_1">
    <g id="line2d_59">
     <g>
      <use xlink:href="#m70ca8ca8fb" x="356.708458" y="216.312118" style="fill: #3b6fb6; stroke: #ffffff; stroke-width: 0.55"/>
     </g>
    </g>
    <g id="text_62">
     <text style="font: 6.5px 'TeX Gyre Termes', serif; text-anchor: start" x="365.483458" y="218.587118" transform="rotate(-0 365.483458 218.587118)">onset</text>
    </g>
    <g id="line2d_60">
     <g>
      <use xlink:href="#m6c3d2fb32a" x="391.555568" y="216.312118" style="fill: #ffffff; stroke: #d8912b; stroke-linejoin: miter"/>
     </g>
    </g>
    <g id="text_63">
     <text style="font: 6.5px 'TeX Gyre Termes', serif; text-anchor: start" x="400.330568" y="218.587118" transform="rotate(-0 400.330568 218.587118)">maximum</text>
    </g>
    <g id="line2d_61">
     <path d="M 432.544162 216.312118 
L 439.044162 216.312118 
L 445.544162 216.312118 
" style="fill: none; stroke: #4d4d4d; stroke-opacity: 0.35; stroke-width: 3; stroke-linecap: square"/>
    </g>
    <g id="text_64">
     <text style="font: 6.5px 'TeX Gyre Termes', serif; text-anchor: start" x="447.819162" y="218.587118" transform="rotate(-0 447.819162 218.587118)">three-window range</text>
    </g>
   </g>
  </g>
 </g>
 <defs>
  <clipPath id="p0e324d0d0c">
   <rect x="38.267717" y="14.669291" width="140.97036" height="51.373468"/>
  </clipPath>
  <clipPath id="pe5cc51b73b">
   <rect x="38.267717" y="113.097877" width="140.97036" height="172.138343"/>
  </clipPath>
  <clipPath id="pb8d0db477a">
   <rect x="199.940017" y="14.669291" width="302.64266" height="92.944465"/>
  </clipPath>
  <clipPath id="p9b90f66708">
   <rect x="199.940017" y="111.539859" width="302.64266" height="64.099631"/>
  </clipPath>
  <clipPath id="p7a9ddccb92">
   <rect x="199.940017" y="222.694608" width="302.64266" height="62.541613"/>
  </clipPath>
 </defs>
 <defs>
  <pattern id="hd1f89cf037" patternUnits="userSpaceOnUse" x="0" y="0" width="72" height="72">
   <rect x="0" y="0" width="73" height="73" fill="#f7e9cf"/>
   <path d="M -36 36 
L 36 -36 
M -33 39 
L 39 -33 
M -30 42 
L 42 -30 
M -27 45 
L 45 -27 
M -24 48 
L 48 -24 
M -21 51 
L 51 -21 
M -18 54 
L 54 -18 
M -15 57 
L 57 -15 
M -12 60 
L 60 -12 
M -9 63 
L 63 -9 
M -6 66 
L 66 -6 
M -3 69 
L 69 -3 
M 0 72 
L 72 0 
M 3 75 
L 75 3 
M 6 78 
L 78 6 
M 9 81 
L 81 9 
M 12 84 
L 84 12 
M 15 87 
L 87 15 
M 18 90 
L 90 18 
M 21 93 
L 93 21 
M 24 96 
L 96 24 
M 27 99 
L 99 27 
M 30 102 
L 102 30 
M 33 105 
L 105 33 
M 36 108 
L 108 36 
" style="fill: #4d4d4d; stroke: #4d4d4d; stroke-width: 1.0; stroke-linecap: butt; stroke-linejoin: miter"/>
  </pattern>
 </defs>
</svg>
