<?xml version="1.0" encoding="utf-8" standalone="no"?>
<!DOCTYPE svg PUBLIC "-//W3C//DTD SVG 1.1//EN"
  "http://www.w3.org/Graphics/SVG/1.1/DTD/svg11.dtd">
<svg xmlns:xlink="http://www.w3.org/1999/xlink" width="510.23622pt" height="325.984252pt" viewBox="0 0 510.23622 325.984252" xmlns="http://www.w3.org/2000/svg" version="1.1">
 <title>R582 Figure 6 v2 - transport and operating levers</title>
 <metadata>
  <rdf:RDF xmlns:dc="http://purl.org/dc/elements/1.1/" xmlns:cc="http://creativecommons.org/ns#" xmlns:rdf="http://www.w3.org/1999/02/22-rdf-syntax-ns#">
   <cc:Work>
    <dc:type rdf:resource="http://purl.org/dc/dcmitype/StillImage"/>
    <dc:title>R582 Figure 6 v2 - transport and operating levers</dc:title>
    <dc:date>2026-07-20</dc:date>
    <dc:description>Simulated positive-electrode operating-lever comparison</dc:description>
    <dc:format>image/svg+xml</dc:format>
    <dc:creator>
     <cc:Agent>
      <dc:title>deterministic matplotlib R582 Figure 6 v2 builder</dc:title>
     </cc:Agent>
    </dc:creator>
   </cc:Work>
  </rdf:RDF>
 </metadata>
 <defs>
  <style type="text/css">*{stroke-linejoin: round; stroke-linecap: butt}</style>
 </defs>
 <g id="figure_1">
  <g id="patch_1">
   <path d="M 0 325.984252 
L 510.23622 325.984252 
L 510.23622 0 
L 0 0 
z
" style="fill: #ffffff"/>
  </g>
  <g id="axes_1">
   <g id="patch_2">
    <path d="M 38.267717 128.76378 
L 234.512417 128.76378 
L 234.512417 17.929134 
L 38.267717 17.929134 
z
" style="fill: #ffffff"/>
   </g>
   <g id="matplotlib.axis_1">
    <g id="xtick_1">
     <g id="line2d_1">
      <defs>
       <path id="m299a9d3c0e" d="M 0 0 
L 0 2.5 
" style="stroke: #4d4d4d; stroke-width: 0.6"/>
      </defs>
      <g>
       <use xlink:href="#m299a9d3c0e" x="54.898623" y="128.76378" style="fill: #4d4d4d; stroke: #4d4d4d; stroke-width: 0.6"/>
      </g>
     </g>
     <g id="text_1">
      <text style="fill: #4d4d4d; font: 6.5px 'TeX Gyre Termes'; text-anchor: middle" x="54.898623" y="137.703076" transform="rotate(-0 54.898623 137.703076)">20</text>
     </g>
    </g>
    <g id="xtick_2">
     <g id="line2d_2">
      <g>
       <use xlink:href="#m299a9d3c0e" x="88.160437" y="128.76378" style="fill: #4d4d4d; stroke: #4d4d4d; stroke-width: 0.6"/>
      </g>
     </g>
     <g id="text_2">
      <text style="fill: #4d4d4d; font: 6.5px 'TeX Gyre Termes'; text-anchor: middle" x="88.160437" y="137.703076" transform="rotate(-0 88.160437 137.703076)">40</text>
     </g>
    </g>
    <g id="xtick_3">
     <g id="line2d_3">
      <g>
       <use xlink:href="#m299a9d3c0e" x="154.684064" y="128.76378" style="fill: #4d4d4d; stroke: #4d4d4d; stroke-width: 0.6"/>
      </g>
     </g>
     <g id="text_3">
      <text style="fill: #4d4d4d; font: 6.5px 'TeX Gyre Termes'; text-anchor: middle" x="154.684064" y="137.703076" transform="rotate(-0 154.684064 137.703076)">80</text>
     </g>
    </g>
    <g id="xtick_4">
     <g id="line2d_4">
      <g>
       <use xlink:href="#m299a9d3c0e" x="221.207691" y="128.76378" style="fill: #4d4d4d; stroke: #4d4d4d; stroke-width: 0.6"/>
      </g>
     </g>
     <g id="text_4">
      <text style="fill: #4d4d4d; font: 6.5px 'TeX Gyre Termes'; text-anchor: middle" x="221.207691" y="137.703076" transform="rotate(-0 221.207691 137.703076)">120</text>
     </g>
    </g>
    <g id="text_5">
     <!-- Applied current, $J$ (mA cm$^{-2}$) -->
     <g style="fill: #4d4d4d" transform="translate(93.478067 148.80178)">
      <text>
       <tspan style="font: 7.2px 'TeX Gyre Termes'" x="0 5.189362 8.783096 12.376831 14.374939 16.373047 19.564285 23.15802 24.95488 28.146118 31.739853 34.133286 36.526718 39.717957 43.311691 45.309799 47.106659 52.094757 53.891617 56.285049 61.876907 67.066269 68.863129 72.054367 83.21356" y="-0.3781250000000007">Applied current,  (mA cm)</tspan>
       <tspan style="font: italic 7.2px 'TeX Gyre Termes'" x="48.903519" y="-0.3781250000000007">J</tspan>
       <tspan style="font: 5.04px 'TeX Gyre Termes'" x="77.701733 80.539352" y="-2.5984375000000006">−2</tspan>
      </text>
     </g>
    </g>
   </g>
   <g id="matplotlib.axis_2">
    <g id="ytick_1">
     <g id="line2d_5">
      <defs>
       <path id="mb968319c3e" d="M 0 0 
L -2.5 0 
" style="stroke: #4d4d4d; stroke-width: 0.6"/>
      </defs>
      <g>
       <use xlink:href="#mb968319c3e" x="38.267717" y="128.76378" style="fill: #4d4d4d; stroke: #4d4d4d; stroke-width: 0.6"/>
      </g>
     </g>
     <g id="text_6">
      <text style="fill: #4d4d4d; font: 6.5px 'TeX Gyre Termes'; text-anchor: end" x="33.767717" y="130.983428" transform="rotate(-0 33.767717 130.983428)">0</text>
     </g>
    </g>
    <g id="ytick_2">
     <g id="line2d_6">
      <g>
       <use xlink:href="#mb968319c3e" x="38.267717" y="91.818898" style="fill: #4d4d4d; stroke: #4d4d4d; stroke-width: 0.6"/>
      </g>
     </g>
     <g id="text_7">
      <text style="fill: #4d4d4d; font: 6.5px 'TeX Gyre Termes'; text-anchor: end" x="33.767717" y="94.038546" transform="rotate(-0 33.767717 94.038546)">40</text>
     </g>
    </g>
    <g id="ytick_3">
     <g id="line2d_7">
      <g>
       <use xlink:href="#mb968319c3e" x="38.267717" y="54.874016" style="fill: #4d4d4d; stroke: #4d4d4d; stroke-width: 0.6"/>
      </g>
     </g>
     <g id="text_8">
      <text style="fill: #4d4d4d; font: 6.5px 'TeX Gyre Termes'; text-anchor: end" x="33.767717" y="57.093664" transform="rotate(-0 33.767717 57.093664)">80</text>
     </g>
    </g>
    <g id="ytick_4">
     <g id="line2d_8">
      <g>
       <use xlink:href="#mb968319c3e" x="38.267717" y="17.929134" style="fill: #4d4d4d; stroke: #4d4d4d; stroke-width: 0.6"/>
      </g>
     </g>
     <g id="text_9">
      <text style="fill: #4d4d4d; font: 6.5px 'TeX Gyre Termes'; text-anchor: end" x="33.767717" y="20.148782" transform="rotate(-0 33.767717 20.148782)">120</text>
     </g>
    </g>
    <g id="text_10">
     <!-- Averaged saturation point, $Q_{\rm s}$ (mAh cm$^{-2}$) -->
     <g style="fill: #4d4d4d" transform="translate(18.433717 134.798457) rotate(-90)">
      <text>
       <tspan style="font: 7.2px 'TeX Gyre Termes'" x="0 5.189362 8.783096 11.974335 14.367767 17.559006 21.15274 24.343979 27.937714 29.734573 32.530502 35.721741 37.719849 41.313583 43.707016 46.898254 48.896362 50.89447 54.488205 58.08194 59.878799 63.472534 67.066269 69.064377 72.658112 74.656219 76.453079 85.555045 87.351904 89.745337 95.337195 100.526556 104.120291 105.917151 109.108389 120.267582" y="-0.3781250000000007">Averaged saturation point,  (mAh cm)</tspan>
       <tspan style="font: italic 7.2px 'TeX Gyre Termes'" x="78.249939" y="-0.3781250000000007">Q</tspan>
       <tspan style="font: 5.04px 'TeX Gyre Termes'" x="83.439301 114.755755 117.593374" y="0.5734374999999989 -2.5984375000000006 -2.5984375000000006">s−2</tspan>
      </text>
     </g>
    </g>
   </g>
   <g id="line2d_9">
    <path d="M 54.898623 30.564439 
L 88.160437 52.084493 
" clip-path="url(#p09946e4bf4)" style="fill: none; stroke: #d65345; stroke-width: 1.3; stroke-linecap: square"/>
   </g>
   <g id="patch_3">
    <path d="M 38.267717 128.76378 
L 38.267717 17.929134 
" style="fill: none; stroke: #4d4d4d; stroke-width: 0.65; stroke-linejoin: miter; stroke-linecap: square"/>
   </g>
   <g id="patch_4">
    <path d="M 38.267717 128.76378 
L 234.512417 128.76378 
" style="fill: none; stroke: #4d4d4d; stroke-width: 0.65; stroke-linejoin: miter; stroke-linecap: square"/>
   </g>
   <g id="PathCollection_1">
    <defs>
     <path id="m71ba4b0064" d="M 0 2.345208 
C 0.621956 2.345208 1.218523 2.098102 1.658312 1.658312 
C 2.098102 1.218523 2.345208 0.621956 2.345208 0 
C 2.345208 -0.621956 2.098102 -1.218523 1.658312 -1.658312 
C 1.218523 -2.098102 0.621956 -2.345208 0 -2.345208 
C -0.621956 -2.345208 -1.218523 -2.098102 -1.658312 -1.658312 
C -2.098102 -1.218523 -2.345208 -0.621956 -2.345208 0 
C -2.345208 0.621956 -2.098102 1.218523 -1.658312 1.658312 
C -1.218523 2.098102 -0.621956 2.345208 0 2.345208 
z
" style="stroke: #ffffff; stroke-width: 0.55"/>
    </defs>
    <g clip-path="url(#p09946e4bf4)">
     <use xlink:href="#m71ba4b0064" x="54.898623" y="30.564439" style="fill: #d65345; stroke: #ffffff; stroke-width: 0.55"/>
     <use xlink:href="#m71ba4b0064" x="88.160437" y="52.084493" style="fill: #d65345; stroke: #ffffff; stroke-width: 0.55"/>
     <use xlink:href="#m71ba4b0064" x="221.207691" y="121.013256" style="fill: #d65345; stroke: #ffffff; stroke-width: 0.55"/>
    </g>
   </g>
   <g id="patch_5">
    <path d="M 154.684064 87.507121 
Q 154.684064 82.349974 154.684064 78.199058 
" style="fill: none; stroke: #d65345; stroke-width: 0.9; stroke-linecap: round"/>
    <path d="M 153.384064 80.799058 
L 154.684064 78.199058 
L 155.984064 80.799058 
z
" style="fill: #d65345; stroke: #d65345; stroke-width: 0.9; stroke-linecap: round"/>
   </g>
   <g id="text_11">
    <!-- $Q_{\rm s}&gt;40$ -->
    <g style="fill: #4d4d4d" transform="translate(161.336427 81.141383)">
     <text>
      <tspan style="font: italic 6.5px 'TeX Gyre Termes'" x="0" y="-0.609375">Q</tspan>
      <tspan style="font: 4.55px 'TeX Gyre Termes'" x="4.692993" y="0.24843749999999964">s</tspan>
      <tspan style="font: 6.5px 'TeX Gyre Termes'" x="7.544502 12.149101 15.399101" y="-0.609375">&gt;40</tspan>
     </text>
    </g>
   </g>
   <g id="text_12">
    <text style="fill: #9a9a9a; font: 6.5px 'TeX Gyre Termes'; text-anchor: start" x="161.336427" y="87.511329" transform="rotate(-0 161.336427 87.511329)">right-censored</text>
   </g>
   <g id="text_13">
    <text style="fill: #4d4d4d; font: 6.5px 'TeX Gyre Termes'; text-anchor: start" x="59.05635" y="26.38287" transform="rotate(-0 59.05635 26.38287)">106.3</text>
   </g>
   <g id="text_14">
    <text style="fill: #4d4d4d; font: 6.5px 'TeX Gyre Termes'; text-anchor: start" x="92.318164" y="47.902924" transform="rotate(-0 92.318164 47.902924)">83.0</text>
   </g>
   <g id="text_15">
    <text style="fill: #4d4d4d; font: 6.5px 'TeX Gyre Termes'; text-anchor: end" x="217.049965" y="114.984443" transform="rotate(-0 217.049965 114.984443)">8.4</text>
   </g>
   <g id="text_16">
    <text style="fill: #9a9a9a; font: 6.5px 'TeX Gyre Termes'; text-anchor: end" x="230.587523" y="25.69347" transform="rotate(-0 230.587523 25.69347)">full simulations</text>
   </g>
   <g id="text_17">
    <text style="fill: #222222; font: 700 8px 'TeX Gyre Termes'; text-anchor: start" x="6.868565" y="15.024035" transform="rotate(-0 6.868565 15.024035)">a</text>
   </g>
   <g id="PathCollection_2">
    <path d="M 88.160437 55.246771 
C 88.999083 55.246771 89.803493 54.913573 90.396505 54.320561 
C 90.989517 53.727549 91.322715 52.923139 91.322715 52.084493 
C 91.322715 51.245847 90.989517 50.441437 90.396505 49.848425 
C 89.803493 49.255413 88.999083 48.922215 88.160437 48.922215 
C 87.321791 48.922215 86.517381 49.255413 85.924369 49.848425 
C 85.331357 50.441437 84.998159 51.245847 84.998159 52.084493 
C 84.998159 52.923139 85.331357 53.727549 85.924369 54.320561 
C 86.517381 54.913573 87.321791 55.246771 88.160437 55.246771 
L 88.160437 55.246771 
z
" clip-path="url(#p09946e4bf4)" style="fill: none; stroke: #4d4d4d; stroke-width: 0.8"/>
   </g>
   <g id="PathCollection_3">
    <defs>
     <path id="ma09df7b8a2" d="M 0 -2.828427 
L -2.828427 2.828427 
L 2.828427 2.828427 
z
" style="stroke: #d65345"/>
    </defs>
    <g clip-path="url(#p09946e4bf4)">
     <use xlink:href="#ma09df7b8a2" x="154.684064" y="91.818898" style="fill: #ffffff; stroke: #d65345"/>
    </g>
   </g>
  </g>
  <g id="axes_2">
   <g id="patch_6">
    <path d="M 301.235615 128.76378 
L 497.480315 128.76378 
L 497.480315 17.929134 
L 301.235615 17.929134 
z
" style="fill: #ffffff"/>
   </g>
   <g id="patch_7">
    <path d="M 346.1591 128.76378 
L 346.1591 17.929134 
L 417.09092 17.929134 
L 417.09092 128.76378 
z
" clip-path="url(#p5ff432b358)" style="fill: #dce7f4; opacity: 0.68"/>
   </g>
   <g id="matplotlib.axis_3">
    <g id="xtick_5">
     <g id="line2d_10">
      <g>
       <use xlink:href="#m299a9d3c0e" x="310.693191" y="128.76378" style="fill: #4d4d4d; stroke: #4d4d4d; stroke-width: 0.6"/>
      </g>
     </g>
     <g id="text_18">
      <text style="fill: #4d4d4d; font: 6.5px 'TeX Gyre Termes'; text-anchor: middle" x="310.693191" y="137.703076" transform="rotate(-0 310.693191 137.703076)">0.5</text>
     </g>
    </g>
    <g id="xtick_6">
     <g id="line2d_11">
      <g>
       <use xlink:href="#m299a9d3c0e" x="369.80304" y="128.76378" style="fill: #4d4d4d; stroke: #4d4d4d; stroke-width: 0.6"/>
      </g>
     </g>
     <g id="text_19">
      <text style="fill: #4d4d4d; font: 6.5px 'TeX Gyre Termes'; text-anchor: middle" x="369.80304" y="137.703076" transform="rotate(-0 369.80304 137.703076)">1.0</text>
     </g>
    </g>
    <g id="xtick_7">
     <g id="line2d_12">
      <g>
       <use xlink:href="#m299a9d3c0e" x="428.91289" y="128.76378" style="fill: #4d4d4d; stroke: #4d4d4d; stroke-width: 0.6"/>
      </g>
     </g>
     <g id="text_20">
      <text style="fill: #4d4d4d; font: 6.5px 'TeX Gyre Termes'; text-anchor: middle" x="428.91289" y="137.703076" transform="rotate(-0 428.91289 137.703076)">1.5</text>
     </g>
    </g>
    <g id="xtick_8">
     <g id="line2d_13">
      <g>
       <use xlink:href="#m299a9d3c0e" x="488.022739" y="128.76378" style="fill: #4d4d4d; stroke: #4d4d4d; stroke-width: 0.6"/>
      </g>
     </g>
     <g id="text_21">
      <text style="fill: #4d4d4d; font: 6.5px 'TeX Gyre Termes'; text-anchor: middle" x="488.022739" y="137.703076" transform="rotate(-0 488.022739 137.703076)">2.0</text>
     </g>
    </g>
    <g id="text_22">
     <!-- Oxidized-carrier diffusivity, $D_{\rm eff}/D_0$ -->
     <g style="fill: #4d4d4d" transform="translate(347.445965 148.08178)">
      <text>
       <tspan style="font: 7.2px 'TeX Gyre Termes'" x="0 5.189362 8.783096 10.781204 14.374939 16.373047 19.564285 22.755524 26.349258 28.742691 31.933929 35.125168 37.5186 39.912033 41.910141 45.101379 47.494812 49.291672 52.885406 54.883514 57.276947 59.67038 63.264114 66.060043 68.058151 71.651886 73.649994 75.648102 79.241837 81.038696 93.768184" y="-0.09375">Oxidized-carrier diffusivity, /</tspan>
       <tspan style="font: italic 7.2px 'TeX Gyre Termes'" x="82.835556 95.766292" y="-0.09375">DD</tspan>
       <tspan style="font: 5.04px 'TeX Gyre Termes'" x="88.024918 90.258784 91.934187 100.955653" y="0.8578124999999996">eff0</tspan>
      </text>
     </g>
    </g>
   </g>
   <g id="matplotlib.axis_4">
    <g id="ytick_5">
     <g id="line2d_14">
      <g>
       <use xlink:href="#mb968319c3e" x="301.235615" y="126.060495" style="fill: #4d4d4d; stroke: #4d4d4d; stroke-width: 0.6"/>
      </g>
     </g>
     <g id="text_23">
      <text style="fill: #4d4d4d; font: 6.5px 'TeX Gyre Termes'; text-anchor: end" x="296.735615" y="128.280144" transform="rotate(-0 296.735615 128.280144)">40</text>
     </g>
    </g>
    <g id="ytick_6">
     <g id="line2d_15">
      <g>
       <use xlink:href="#mb968319c3e" x="301.235615" y="99.027655" style="fill: #4d4d4d; stroke: #4d4d4d; stroke-width: 0.6"/>
      </g>
     </g>
     <g id="text_24">
      <text style="fill: #4d4d4d; font: 6.5px 'TeX Gyre Termes'; text-anchor: end" x="296.735615" y="101.247304" transform="rotate(-0 296.735615 101.247304)">60</text>
     </g>
    </g>
    <g id="ytick_7">
     <g id="line2d_16">
      <g>
       <use xlink:href="#mb968319c3e" x="301.235615" y="71.994815" style="fill: #4d4d4d; stroke: #4d4d4d; stroke-width: 0.6"/>
      </g>
     </g>
     <g id="text_25">
      <text style="fill: #4d4d4d; font: 6.5px 'TeX Gyre Termes'; text-anchor: end" x="296.735615" y="74.214463" transform="rotate(-0 296.735615 74.214463)">80</text>
     </g>
    </g>
    <g id="ytick_8">
     <g id="line2d_17">
      <g>
       <use xlink:href="#mb968319c3e" x="301.235615" y="44.961974" style="fill: #4d4d4d; stroke: #4d4d4d; stroke-width: 0.6"/>
      </g>
     </g>
     <g id="text_26">
      <text style="fill: #4d4d4d; font: 6.5px 'TeX Gyre Termes'; text-anchor: end" x="296.735615" y="47.181623" transform="rotate(-0 296.735615 47.181623)">100</text>
     </g>
    </g>
    <g id="ytick_9">
     <g id="line2d_18">
      <g>
       <use xlink:href="#mb968319c3e" x="301.235615" y="17.929134" style="fill: #4d4d4d; stroke: #4d4d4d; stroke-width: 0.6"/>
      </g>
     </g>
     <g id="text_27">
      <text style="fill: #4d4d4d; font: 6.5px 'TeX Gyre Termes'; text-anchor: end" x="296.735615" y="20.148782" transform="rotate(-0 296.735615 20.148782)">120</text>
     </g>
    </g>
    <g id="text_28">
     <!-- $Q_{\rm s}$ (mAh cm$^{-2}$) -->
     <g style="fill: #4d4d4d" transform="translate(281.42299 95.594457) rotate(-90)">
      <text>
       <tspan style="font: italic 7.2px 'TeX Gyre Termes'" x="0" y="-0.3781250000000007">Q</tspan>
       <tspan style="font: 5.04px 'TeX Gyre Termes'" x="5.189362 36.505816 39.343435" y="0.5734374999999989 -2.5984375000000006 -2.5984375000000006">s−2</tspan>
       <tspan style="font: 7.2px 'TeX Gyre Termes'" x="7.305106 9.101965 11.495398 17.087256 22.276617 25.870352 27.667212 30.85845 42.017643" y="-0.3781250000000007"> (mAh cm)</tspan>
      </text>
     </g>
    </g>
   </g>
   <g id="line2d_19">
    <path d="M 310.693191 119.255874 
L 322.515161 102.595428 
L 346.1591 81.278607 
L 369.80304 67.912586 
L 393.44698 58.516455 
L 428.91289 48.354577 
L 488.022739 36.575224 
" clip-path="url(#p5ff432b358)" style="fill: none; stroke: #3b6fb6; stroke-width: 1.3; stroke-linecap: square"/>
   </g>
   <g id="patch_8">
    <path d="M 301.235615 128.76378 
L 301.235615 17.929134 
" style="fill: none; stroke: #4d4d4d; stroke-width: 0.65; stroke-linejoin: miter; stroke-linecap: square"/>
   </g>
   <g id="patch_9">
    <path d="M 301.235615 128.76378 
L 497.480315 128.76378 
" style="fill: none; stroke: #4d4d4d; stroke-width: 0.65; stroke-linejoin: miter; stroke-linecap: square"/>
   </g>
   <g id="PathCollection_4">
    <defs>
     <path id="m05a84a4104" d="M 0 2.345208 
C 0.621956 2.345208 1.218523 2.098102 1.658312 1.658312 
C 2.098102 1.218523 2.345208 0.621956 2.345208 0 
C 2.345208 -0.621956 2.098102 -1.218523 1.658312 -1.658312 
C 1.218523 -2.098102 0.621956 -2.345208 0 -2.345208 
C -0.621956 -2.345208 -1.218523 -2.098102 -1.658312 -1.658312 
C -2.098102 -1.218523 -2.345208 -0.621956 -2.345208 0 
C -2.345208 0.621956 -2.098102 1.218523 -1.658312 1.658312 
C -1.218523 2.098102 -0.621956 2.345208 0 2.345208 
z
" style="stroke: #ffffff; stroke-width: 0.55"/>
    </defs>
    <g clip-path="url(#p5ff432b358)">
     <use xlink:href="#m05a84a4104" x="310.693191" y="119.255874" style="fill: #3b6fb6; stroke: #ffffff; stroke-width: 0.55"/>
     <use xlink:href="#m05a84a4104" x="322.515161" y="102.595428" style="fill: #3b6fb6; stroke: #ffffff; stroke-width: 0.55"/>
     <use xlink:href="#m05a84a4104" x="346.1591" y="81.278607" style="fill: #3b6fb6; stroke: #ffffff; stroke-width: 0.55"/>
     <use xlink:href="#m05a84a4104" x="369.80304" y="67.912586" style="fill: #3b6fb6; stroke: #ffffff; stroke-width: 0.55"/>
     <use xlink:href="#m05a84a4104" x="393.44698" y="58.516455" style="fill: #3b6fb6; stroke: #ffffff; stroke-width: 0.55"/>
     <use xlink:href="#m05a84a4104" x="428.91289" y="48.354577" style="fill: #3b6fb6; stroke: #ffffff; stroke-width: 0.55"/>
     <use xlink:href="#m05a84a4104" x="488.022739" y="36.575224" style="fill: #3b6fb6; stroke: #ffffff; stroke-width: 0.55"/>
    </g>
   </g>
   <g id="text_29">
    <text style="fill: #4d4d4d; font: 6.5px 'TeX Gyre Termes'; text-anchor: start" x="315.421979" y="114.93062" transform="rotate(-0 315.421979 114.93062)">45.0</text>
   </g>
   <g id="text_30">
    <text style="fill: #4d4d4d; font: 6.5px 'TeX Gyre Termes'; text-anchor: start" x="374.531828" y="63.587332" transform="rotate(-0 374.531828 63.587332)">83.0</text>
   </g>
   <g id="text_31">
    <text style="fill: #4d4d4d; font: 6.5px 'TeX Gyre Termes'; text-anchor: end" x="484.476148" y="43.333434" transform="rotate(-0 484.476148 43.333434)">106.2</text>
   </g>
   <g id="text_32">
    <text style="fill: #3b6fb6; font: 6.5px 'TeX Gyre Termes'" transform="translate(363.39251 104.389419)">MD-informed</text>
    <text style="fill: #3b6fb6; font: 6.5px 'TeX Gyre Termes'" transform="translate(374.406455 111.127278)">range</text>
   </g>
   <g id="text_33">
    <text style="fill: #9a9a9a; font: 6.5px 'TeX Gyre Termes'; text-anchor: start" x="307.122956" y="25.69347" transform="rotate(-0 307.122956 25.69347)">full simulations</text>
   </g>
   <g id="text_34">
    <text style="fill: #222222; font: 700 8px 'TeX Gyre Termes'; text-anchor: start" x="269.836463" y="15.024035" transform="rotate(-0 269.836463 15.024035)">b</text>
   </g>
   <g id="PathCollection_5">
    <path d="M 369.80304 71.074864 
C 370.641686 71.074864 371.446096 70.741666 372.039108 70.148654 
C 372.63212 69.555642 372.965318 68.751232 372.965318 67.912586 
C 372.965318 67.07394 372.63212 66.26953 372.039108 65.676518 
C 371.446096 65.083506 370.641686 64.750308 369.80304 64.750308 
C 368.964394 64.750308 368.159984 65.083506 367.566972 65.676518 
C 366.97396 66.26953 366.640762 67.07394 366.640762 67.912586 
C 366.640762 68.751232 366.97396 69.555642 367.566972 70.148654 
C 368.159984 70.741666 368.964394 71.074864 369.80304 71.074864 
L 369.80304 71.074864 
z
" clip-path="url(#p5ff432b358)" style="fill: none; stroke: #4d4d4d; stroke-width: 0.8"/>
   </g>
  </g>
  <g id="axes_3">
   <g id="patch_10">
    <path d="M 130.110236 291.755906 
L 497.480315 291.755906 
L 497.480315 169.511811 
L 130.110236 169.511811 
z
" style="fill: #ffffff"/>
   </g>
   <g id="line2d_20">
    <path d="M 343.697491 291.755906 
L 343.697491 169.511811 
" clip-path="url(#p61592ab3ac)" style="fill: none; stroke: #8e8e8e; stroke-width: 0.75; stroke-linecap: square"/>
   </g>
   <g id="line2d_21">
    <path d="M 130.110236 191.773515 
L 497.480315 191.773515 
" clip-path="url(#p61592ab3ac)" style="fill: none; stroke: #e7e5e1; stroke-width: 0.45; stroke-linecap: square"/>
   </g>
   <g id="line2d_22">
    <path d="M 130.110236 211.301326 
L 497.480315 211.301326 
" clip-path="url(#p61592ab3ac)" style="fill: none; stroke: #e7e5e1; stroke-width: 0.45; stroke-linecap: square"/>
   </g>
   <g id="line2d_23">
    <path d="M 130.110236 230.829136 
L 497.480315 230.829136 
" clip-path="url(#p61592ab3ac)" style="fill: none; stroke: #e7e5e1; stroke-width: 0.45; stroke-linecap: square"/>
   </g>
   <g id="line2d_24">
    <path d="M 130.110236 250.356947 
L 497.480315 250.356947 
" clip-path="url(#p61592ab3ac)" style="fill: none; stroke: #e7e5e1; stroke-width: 0.45; stroke-linecap: square"/>
   </g>
   <g id="line2d_25">
    <path d="M 130.110236 269.884758 
L 497.480315 269.884758 
" clip-path="url(#p61592ab3ac)" style="fill: none; stroke: #e7e5e1; stroke-width: 0.45; stroke-linecap: square"/>
   </g>
   <g id="matplotlib.axis_5">
    <g id="xtick_9">
     <g id="line2d_26">
      <g>
       <use xlink:href="#m299a9d3c0e" x="172.827687" y="291.755906" style="fill: #4d4d4d; stroke: #4d4d4d; stroke-width: 0.6"/>
      </g>
     </g>
     <g id="text_35">
      <text style="fill: #4d4d4d; font: 6.5px 'TeX Gyre Termes'; text-anchor: middle" x="172.827687" y="300.695202" transform="rotate(-0 172.827687 300.695202)">−40</text>
     </g>
    </g>
    <g id="xtick_10">
     <g id="line2d_27">
      <g>
       <use xlink:href="#m299a9d3c0e" x="258.262589" y="291.755906" style="fill: #4d4d4d; stroke: #4d4d4d; stroke-width: 0.6"/>
      </g>
     </g>
     <g id="text_36">
      <text style="fill: #4d4d4d; font: 6.5px 'TeX Gyre Termes'; text-anchor: middle" x="258.262589" y="300.695202" transform="rotate(-0 258.262589 300.695202)">−20</text>
     </g>
    </g>
    <g id="xtick_11">
     <g id="line2d_28">
      <g>
       <use xlink:href="#m299a9d3c0e" x="343.697491" y="291.755906" style="fill: #4d4d4d; stroke: #4d4d4d; stroke-width: 0.6"/>
      </g>
     </g>
     <g id="text_37">
      <text style="fill: #4d4d4d; font: 6.5px 'TeX Gyre Termes'; text-anchor: middle" x="343.697491" y="300.695202" transform="rotate(-0 343.697491 300.695202)">0</text>
     </g>
    </g>
    <g id="xtick_12">
     <g id="line2d_29">
      <g>
       <use xlink:href="#m299a9d3c0e" x="429.132393" y="291.755906" style="fill: #4d4d4d; stroke: #4d4d4d; stroke-width: 0.6"/>
      </g>
     </g>
     <g id="text_38">
      <text style="fill: #4d4d4d; font: 6.5px 'TeX Gyre Termes'; text-anchor: middle" x="429.132393" y="300.695202" transform="rotate(-0 429.132393 300.695202)">20</text>
     </g>
    </g>
    <g id="text_39">
     <!-- Shift in averaged saturation point, $\Delta Q_{\rm s}/Q_{{\rm s},0}$ (%) -->
     <g style="fill: #4d4d4d" transform="translate(244.747276 311.433906)">
      <text>
       <tspan style="font: 7.2px 'TeX Gyre Termes'" x="0 3.996231 7.589966 9.588074 11.981506 13.979614 15.776474 17.774582 21.368317 23.165176 26.356415 29.95015 33.141388 35.534821 38.726059 42.319794 45.511032 49.104767 50.901627 53.697556 56.888794 58.886902 62.480637 64.874069 68.065308 70.063416 72.061523 75.655258 79.248993 81.045853 84.639587 88.233322 90.23143 93.825165 95.823273 97.620132 99.416992 111.45864 125.26178 127.05864 129.452072 135.43924" y="-0.75">Shift in averaged saturation point, Δ/ (%)</tspan>
       <tspan style="font: italic 7.2px 'TeX Gyre Termes'" x="104.153534 113.456747" y="-0.75">QQ</tspan>
       <tspan style="font: 5.04px 'TeX Gyre Termes'" x="109.342896 118.646109 120.603259 122.587572" y="0.20156249999999964">ss,0</tspan>
      </text>
     </g>
    </g>
   </g>
   <g id="matplotlib.axis_6">
    <g id="ytick_10">
     <g id="line2d_30"/>
     <g id="text_40">
      <!-- Oxidized-carrier $D_{\rm eff}$  (0.5–2.0 $D_0$) -->
      <g style="fill: #4d4d4d" transform="translate(37.825236 184.229258)">
       <text>
        <tspan style="font: 6.5px 'TeX Gyre Termes'" x="0 4.692993 7.942993 9.749985 12.999985 14.806976 17.692978 20.578979 23.828979 25.993469 28.879471 31.765472 33.929962 36.094452 37.901443 40.787445 42.951935 54.463383 56.088383 57.713383 59.877873 63.127873 64.752873 68.002873 71.252873 74.502873 76.127873 79.377873 88.113835" y="-0.53125">Oxidized-carrier   (0.5–2.0 )</tspan>
        <tspan style="font: italic 6.5px 'TeX Gyre Termes'" x="44.576935 81.002873" y="-0.53125">DD</tspan>
        <tspan style="font: 4.55px 'TeX Gyre Termes'" x="49.269928 51.290129 52.805272 85.695866" y="0.32656249999999964">eff0</tspan>
       </text>
      </g>
     </g>
    </g>
    <g id="ytick_11">
     <g id="line2d_31"/>
     <g id="text_41">
      <!-- Applied current $J$  (20–40 mA cm$^{-2}$) -->
      <g style="fill: #4d4d4d" transform="translate(32.755236 204.10492)">
       <text>
        <tspan style="font: 6.5px 'TeX Gyre Termes'" x="0 4.692993 7.942993 11.192993 12.999985 14.806976 17.692978 20.942978 22.567978 25.453979 28.703979 30.868469 33.032959 35.918961 39.168961 40.975952 45.486954 47.111954 48.736954 50.901443 54.151443 57.401443 60.651443 63.901443 67.151443 68.776443 73.833435 78.526428 80.151428 83.03743 93.128629" y="-0.9250000000000007">Applied current   (20–40 mA cm)</tspan>
        <tspan style="font: italic 6.5px 'TeX Gyre Termes'" x="42.600952" y="-0.9250000000000007">J</tspan>
        <tspan style="font: 4.55px 'TeX Gyre Termes'" x="88.14446 90.710661" y="-2.9265625000000006">−2</tspan>
       </text>
      </g>
     </g>
    </g>
    <g id="ytick_12">
     <g id="line2d_32"/>
     <g id="text_42">
      <!-- MD-informed $D_{\rm eff}$  (0.8–1.4 $D_0$) -->
      <g style="fill: #4d4d4d" transform="translate(44.260236 223.28488)">
       <text>
        <tspan style="font: 6.5px 'TeX Gyre Termes'" x="0 5.778503 10.471497 12.635986 14.442978 17.692978 19.857468 23.107468 25.271957 30.328949 33.214951 36.464951 47.976399 49.601399 51.226399 53.390889 56.640889 58.265889 61.515889 64.765889 68.015889 69.640889 72.890889 81.626851" y="-0.5625">MD-informed   (0.8–1.4 )</tspan>
        <tspan style="font: italic 6.5px 'TeX Gyre Termes'" x="38.089951 74.515889" y="-0.5625">DD</tspan>
        <tspan style="font: 4.55px 'TeX Gyre Termes'" x="42.782944 44.803145 46.318288 79.208882" y="0.29531249999999964">eff0</tspan>
       </text>
      </g>
     </g>
    </g>
    <g id="ytick_13">
     <g id="line2d_33"/>
     <g id="text_43">
      <!-- Flow-dependent $\delta(v)$  (25–100; $m=0.5$) -->
      <g style="fill: #4d4d4d" transform="translate(24.825236 242.835542)">
       <text>
        <tspan style="font: 6.5px 'TeX Gyre Termes'" x="0 3.613998 5.42099 8.67099 13.363983 15.528473 18.778473 21.664474 24.914474 27.800476 31.050476 34.300476 37.186478 40.436478 42.243469 47.189972 52.240463 54.404953 56.029953 57.654953 59.819443 63.069443 66.319443 69.569443 72.819443 76.069443 79.319443 81.126434 88.383026 92.987625 96.237625 97.862625 101.112625" y="-0.53125">Flow-dependent ()  (25–100; =0.5)</tspan>
        <tspan style="font: italic 6.5px 'TeX Gyre Termes'" x="43.868469 49.354462 82.751434" y="-0.53125">δvm</tspan>
       </text>
      </g>
     </g>
    </g>
    <g id="ytick_14">
     <g id="line2d_34"/>
     <g id="text_44">
      <text style="fill: #4d4d4d; font: 6.5px 'TeX Gyre Termes'; text-anchor: end" x="128.110236" y="262.356751" transform="rotate(-0 128.110236 262.356751)">Linked felt geometry  (1.5–3.0 mm)</text>
     </g>
    </g>
    <g id="ytick_15">
     <g id="line2d_35"/>
     <g id="text_45">
      <!-- Flow rate  (25–100 mL min$^{-1}$) -->
      <g style="fill: #4d4d4d" transform="translate(48.810236 282.095811)">
       <text>
        <tspan style="font: 6.5px 'TeX Gyre Termes'" x="0 3.613998 5.42099 8.67099 13.363983 14.988983 17.153473 20.039474 21.846466 24.732468 26.357468 27.982468 30.146957 33.396957 36.646957 39.896957 43.146957 46.396957 49.646957 51.271957 56.328949 60.300446 61.925446 66.982437 68.789429 77.073637" y="-0.9250000000000007">Flow rate  (25–100 mL min)</tspan>
        <tspan style="font: 4.55px 'TeX Gyre Termes'" x="72.089468 74.655668" y="-2.9265625000000006">−1</tspan>
       </text>
      </g>
     </g>
    </g>
   </g>
   <g id="patch_11">
    <path d="M 148.243946 182.00961 
Q 305.618229 182.00961 461.539067 182.00961 
" style="fill: none; stroke: #3b6fb6; stroke-width: 1.3; stroke-linecap: round"/>
    <path d="M 459.019067 180.74961 
L 461.539067 182.00961 
L 459.019067 183.26961 
z
" style="fill: #3b6fb6; stroke: #3b6fb6; stroke-width: 1.3; stroke-linecap: round"/>
   </g>
   <g id="patch_12">
    <path d="M 463.584085 201.53742 
Q 403.640788 201.53742 345.150935 201.53742 
" style="fill: none; stroke: #d65345; stroke-width: 1.3; stroke-linecap: round"/>
    <path d="M 347.670935 202.79742 
L 345.150935 201.53742 
L 347.670935 200.27742 
z
" style="fill: #d65345; stroke: #d65345; stroke-width: 1.3; stroke-linecap: round"/>
   </g>
   <g id="patch_13">
    <path d="M 292.815747 221.065231 
Q 349.035948 221.065231 403.802704 221.065231 
" style="fill: none; stroke-dasharray: 1.69,2.21; stroke-dashoffset: 0; stroke: #67a9b7; stroke-width: 1.3; stroke-linecap: round"/>
    <path d="M 401.282704 219.805231 
L 403.802704 221.065231 
L 401.282704 222.325231 
z
" style="fill: #67a9b7; stroke-dasharray: 1.69,2.21; stroke-dashoffset: 0; stroke: #67a9b7; stroke-width: 1.3; stroke-linecap: round"/>
   </g>
   <g id="patch_14">
    <path d="M 302.386507 240.593042 
Q 337.739152 240.593042 371.638354 240.593042 
" style="fill: none; stroke-dasharray: 4.16,2.73; stroke-dashoffset: 0; stroke: #2a9d8f; stroke-width: 1.3; stroke-linecap: round"/>
    <path d="M 369.118354 239.333042 
L 371.638354 240.593042 
L 369.118354 241.853042 
z
" style="fill: #2a9d8f; stroke-dasharray: 4.16,2.73; stroke-dashoffset: 0; stroke: #2a9d8f; stroke-width: 1.3; stroke-linecap: round"/>
   </g>
   <g id="patch_15">
    <path d="M 340.431181 260.120852 
Q 345.348672 260.120852 348.812719 260.120852 
" style="fill: none; stroke: #7a68a6; stroke-width: 1.3; stroke-linecap: round"/>
    <path d="M 346.292719 258.860852 
L 348.812719 260.120852 
L 346.292719 261.380852 
z
" style="fill: #7a68a6; stroke: #7a68a6; stroke-width: 1.3; stroke-linecap: round"/>
   </g>
   <g id="patch_16">
    <path d="M 342.687826 279.648663 
Q 343.416845 279.648663 342.69242 279.648663 
" style="fill: none; stroke: #4d4d4d; stroke-width: 1.3; stroke-linecap: round"/>
    <path d="M 340.17242 278.388663 
L 342.69242 279.648663 
L 340.17242 280.908663 
z
" style="fill: #4d4d4d; stroke: #4d4d4d; stroke-width: 1.3; stroke-linecap: round"/>
   </g>
   <g id="patch_17">
    <path d="M 130.110236 291.755906 
L 497.480315 291.755906 
" style="fill: none; stroke: #4d4d4d; stroke-width: 0.65; stroke-linejoin: miter; stroke-linecap: square"/>
   </g>
   <g id="PathCollection_6">
    <defs>
     <path id="mcb5afcce29" d="M 0 2.345208 
C 0.621956 2.345208 1.218523 2.098102 1.658312 1.658312 
C 2.098102 1.218523 2.345208 0.621956 2.345208 0 
C 2.345208 -0.621956 2.098102 -1.218523 1.658312 -1.658312 
C 1.218523 -2.098102 0.621956 -2.345208 0 -2.345208 
C -0.621956 -2.345208 -1.218523 -2.098102 -1.658312 -1.658312 
C -2.098102 -1.218523 -2.345208 -0.621956 -2.345208 0 
C -2.345208 0.621956 -2.098102 1.218523 -1.658312 1.658312 
C -1.218523 2.098102 -0.621956 2.345208 0 2.345208 
z
" style="stroke: #3b6fb6; stroke-width: 0.55"/>
    </defs>
    <g clip-path="url(#p61592ab3ac)">
     <use xlink:href="#mcb5afcce29" x="148.243946" y="182.00961" style="fill: #3b6fb6; stroke: #3b6fb6; stroke-width: 0.55"/>
     <use xlink:href="#mcb5afcce29" x="462.992511" y="182.00961" style="fill: #3b6fb6; stroke: #3b6fb6; stroke-width: 0.55"/>
    </g>
   </g>
   <g id="PathCollection_7">
    <defs>
     <path id="m32d9f2f2fe" d="M 0 1.581139 
C 0.419323 1.581139 0.821528 1.41454 1.118034 1.118034 
C 1.41454 0.821528 1.581139 0.419323 1.581139 0 
C 1.581139 -0.419323 1.41454 -0.821528 1.118034 -1.118034 
C 0.821528 -1.41454 0.419323 -1.581139 0 -1.581139 
C -0.419323 -1.581139 -0.821528 -1.41454 -1.118034 -1.118034 
C -1.41454 -0.821528 -1.581139 -0.419323 -1.581139 0 
C -1.581139 0.419323 -1.41454 0.821528 -1.118034 1.118034 
C -0.821528 1.41454 -0.419323 1.581139 0 1.581139 
z
" style="stroke: #3b6fb6; stroke-width: 0.65"/>
    </defs>
    <g clip-path="url(#p61592ab3ac)">
     <use xlink:href="#m32d9f2f2fe" x="343.697491" y="182.00961" style="fill: #3b6fb6; stroke: #3b6fb6; stroke-width: 0.65"/>
    </g>
   </g>
   <g id="text_46">
    <text style="fill: #4d4d4d; font: 6.5px 'TeX Gyre Termes'; text-anchor: end" x="488.936825" y="183.523907" transform="rotate(-0 488.936825 183.523907)">73.7</text>
   </g>
   <g id="PathCollection_8">
    <defs>
     <path id="mcbdabd5747" d="M 0 2.345208 
C 0.621956 2.345208 1.218523 2.098102 1.658312 1.658312 
C 2.098102 1.218523 2.345208 0.621956 2.345208 0 
C 2.345208 -0.621956 2.098102 -1.218523 1.658312 -1.658312 
C 1.218523 -2.098102 0.621956 -2.345208 0 -2.345208 
C -0.621956 -2.345208 -1.218523 -2.098102 -1.658312 -1.658312 
C -2.098102 -1.218523 -2.345208 -0.621956 -2.345208 0 
C -2.345208 0.621956 -2.098102 1.218523 -1.658312 1.658312 
C -1.218523 2.098102 -0.621956 2.345208 0 2.345208 
z
" style="stroke: #d65345; stroke-width: 0.55"/>
    </defs>
    <g clip-path="url(#p61592ab3ac)">
     <use xlink:href="#mcbdabd5747" x="463.584085" y="201.53742" style="fill: #d65345; stroke: #d65345; stroke-width: 0.55"/>
     <use xlink:href="#mcbdabd5747" x="343.697491" y="201.53742" style="fill: #d65345; stroke: #d65345; stroke-width: 0.55"/>
    </g>
   </g>
   <g id="text_47">
    <text style="fill: #4d4d4d; font: 6.5px 'TeX Gyre Termes'; text-anchor: end" x="488.936825" y="203.051717" transform="rotate(-0 488.936825 203.051717)">28.1</text>
   </g>
   <g id="PathCollection_9">
    <defs>
     <path id="ma5b32eea25" d="M 0 -2.783882 
L -2.783882 2.783882 
L 2.783882 2.783882 
z
" style="stroke: #67a9b7; stroke-width: 0.95"/>
    </defs>
    <g clip-path="url(#p61592ab3ac)">
     <use xlink:href="#ma5b32eea25" x="292.815747" y="221.065231" style="fill: #ffffff; stroke: #67a9b7; stroke-width: 0.95"/>
     <use xlink:href="#ma5b32eea25" x="405.256148" y="221.065231" style="fill: #ffffff; stroke: #67a9b7; stroke-width: 0.95"/>
    </g>
   </g>
   <g id="PathCollection_10">
    <defs>
     <path id="m1efe6e3e39" d="M 0 -1.581139 
L -1.581139 1.581139 
L 1.581139 1.581139 
z
" style="stroke: #67a9b7; stroke-width: 0.65"/>
    </defs>
    <g clip-path="url(#p61592ab3ac)">
     <use xlink:href="#m1efe6e3e39" x="343.697491" y="221.065231" style="fill: #ffffff; stroke: #67a9b7; stroke-width: 0.65"/>
    </g>
   </g>
   <g id="text_48">
    <text style="fill: #4d4d4d; font: 6.5px 'TeX Gyre Termes'; text-anchor: end" x="488.936825" y="222.579528" transform="rotate(-0 488.936825 222.579528)">26.3</text>
   </g>
   <g id="PathCollection_11">
    <defs>
     <path id="m0e1146aa9b" d="M 0 3.316625 
L 3.316625 0 
L 0 -3.316625 
L -3.316625 0 
z
" style="stroke: #2a9d8f; stroke-width: 0.55"/>
    </defs>
    <g clip-path="url(#p61592ab3ac)">
     <use xlink:href="#m0e1146aa9b" x="302.386507" y="240.593042" style="fill: #2a9d8f; stroke: #2a9d8f; stroke-width: 0.55"/>
     <use xlink:href="#m0e1146aa9b" x="373.091798" y="240.593042" style="fill: #2a9d8f; stroke: #2a9d8f; stroke-width: 0.55"/>
    </g>
   </g>
   <g id="PathCollection_12">
    <defs>
     <path id="mf5dc18514a" d="M 0 2.236068 
L 2.236068 0 
L 0 -2.236068 
L -2.236068 0 
z
" style="stroke: #2a9d8f; stroke-width: 0.65"/>
    </defs>
    <g clip-path="url(#p61592ab3ac)">
     <use xlink:href="#mf5dc18514a" x="343.697491" y="240.593042" style="fill: #2a9d8f; stroke: #2a9d8f; stroke-width: 0.65"/>
    </g>
   </g>
   <g id="text_49">
    <text style="fill: #4d4d4d; font: 6.5px 'TeX Gyre Termes'; text-anchor: end" x="488.936825" y="242.107339" transform="rotate(-0 488.936825 242.107339)">16.6</text>
   </g>
   <g id="PathCollection_13">
    <defs>
     <path id="m210fd7aca2" d="M 0 2.345208 
C 0.621956 2.345208 1.218523 2.098102 1.658312 1.658312 
C 2.098102 1.218523 2.345208 0.621956 2.345208 0 
C 2.345208 -0.621956 2.098102 -1.218523 1.658312 -1.658312 
C 1.218523 -2.098102 0.621956 -2.345208 0 -2.345208 
C -0.621956 -2.345208 -1.218523 -2.098102 -1.658312 -1.658312 
C -2.098102 -1.218523 -2.345208 -0.621956 -2.345208 0 
C -2.345208 0.621956 -2.098102 1.218523 -1.658312 1.658312 
C -1.218523 2.098102 -0.621956 2.345208 0 2.345208 
z
" style="stroke: #7a68a6; stroke-width: 0.55"/>
    </defs>
    <g clip-path="url(#p61592ab3ac)">
     <use xlink:href="#m210fd7aca2" x="340.431181" y="260.120852" style="fill: #7a68a6; stroke: #7a68a6; stroke-width: 0.55"/>
     <use xlink:href="#m210fd7aca2" x="350.266163" y="260.120852" style="fill: #7a68a6; stroke: #7a68a6; stroke-width: 0.55"/>
    </g>
   </g>
   <g id="PathCollection_14">
    <defs>
     <path id="md05bbe66ea" d="M 0 1.581139 
C 0.419323 1.581139 0.821528 1.41454 1.118034 1.118034 
C 1.41454 0.821528 1.581139 0.419323 1.581139 0 
C 1.581139 -0.419323 1.41454 -0.821528 1.118034 -1.118034 
C 0.821528 -1.41454 0.419323 -1.581139 0 -1.581139 
C -0.419323 -1.581139 -0.821528 -1.41454 -1.118034 -1.118034 
C -1.41454 -0.821528 -1.581139 -0.419323 -1.581139 0 
C -1.581139 0.419323 -1.41454 0.821528 -1.118034 1.118034 
C -0.821528 1.41454 -0.419323 1.581139 0 1.581139 
z
" style="stroke: #7a68a6; stroke-width: 0.65"/>
    </defs>
    <g clip-path="url(#p61592ab3ac)">
     <use xlink:href="#md05bbe66ea" x="343.697491" y="260.120852" style="fill: #7a68a6; stroke: #7a68a6; stroke-width: 0.65"/>
    </g>
   </g>
   <g id="text_50">
    <text style="fill: #4d4d4d; font: 6.5px 'TeX Gyre Termes'; text-anchor: end" x="488.936825" y="261.635149" transform="rotate(-0 488.936825 261.635149)">2.30</text>
   </g>
   <g id="PathCollection_15">
    <defs>
     <path id="m1a4145b81a" d="M 0 2.345208 
C 0.621956 2.345208 1.218523 2.098102 1.658312 1.658312 
C 2.098102 1.218523 2.345208 0.621956 2.345208 0 
C 2.345208 -0.621956 2.098102 -1.218523 1.658312 -1.658312 
C 1.218523 -2.098102 0.621956 -2.345208 0 -2.345208 
C -0.621956 -2.345208 -1.218523 -2.098102 -1.658312 -1.658312 
C -2.098102 -1.218523 -2.345208 -0.621956 -2.345208 0 
C -2.345208 0.621956 -2.098102 1.218523 -1.658312 1.658312 
C -1.218523 2.098102 -0.621956 2.345208 0 2.345208 
z
" style="stroke: #4d4d4d; stroke-width: 0.55"/>
    </defs>
    <g clip-path="url(#p61592ab3ac)">
     <use xlink:href="#m1a4145b81a" x="342.687826" y="279.648663" style="fill: #4d4d4d; stroke: #4d4d4d; stroke-width: 0.55"/>
     <use xlink:href="#m1a4145b81a" x="344.145864" y="279.648663" style="fill: #4d4d4d; stroke: #4d4d4d; stroke-width: 0.55"/>
    </g>
   </g>
   <g id="PathCollection_16">
    <defs>
     <path id="m10cabf8276" d="M 0 1.581139 
C 0.419323 1.581139 0.821528 1.41454 1.118034 1.118034 
C 1.41454 0.821528 1.581139 0.419323 1.581139 0 
C 1.581139 -0.419323 1.41454 -0.821528 1.118034 -1.118034 
C 0.821528 -1.41454 0.419323 -1.581139 0 -1.581139 
C -0.419323 -1.581139 -0.821528 -1.41454 -1.118034 -1.118034 
C -1.41454 -0.821528 -1.581139 -0.419323 -1.581139 0 
C -1.581139 0.419323 -1.41454 0.821528 -1.118034 1.118034 
C -0.821528 1.41454 -0.419323 1.581139 0 1.581139 
z
" style="stroke: #4d4d4d; stroke-width: 0.65"/>
    </defs>
    <g clip-path="url(#p61592ab3ac)">
     <use xlink:href="#m10cabf8276" x="343.697491" y="279.648663" style="fill: #4d4d4d; stroke: #4d4d4d; stroke-width: 0.65"/>
    </g>
   </g>
   <g id="text_51">
    <text style="fill: #4d4d4d; font: 6.5px 'TeX Gyre Termes'; text-anchor: end" x="488.936825" y="281.16296" transform="rotate(-0 488.936825 281.16296)">0.34</text>
   </g>
   <g id="text_52">
    <text style="fill: #4d4d4d; font: 700 6.5px 'TeX Gyre Termes'; text-anchor: end" x="488.936825" y="163.492636" transform="rotate(-0 488.936825 163.492636)">span (%)</text>
   </g>
   <g id="text_53">
    <text style="fill: #222222; font: 700 8px 'TeX Gyre Termes'; text-anchor: start" x="8.87811" y="165.751004" transform="rotate(-0 8.87811 165.751004)">c</text>
   </g>
   <g id="legend_1">
    <g id="line2d_36">
     <path d="M 37.194016 161.386353 
L 44.019016 161.386353 
L 50.844016 161.386353 
" style="fill: none; stroke: #4d4d4d; stroke-width: 1.1; stroke-linecap: square"/>
     <defs>
      <path id="m592e7ca82e" d="M 0 1.9 
C 0.503886 1.9 0.987202 1.699804 1.343503 1.343503 
C 1.699804 0.987202 1.9 0.503886 1.9 0 
C 1.9 -0.503886 1.699804 -0.987202 1.343503 -1.343503 
C 0.987202 -1.699804 0.503886 -1.9 0 -1.9 
C -0.503886 -1.9 -0.987202 -1.699804 -1.343503 -1.343503 
C -1.699804 -0.987202 -1.9 -0.503886 -1.9 0 
C -1.9 0.503886 -1.699804 0.987202 -1.343503 1.343503 
C -0.987202 1.699804 -0.503886 1.9 0 1.9 
z
" style="stroke: #4d4d4d"/>
     </defs>
     <g>
      <use xlink:href="#m592e7ca82e" x="44.019016" y="161.386353" style="fill: #4d4d4d; stroke: #4d4d4d"/>
     </g>
    </g>
    <g id="text_54">
     <text style="font: 6.5px 'TeX Gyre Termes'; text-anchor: start" x="56.044016" y="163.661353" transform="rotate(-0 56.044016 163.661353)">continuum simulation</text>
    </g>
    <g id="line2d_37">
     <path d="M 119.425109 161.386353 
L 126.250109 161.386353 
L 133.075109 161.386353 
" style="fill: none; stroke-dasharray: 3.52,2.31; stroke-dashoffset: 0; stroke: #4d4d4d; stroke-width: 1.1"/>
     <defs>
      <path id="m912da41dc5" d="M 0 2.404163 
L 2.404163 0 
L 0 -2.404163 
L -2.404163 0 
z
" style="stroke: #4d4d4d; stroke-linejoin: miter"/>
     </defs>
     <g>
      <use xlink:href="#m912da41dc5" x="126.250109" y="161.386353" style="fill: #4d4d4d; stroke: #4d4d4d; stroke-linejoin: miter"/>
     </g>
    </g>
    <g id="text_55">
     <text style="font: 6.5px 'TeX Gyre Termes'; text-anchor: start" x="138.275109" y="163.661353" transform="rotate(-0 138.275109 163.661353)">analytical scenario</text>
    </g>
    <g id="line2d_38">
     <path d="M 193.332141 161.386353 
L 200.157141 161.386353 
L 206.982141 161.386353 
" style="fill: none; stroke-dasharray: 1.3,1.7; stroke-dashoffset: 0; stroke: #4d4d4d"/>
     <defs>
      <path id="m9304be6204" d="M 0 -2.1 
L -2.1 2.1 
L 2.1 2.1 
z
" style="stroke: #4d4d4d; stroke-linejoin: miter"/>
     </defs>
     <g>
      <use xlink:href="#m9304be6204" x="200.157141" y="161.386353" style="fill: #ffffff; stroke: #4d4d4d; stroke-linejoin: miter"/>
     </g>
    </g>
    <g id="text_56">
     <text style="font: 6.5px 'TeX Gyre Termes'; text-anchor: start" x="212.182141" y="163.661353" transform="rotate(-0 212.182141 163.661353)">MD-informed range</text>
    </g>
   </g>
  </g>
 </g>
 <defs>
  <clipPath id="p09946e4bf4">
   <rect x="38.267717" y="17.929134" width="196.2447" height="110.834646"/>
  </clipPath>
  <clipPath id="p5ff432b358">
   <rect x="301.235615" y="17.929134" width="196.2447" height="110.834646"/>
  </clipPath>
  <clipPath id="p61592ab3ac">
   <rect x="130.110236" y="169.511811" width="367.370079" height="122.244094"/>
  </clipPath>
 </defs>
</svg>
