<?xml version="1.0" encoding="utf-8" standalone="no"?>
<!DOCTYPE svg PUBLIC "-//W3C//DTD SVG 1.1//EN"
  "http://www.w3.org/Graphics/SVG/1.1/DTD/svg11.dtd">
<svg xmlns:xlink="http://www.w3.org/1999/xlink" width="510.23622pt" height="345.826772pt" viewBox="0 0 510.23622 345.826772" xmlns="http://www.w3.org/2000/svg" version="1.1">
 <title>Derivative-window sensitivity across sequential cycles of one cell</title>
 <metadata>
  <rdf:RDF xmlns:dc="http://purl.org/dc/elements/1.1/" xmlns:cc="http://creativecommons.org/ns#" xmlns:rdf="http://www.w3.org/1999/02/22-rdf-syntax-ns#">
   <cc:Work>
    <dc:type rdf:resource="http://purl.org/dc/dcmitype/StillImage"/>
    <dc:title>Derivative-window sensitivity across sequential cycles of one cell</dc:title>
    <dc:date>2026-07-20</dc:date>
    <dc:format>image/svg+xml</dc:format>
    <dc:creator>
     <cc:Agent>
      <dc:title>make_sifig_r582_s1_derivative.py</dc:title>
     </cc:Agent>
    </dc:creator>
   </cc:Work>
  </rdf:RDF>
 </metadata>
 <defs>
  <style type="text/css">*{stroke-linejoin: round; stroke-linecap: butt}</style>
 </defs>
 <g id="figure_1">
  <g id="patch_1">
   <path d="M 0 345.826772 
L 510.23622 345.826772 
L 510.23622 0 
L 0 0 
z
" style="fill: #ffffff"/>
  </g>
  <g id="axes_1">
   <g id="patch_2">
    <path d="M 42.349606 152.012101 
L 253.465694 152.012101 
L 253.465694 39.770079 
L 42.349606 39.770079 
z
" style="fill: #ffffff"/>
   </g>
   <g id="line2d_1">
    <path d="M 42.349606 71.839228 
L 253.465694 71.839228 
" clip-path="url(#p8f81d7c027)" style="fill: none; stroke: #d9dde0; stroke-width: 0.7; stroke-linecap: square"/>
   </g>
   <g id="matplotlib.axis_1">
    <g id="xtick_1">
     <g id="line2d_2">
      <defs>
       <path id="m6e40f44cce" d="M 0 0 
L 0 2.7 
" style="stroke: #20252a; stroke-width: 0.7"/>
      </defs>
      <g>
       <use xlink:href="#m6e40f44cce" x="42.349606" y="152.012101" style="fill: #20252a; stroke: #20252a; stroke-width: 0.7"/>
      </g>
     </g>
    </g>
    <g id="xtick_2">
     <g id="line2d_3">
      <g>
       <use xlink:href="#m6e40f44cce" x="89.264292" y="152.012101" style="fill: #20252a; stroke: #20252a; stroke-width: 0.7"/>
      </g>
     </g>
    </g>
    <g id="xtick_3">
     <g id="line2d_4">
      <g>
       <use xlink:href="#m6e40f44cce" x="136.178979" y="152.012101" style="fill: #20252a; stroke: #20252a; stroke-width: 0.7"/>
      </g>
     </g>
    </g>
    <g id="xtick_4">
     <g id="line2d_5">
      <g>
       <use xlink:href="#m6e40f44cce" x="183.093665" y="152.012101" style="fill: #20252a; stroke: #20252a; stroke-width: 0.7"/>
      </g>
     </g>
    </g>
    <g id="xtick_5">
     <g id="line2d_6">
      <g>
       <use xlink:href="#m6e40f44cce" x="230.008351" y="152.012101" style="fill: #20252a; stroke: #20252a; stroke-width: 0.7"/>
      </g>
     </g>
    </g>
   </g>
   <g id="matplotlib.axis_2">
    <g id="ytick_1">
     <g id="line2d_7">
      <defs>
       <path id="m9fb00feedb" d="M 0 0 
L -2.7 0 
" style="stroke: #20252a; stroke-width: 0.7"/>
      </defs>
      <g>
       <use xlink:href="#m9fb00feedb" x="42.349606" y="140.558834" style="fill: #20252a; stroke: #20252a; stroke-width: 0.7"/>
      </g>
     </g>
     <g id="text_1">
      <text style="fill: #20252a; font: 6.5px 'TeX Gyre Termes', serif; text-anchor: end" x="37.649606" y="142.778482" transform="rotate(-0 37.649606 142.778482)">−30</text>
     </g>
    </g>
    <g id="ytick_2">
     <g id="line2d_8">
      <g>
       <use xlink:href="#m9fb00feedb" x="42.349606" y="106.199031" style="fill: #20252a; stroke: #20252a; stroke-width: 0.7"/>
      </g>
     </g>
     <g id="text_2">
      <text style="fill: #20252a; font: 6.5px 'TeX Gyre Termes', serif; text-anchor: end" x="37.649606" y="108.418679" transform="rotate(-0 37.649606 108.418679)">−15</text>
     </g>
    </g>
    <g id="ytick_3">
     <g id="line2d_9">
      <g>
       <use xlink:href="#m9fb00feedb" x="42.349606" y="71.839228" style="fill: #20252a; stroke: #20252a; stroke-width: 0.7"/>
      </g>
     </g>
     <g id="text_3">
      <text style="fill: #20252a; font: 6.5px 'TeX Gyre Termes', serif; text-anchor: end" x="37.649606" y="74.058876" transform="rotate(-0 37.649606 74.058876)">0</text>
     </g>
    </g>
    <g id="ytick_4">
     <g id="line2d_10">
      <g>
       <use xlink:href="#m9fb00feedb" x="42.349606" y="44.351386" style="fill: #20252a; stroke: #20252a; stroke-width: 0.7"/>
      </g>
     </g>
     <g id="text_4">
      <text style="fill: #20252a; font: 6.5px 'TeX Gyre Termes', serif; text-anchor: end" x="37.649606" y="46.571034" transform="rotate(-0 37.649606 46.571034)">12</text>
     </g>
    </g>
    <g id="text_5">
     <text style="font: 7.2px 'TeX Gyre Termes', serif; text-anchor: middle" x="21.920575" y="95.89109" transform="rotate(-90 21.920575 95.89109)">dV/dQ (mV per mAh cm−2)</text>
    </g>
   </g>
   <g id="line2d_11">
    <path d="M -1 70.483089 
L 0.712822 70.764878 
L 2.472123 70.674884 
L 5.990725 70.301991 
L 7.750025 70.281741 
L 11.85506 70.586978 
L 15.960095 70.415799 
L 20.06513 70.557521 
L 24.170165 70.24328 
L 30.034501 70.233974 
L 32.966669 70.297234 
L 35.898837 70.194786 
L 38.244571 70.435373 
L 40.590306 70.614057 
L 42.349606 70.525746 
L 45.868208 70.259876 
L 48.800376 70.160373 
L 51.732544 69.912423 
L 57.596879 69.933864 
L 59.942614 69.916433 
L 62.874781 69.995485 
L 66.393383 69.916691 
L 69.911984 70.072941 
L 74.603453 69.641375 
L 81.640656 69.722323 
L 85.159257 69.688479 
L 89.264292 69.678469 
L 94.542195 68.854737 
L 95.715062 68.95775 
L 98.64723 69.521889 
L 99.820097 69.443885 
L 103.338698 68.954224 
L 107.443733 68.702324 
L 109.789468 68.328277 
L 110.962335 68.302527 
L 113.894503 68.446649 
L 115.653803 68.129533 
L 117.413104 67.811975 
L 119.172405 67.770996 
L 123.27744 67.820253 
L 127.382475 67.494002 
L 129.141776 66.909743 
L 130.901076 66.358532 
L 132.660377 66.153485 
L 135.592545 66.095499 
L 137.938279 65.441809 
L 139.111146 65.172446 
L 139.69758 64.820899 
L 140.870447 63.932224 
L 141.456881 63.904737 
L 142.043314 64.332267 
L 142.629748 65.497016 
L 143.802615 70.453005 
L 144.389049 72.965741 
L 144.975482 74.886295 
L 145.561916 75.923254 
L 146.148349 75.517662 
L 146.734783 73.93603 
L 147.321216 71.500397 
L 149.666951 59.886243 
L 150.253384 58.084505 
L 150.839818 57.165287 
L 151.426252 57.390284 
L 152.012685 58.47501 
L 153.771986 63.089231 
L 154.358419 63.699628 
L 154.944853 63.2611 
L 155.531287 62.410552 
L 156.704154 60.267001 
L 157.290587 59.53197 
L 157.877021 59.509862 
L 158.463454 59.951393 
L 160.222755 62.324317 
L 160.809189 62.538778 
L 161.395622 62.227652 
L 161.982056 61.318194 
L 164.32779 56.423005 
L 164.914224 55.375033 
L 165.500657 54.613531 
L 166.087091 54.451011 
L 166.673525 55.079515 
L 167.259958 56.58279 
L 167.846392 59.309391 
L 169.605692 70.633723 
L 170.192126 72.949656 
L 170.77856 73.756963 
L 171.364993 72.656979 
L 171.951427 70.205216 
L 173.710727 60.327543 
L 174.883595 51.561875 
L 175.470028 49.093759 
L 176.056462 49.646114 
L 176.642895 53.99613 
L 177.229329 62.762989 
L 178.402196 90.247269 
L 179.575063 116.373654 
L 180.161497 124.855977 
L 180.74793 129.431332 
L 181.334364 130.16113 
L 181.920798 127.425842 
L 182.507231 121.954007 
L 183.680098 106.095065 
L 184.852965 88.772988 
L 185.439399 82.273048 
L 186.025833 79.383083 
L 186.612266 78.451764 
L 187.1987 78.721724 
L 188.371567 80.540705 
L 188.958 79.897883 
L 189.544434 78.168408 
L 190.130868 77.57959 
L 190.717301 77.2668 
L 191.303735 76.703815 
L 191.890168 75.671096 
L 192.476602 74.108748 
L 193.063035 69.412546 
L 194.822336 50.573688 
L 195.40877 47.120387 
L 195.995203 48.124411 
L 196.581637 54.764591 
L 198.927371 92.0301 
L 199.513805 92.882114 
L 200.100238 89.31928 
L 200.686672 82.837145 
L 202.445973 57.973921 
L 203.032406 54.892585 
L 203.61884 55.1045 
L 204.205273 58.971092 
L 205.378141 77.475488 
L 205.964574 86.470001 
L 206.551008 93.406944 
L 207.137441 96.715789 
L 207.723875 94.292727 
L 208.310308 86.556344 
L 210.069609 56.450153 
L 210.656043 50.750985 
L 211.242476 51.268979 
L 211.82891 54.432628 
L 213.001777 65.646333 
L 213.588211 71.141462 
L 214.174644 73.99395 
L 214.761078 75.495074 
L 215.347511 76.499559 
L 215.933945 76.961718 
L 217.106812 77.269354 
L 217.693246 77.57946 
L 218.279679 77.418132 
L 218.866113 76.78909 
L 219.452546 75.738567 
L 220.625414 72.74601 
L 221.211847 70.174864 
L 222.384714 64.544576 
L 222.971148 63.334419 
L 223.557581 63.991453 
L 224.144015 66.613278 
L 224.730449 70.394661 
L 225.316882 75.335599 
L 226.489749 88.696147 
L 227.662616 106.694921 
L 228.835484 129.331921 
L 229.421917 142.389756 
L 229.421917 142.389756 
" clip-path="url(#p8f81d7c027)" style="fill: none; stroke-dasharray: 1.33,1.235; stroke-dashoffset: 0; stroke: #a94c45; stroke-width: 0.95"/>
   </g>
   <g id="line2d_12">
    <path d="M -1 70.476247 
L 10.09576 70.50102 
L 17.719396 70.442077 
L 37.071704 70.379503 
L 43.522473 70.355401 
L 64.047649 69.956649 
L 81.640656 69.727097 
L 109.789468 68.544619 
L 114.480936 68.208234 
L 120.345272 67.891722 
L 126.209608 67.349561 
L 127.968908 67.063611 
L 129.728209 66.41911 
L 130.901076 65.945081 
L 132.073944 65.860646 
L 133.246811 66.108362 
L 135.006111 66.615137 
L 136.765412 66.86389 
L 141.456881 67.298466 
L 143.216181 67.153369 
L 144.975482 66.751696 
L 149.080517 65.312967 
L 150.253384 64.824332 
L 152.012685 63.792187 
L 153.185552 62.920278 
L 156.704154 59.845667 
L 157.877021 59.546809 
L 159.049888 59.626437 
L 162.568489 59.913944 
L 163.154923 59.63164 
L 164.32779 58.644474 
L 165.500657 57.518366 
L 166.087091 57.274822 
L 166.673525 57.278922 
L 167.259958 57.59703 
L 167.846392 58.209176 
L 168.432825 59.088902 
L 169.605692 61.461073 
L 171.364993 65.997206 
L 173.124294 71.444531 
L 176.642895 83.016634 
L 179.575063 91.188963 
L 180.74793 93.932299 
L 181.334364 94.675146 
L 181.920798 94.826105 
L 182.507231 94.490001 
L 183.093665 93.768122 
L 184.266532 91.702255 
L 184.852965 90.97231 
L 186.025833 90.094959 
L 187.1987 89.443905 
L 187.785133 88.565817 
L 188.371567 87.252555 
L 189.544434 83.472771 
L 191.303735 76.744985 
L 192.476602 73.124328 
L 193.649469 70.503556 
L 194.235903 69.490761 
L 194.822336 68.704413 
L 195.40877 68.107223 
L 195.995203 67.739829 
L 196.581637 67.644234 
L 197.168071 67.860129 
L 199.513805 70.201748 
L 200.100238 70.544289 
L 200.686672 70.637884 
L 202.445973 70.62557 
L 203.61884 70.942331 
L 206.551008 72.422086 
L 208.310308 72.82547 
L 208.896742 72.914956 
L 209.483176 72.850032 
L 210.069609 72.597395 
L 210.656043 72.184132 
L 211.82891 70.943827 
L 214.174644 71.49707 
L 216.520379 72.33844 
L 218.866113 73.467938 
L 221.211847 74.885563 
L 223.557581 76.591316 
L 225.903316 78.585197 
L 228.24905 80.867206 
L 229.421917 82.116258 
L 229.421917 82.116258 
" clip-path="url(#p8f81d7c027)" style="fill: none; stroke-dasharray: 4,1.8; stroke-dashoffset: 0; stroke: #397a78"/>
   </g>
   <g id="line2d_13">
    <path d="M 229.421917 129.71844 
L 233.292379 129.71844 
" style="fill: none; stroke-dasharray: 0.91,0.845; stroke-dashoffset: 0; stroke: #a94c45; stroke-width: 0.65"/>
   </g>
   <g id="line2d_14">
    <path d="M 229.421917 92.054766 
L 233.292379 92.054766 
" style="fill: none; stroke: #254f73; stroke-width: 0.65; stroke-linecap: square"/>
   </g>
   <g id="line2d_15">
    <path d="M 229.421917 81.488731 
L 233.292379 81.488731 
" style="fill: none; stroke-dasharray: 2.6,1.17; stroke-dashoffset: 0; stroke: #397a78; stroke-width: 0.65"/>
   </g>
   <g id="patch_3">
    <path d="M 42.349606 152.012101 
L 42.349606 39.770079 
" style="fill: none; stroke: #20252a; stroke-width: 0.8; stroke-linejoin: miter; stroke-linecap: square"/>
   </g>
   <g id="patch_4">
    <path d="M 42.349606 152.012101 
L 253.465694 152.012101 
" style="fill: none; stroke: #20252a; stroke-width: 0.8; stroke-linejoin: miter; stroke-linecap: square"/>
   </g>
   <g id="text_6">
    <text style="fill: #20252a; font: 700 8px 'TeX Gyre Termes', serif; text-anchor: start" x="20.182417" y="31.956768" transform="rotate(-0 20.182417 31.956768)">a</text>
   </g>
   <g id="line2d_16">
    <path d="M -1 70.453852 
L 20.651564 70.408533 
L 29.448068 70.190808 
L 34.139536 70.289319 
L 41.763173 70.458998 
L 45.281774 70.335866 
L 52.318977 70.003553 
L 61.701914 69.965287 
L 68.739117 69.947494 
L 79.294922 69.69815 
L 85.745691 69.715721 
L 97.474362 69.164684 
L 101.579398 69.169501 
L 105.097999 68.893967 
L 110.375901 68.461164 
L 119.758838 67.934543 
L 123.27744 67.753023 
L 127.382475 67.289858 
L 130.901076 66.659889 
L 133.833244 66.019579 
L 136.765412 64.593503 
L 137.351846 64.757275 
L 137.938279 65.15932 
L 139.111146 66.387448 
L 140.284014 67.641064 
L 141.456881 68.32622 
L 142.629748 68.539831 
L 144.389049 68.503782 
L 145.561916 68.266833 
L 146.734783 67.730177 
L 147.90765 66.845987 
L 149.080517 65.690981 
L 151.426252 62.908411 
L 152.599119 61.615744 
L 153.771986 60.781705 
L 154.944853 60.382881 
L 156.11772 60.300589 
L 156.704154 60.353692 
L 158.463454 60.86465 
L 159.049888 60.79571 
L 159.636322 60.489331 
L 160.222755 59.927066 
L 161.395622 58.486581 
L 161.982056 58.065385 
L 162.568489 58.04587 
L 163.154923 58.387024 
L 164.32779 59.869343 
L 164.914224 60.694347 
L 165.500657 61.324554 
L 166.087091 61.77495 
L 167.259958 62.218572 
L 167.846392 62.326032 
L 168.432825 61.863758 
L 169.605692 59.907935 
L 170.77856 58.087606 
L 171.364993 57.94265 
L 171.951427 58.76372 
L 172.53786 60.391467 
L 173.124294 62.673479 
L 174.297161 68.55182 
L 177.815762 87.214938 
L 179.575063 95.90115 
L 180.74793 100.462537 
L 181.334364 102.106906 
L 181.920798 103.307352 
L 182.507231 104.077039 
L 183.093665 104.274385 
L 183.680098 103.892149 
L 184.266532 103.24287 
L 184.852965 102.132302 
L 185.439399 100.392175 
L 186.612266 95.352354 
L 187.1987 91.577367 
L 188.958 76.800453 
L 189.544434 71.922804 
L 190.130868 68.024957 
L 190.717301 65.868008 
L 191.303735 65.325069 
L 191.890168 66.316682 
L 193.063035 69.898466 
L 193.649469 70.680376 
L 194.235903 70.467686 
L 194.822336 69.300565 
L 195.995203 65.906116 
L 196.581637 64.973761 
L 197.168071 64.942336 
L 197.754504 65.663001 
L 198.340938 66.979855 
L 200.100238 71.790514 
L 200.686672 73.004431 
L 201.859539 74.605533 
L 202.445973 75.152162 
L 203.032406 75.542791 
L 203.61884 75.788973 
L 204.205273 75.901408 
L 204.791707 75.841238 
L 205.378141 75.540889 
L 205.964574 74.933397 
L 206.551008 73.979925 
L 207.137441 72.655469 
L 208.310308 69.504243 
L 208.896742 68.402788 
L 209.483176 67.93061 
L 210.069609 68.256972 
L 212.415343 73.357357 
L 213.001777 73.540499 
L 213.588211 72.711005 
L 214.761078 69.857813 
L 215.347511 68.60079 
L 215.933945 67.666312 
L 216.520379 67.495138 
L 217.693246 69.432859 
L 218.866113 70.620322 
L 220.03898 72.088098 
L 221.211847 73.836188 
L 222.971148 76.98391 
L 224.730449 80.762337 
L 226.489749 85.171468 
L 228.24905 90.211304 
L 229.421917 93.921586 
L 229.421917 93.921586 
" clip-path="url(#p8f81d7c027)" style="fill: none; stroke: #254f73; stroke-width: 1.25; stroke-linecap: round"/>
   </g>
   <g id="text_7">
    <text style="fill: #a94c45; font: 6.5px 'TeX Gyre Termes', serif; text-anchor: start" x="234.699819" y="131.232736" transform="rotate(-0 234.699819 131.232736)">5.25</text>
   </g>
   <g id="text_8">
    <text style="fill: #254f73; font: 700 6.5px 'TeX Gyre Termes', serif; text-anchor: start" x="234.699819" y="93.585312" transform="rotate(-0 234.699819 93.585312)">10.25</text>
   </g>
   <g id="text_9">
    <text style="fill: #397a78; font: 6.5px 'TeX Gyre Termes', serif; text-anchor: start" x="234.699819" y="83.003028" transform="rotate(-0 234.699819 83.003028)">15.25</text>
   </g>
   <g id="text_10">
    <text style="font: 700 7.5px 'TeX Gyre Termes', serif; text-anchor: start" x="42.349606" y="36.770079" transform="rotate(-0 42.349606 36.770079)">Cycle 20</text>
   </g>
   <g id="line2d_17">
    <defs>
     <path id="ma21ae32733" d="M 0 1.85 
C 0.490626 1.85 0.961223 1.655072 1.308148 1.308148 
C 1.655072 0.961223 1.85 0.490626 1.85 0 
C 1.85 -0.490626 1.655072 -0.961223 1.308148 -1.308148 
C 0.961223 -1.655072 0.490626 -1.85 0 -1.85 
C -0.490626 -1.85 -0.961223 -1.655072 -1.308148 -1.308148 
C -1.655072 -0.961223 -1.85 -0.490626 -1.85 0 
C -1.85 0.490626 -1.655072 0.961223 -1.308148 1.308148 
C -0.961223 1.655072 -0.490626 1.85 0 1.85 
z
" style="stroke: #a94c45; stroke-width: 0.9"/>
    </defs>
    <g clip-path="url(#p8f81d7c027)">
     <use xlink:href="#ma21ae32733" x="90.43716" y="69.469699" style="fill: #ffffff; stroke: #a94c45; stroke-width: 0.9"/>
    </g>
   </g>
   <g id="line2d_18">
    <defs>
     <path id="m7fe1c782aa" d="M 0 1.85 
C 0.490626 1.85 0.961223 1.655072 1.308148 1.308148 
C 1.655072 0.961223 1.85 0.490626 1.85 0 
C 1.85 -0.490626 1.655072 -0.961223 1.308148 -1.308148 
C 0.961223 -1.655072 0.490626 -1.85 0 -1.85 
C -0.490626 -1.85 -0.961223 -1.655072 -1.308148 -1.308148 
C -1.655072 -0.961223 -1.85 -0.490626 -1.85 0 
C -1.85 0.490626 -1.655072 0.961223 -1.308148 1.308148 
C -0.961223 1.655072 -0.490626 1.85 0 1.85 
z
" style="stroke: #254f73; stroke-width: 0.9"/>
    </defs>
    <g clip-path="url(#p8f81d7c027)">
     <use xlink:href="#m7fe1c782aa" x="70.498418" y="69.87834" style="fill: #ffffff; stroke: #254f73; stroke-width: 0.9"/>
    </g>
   </g>
   <g id="line2d_19">
    <defs>
     <path id="mfb0c565a02" d="M 0 1.85 
C 0.490626 1.85 0.961223 1.655072 1.308148 1.308148 
C 1.655072 0.961223 1.85 0.490626 1.85 0 
C 1.85 -0.490626 1.655072 -0.961223 1.308148 -1.308148 
C 0.961223 -1.655072 0.490626 -1.85 0 -1.85 
C -0.490626 -1.85 -0.961223 -1.655072 -1.308148 -1.308148 
C -1.655072 -0.961223 -1.85 -0.490626 -1.85 0 
C -1.85 0.490626 -1.655072 0.961223 -1.308148 1.308148 
C -0.961223 1.655072 -0.490626 1.85 0 1.85 
z
" style="stroke: #397a78; stroke-width: 0.9"/>
    </defs>
    <g clip-path="url(#p8f81d7c027)">
     <use xlink:href="#mfb0c565a02" x="66.393383" y="69.936386" style="fill: #ffffff; stroke: #397a78; stroke-width: 0.9"/>
    </g>
   </g>
   <g id="line2d_20">
    <defs>
     <path id="m7a35896668" d="M 0 -2.15 
L -2.15 2.15 
L 2.15 2.15 
z
" style="stroke: #ffffff; stroke-width: 0.45; stroke-linejoin: miter"/>
    </defs>
    <g clip-path="url(#p8f81d7c027)">
     <use xlink:href="#m7a35896668" x="195.40877" y="47.120387" style="fill: #a94c45; stroke: #ffffff; stroke-width: 0.45; stroke-linejoin: miter"/>
    </g>
   </g>
   <g id="line2d_21">
    <defs>
     <path id="md25c2cedfb" d="M 0 -2.15 
L -2.15 2.15 
L 2.15 2.15 
z
" style="stroke: #ffffff; stroke-width: 0.45; stroke-linejoin: miter"/>
    </defs>
    <g clip-path="url(#p8f81d7c027)">
     <use xlink:href="#md25c2cedfb" x="171.364993" y="57.94265" style="fill: #254f73; stroke: #ffffff; stroke-width: 0.45; stroke-linejoin: miter"/>
    </g>
   </g>
   <g id="line2d_22">
    <defs>
     <path id="m5be1fc0a9c" d="M 0 -2.15 
L -2.15 2.15 
L 2.15 2.15 
z
" style="stroke: #ffffff; stroke-width: 0.45; stroke-linejoin: miter"/>
    </defs>
    <g clip-path="url(#p8f81d7c027)">
     <use xlink:href="#m5be1fc0a9c" x="166.087091" y="57.274822" style="fill: #397a78; stroke: #ffffff; stroke-width: 0.45; stroke-linejoin: miter"/>
    </g>
   </g>
  </g>
  <g id="axes_2">
   <g id="patch_5">
    <path d="M 291.46659 152.012101 
L 502.582677 152.012101 
L 502.582677 39.770079 
L 291.46659 39.770079 
z
" style="fill: #ffffff"/>
   </g>
   <g id="line2d_23">
    <path d="M 291.46659 71.839228 
L 502.582677 71.839228 
" clip-path="url(#p489e05055c)" style="fill: none; stroke: #d9dde0; stroke-width: 0.7; stroke-linecap: square"/>
   </g>
   <g id="matplotlib.axis_3">
    <g id="xtick_6">
     <g id="line2d_24">
      <g>
       <use xlink:href="#m6e40f44cce" x="291.46659" y="152.012101" style="fill: #20252a; stroke: #20252a; stroke-width: 0.7"/>
      </g>
     </g>
    </g>
    <g id="xtick_7">
     <g id="line2d_25">
      <g>
       <use xlink:href="#m6e40f44cce" x="338.381276" y="152.012101" style="fill: #20252a; stroke: #20252a; stroke-width: 0.7"/>
      </g>
     </g>
    </g>
    <g id="xtick_8">
     <g id="line2d_26">
      <g>
       <use xlink:href="#m6e40f44cce" x="385.295962" y="152.012101" style="fill: #20252a; stroke: #20252a; stroke-width: 0.7"/>
      </g>
     </g>
    </g>
    <g id="xtick_9">
     <g id="line2d_27">
      <g>
       <use xlink:href="#m6e40f44cce" x="432.210648" y="152.012101" style="fill: #20252a; stroke: #20252a; stroke-width: 0.7"/>
      </g>
     </g>
    </g>
    <g id="xtick_10">
     <g id="line2d_28">
      <g>
       <use xlink:href="#m6e40f44cce" x="479.125334" y="152.012101" style="fill: #20252a; stroke: #20252a; stroke-width: 0.7"/>
      </g>
     </g>
    </g>
   </g>
   <g id="matplotlib.axis_4">
    <g id="ytick_5">
     <g id="line2d_29">
      <g>
       <use xlink:href="#m9fb00feedb" x="291.46659" y="140.558834" style="fill: #20252a; stroke: #20252a; stroke-width: 0.7"/>
      </g>
     </g>
    </g>
    <g id="ytick_6">
     <g id="line2d_30">
      <g>
       <use xlink:href="#m9fb00feedb" x="291.46659" y="106.199031" style="fill: #20252a; stroke: #20252a; stroke-width: 0.7"/>
      </g>
     </g>
    </g>
    <g id="ytick_7">
     <g id="line2d_31">
      <g>
       <use xlink:href="#m9fb00feedb" x="291.46659" y="71.839228" style="fill: #20252a; stroke: #20252a; stroke-width: 0.7"/>
      </g>
     </g>
    </g>
    <g id="ytick_8">
     <g id="line2d_32">
      <g>
       <use xlink:href="#m9fb00feedb" x="291.46659" y="44.351386" style="fill: #20252a; stroke: #20252a; stroke-width: 0.7"/>
      </g>
     </g>
    </g>
   </g>
   <g id="line2d_33">
    <path d="M 199.396518 75.776846 
L 201.155819 74.204238 
L 202.91512 72.963017 
L 204.67442 72.053184 
L 205.847287 71.672879 
L 207.606588 71.449696 
L 209.365889 71.175471 
L 211.12519 71.048862 
L 215.816658 70.991809 
L 218.162393 70.789041 
L 221.09456 70.798281 
L 224.613162 71.010773 
L 226.958896 71.0738 
L 228.131763 70.899517 
L 231.063931 70.168323 
L 232.236798 70.116748 
L 233.996099 70.319051 
L 236.341833 70.752294 
L 237.514701 70.742228 
L 241.033302 70.432729 
L 245.724771 70.585883 
L 249.243372 70.458961 
L 256.867009 70.716213 
L 258.626309 70.872502 
L 259.799176 70.729402 
L 263.317778 69.91455 
L 264.490645 69.856878 
L 265.663512 70.000363 
L 268.59568 70.641745 
L 270.354981 70.653839 
L 273.287149 70.307531 
L 275.046449 70.155884 
L 277.392184 70.177886 
L 279.151485 70.381703 
L 281.497219 70.632613 
L 283.25652 70.56942 
L 285.01582 70.266543 
L 286.775121 69.930502 
L 288.534422 69.899166 
L 293.812324 70.220918 
L 297.917359 70.258935 
L 302.022394 70.307749 
L 306.127429 70.19825 
L 309.059597 69.909342 
L 310.232464 70.03591 
L 312.578198 70.372261 
L 313.751066 70.260482 
L 317.856101 69.554168 
L 319.028968 69.809154 
L 321.374702 70.586925 
L 321.961136 70.57909 
L 323.134003 69.593998 
L 323.720436 69.370911 
L 324.30687 69.647442 
L 324.893303 70.535509 
L 325.479737 72.870084 
L 327.239038 81.856063 
L 327.825471 83.573693 
L 328.411905 83.85265 
L 328.998339 82.547111 
L 329.584772 79.996968 
L 330.757639 72.581408 
L 331.930506 64.488392 
L 332.51694 61.168626 
L 333.103374 58.938746 
L 333.689807 58.245137 
L 334.276241 59.309888 
L 334.862674 61.724854 
L 336.621975 71.256278 
L 337.208409 72.42636 
L 337.794842 72.537846 
L 338.381276 71.767426 
L 340.72701 66.637644 
L 341.313444 65.972849 
L 341.899877 65.595995 
L 342.486311 65.520161 
L 343.072744 65.758753 
L 346.004912 68.362663 
L 347.177779 68.966505 
L 348.350647 70.057952 
L 349.523514 71.671319 
L 350.109947 72.580045 
L 350.696381 72.839613 
L 351.869248 72.988551 
L 352.455682 73.340749 
L 353.042115 74.02462 
L 353.628549 75.722811 
L 355.974283 85.696758 
L 356.560717 87.27975 
L 357.14715 87.942097 
L 357.733584 87.546203 
L 358.320017 86.039706 
L 358.906451 83.447649 
L 359.492884 79.955345 
L 361.252185 67.383056 
L 361.838619 64.561467 
L 362.425052 63.407516 
L 363.011486 63.649645 
L 363.59792 65.025482 
L 364.770787 68.877003 
L 365.35722 69.940693 
L 365.943654 70.389605 
L 366.530087 70.291439 
L 367.116521 69.716953 
L 367.702955 68.743465 
L 368.875822 65.962703 
L 370.048689 62.366535 
L 370.635122 61.102506 
L 371.221556 60.653522 
L 371.80799 61.271074 
L 372.394423 62.67538 
L 372.980857 64.740348 
L 375.913025 76.833498 
L 376.499458 78.771171 
L 377.085892 80.168 
L 377.672325 80.935773 
L 378.258759 81.009166 
L 378.845193 80.504858 
L 379.431626 79.357351 
L 380.01806 77.644112 
L 381.77736 71.18591 
L 383.536661 64.138403 
L 385.295962 59.059859 
L 385.882395 57.867699 
L 386.468829 57.471512 
L 387.055263 57.933291 
L 387.641696 59.303843 
L 388.22813 62.709877 
L 389.98743 76.208099 
L 390.573864 79.257346 
L 391.160298 80.487546 
L 391.746731 79.848118 
L 392.333165 77.904316 
L 394.678899 66.802843 
L 395.265333 65.289402 
L 395.851766 65.032242 
L 396.4382 66.466349 
L 397.611067 73.270446 
L 398.783934 81.101731 
L 399.370368 84.26351 
L 401.716102 90.444127 
L 402.302536 91.200373 
L 402.888969 91.689774 
L 403.475403 91.351179 
L 404.061836 89.536704 
L 404.64827 86.571949 
L 405.821137 78.478347 
L 406.994004 70.157851 
L 407.580438 67.024725 
L 408.166871 64.694259 
L 408.753305 63.314695 
L 409.339738 63.079661 
L 409.926172 63.436774 
L 411.099039 64.810107 
L 411.685473 65.114813 
L 412.271906 64.362142 
L 412.85834 62.836376 
L 414.031207 59.119715 
L 414.617641 57.835186 
L 415.204074 57.496775 
L 416.376941 59.26966 
L 416.963375 60.662225 
L 417.549809 62.747859 
L 418.722676 68.684133 
L 419.309109 73.217333 
L 421.06841 90.325553 
L 421.654844 94.240054 
L 422.241277 96.246002 
L 422.827711 95.729725 
L 423.414144 93.079259 
L 424.000578 88.799588 
L 426.346312 67.544281 
L 426.932746 63.552422 
L 427.519179 60.901512 
L 428.105613 60.164831 
L 428.692047 59.761559 
L 429.27848 59.078253 
L 429.864914 58.937952 
L 430.451347 59.547408 
L 431.037781 60.509585 
L 431.624214 62.616211 
L 432.210648 68.459405 
L 433.969949 90.974411 
L 434.556382 96.480567 
L 435.142816 98.435073 
L 435.729249 96.936688 
L 436.315683 92.559241 
L 436.902117 85.837423 
L 439.247851 53.141778 
L 439.834284 48.724142 
L 440.420718 47.921026 
L 441.007152 50.290529 
L 441.593585 53.636119 
L 442.766452 62.032717 
L 443.352886 65.02813 
L 443.93932 65.519688 
L 444.525753 66.203443 
L 445.112187 67.161108 
L 445.69862 68.427422 
L 446.285054 70.297851 
L 448.044355 79.47957 
L 448.630788 81.578084 
L 449.217222 82.509073 
L 449.803655 81.892061 
L 450.976522 77.505693 
L 452.14939 71.484353 
L 452.735823 68.408177 
L 453.322257 65.980631 
L 453.90869 62.149955 
L 455.081557 53.283025 
L 455.667991 50.149964 
L 456.254425 48.393743 
L 456.840858 49.27684 
L 457.427292 53.515246 
L 458.600159 67.090684 
L 459.773026 80.581651 
L 460.35946 83.95358 
L 460.945893 85.136257 
L 461.532327 84.604211 
L 462.11876 82.608085 
L 463.291628 76.502043 
L 463.878061 74.684232 
L 464.464495 74.035631 
L 465.050928 75.100753 
L 465.637362 78.796989 
L 467.396663 94.634993 
L 467.983096 97.484126 
L 468.56953 96.89404 
L 469.155963 92.675482 
L 469.742397 85.041151 
L 470.915264 66.305557 
L 471.501698 58.72469 
L 472.088131 54.719642 
L 472.674565 53.696284 
L 473.260998 54.176185 
L 473.847432 56.159343 
L 474.433865 59.645759 
L 475.020299 64.635432 
L 475.606733 71.128364 
L 476.7796 88.624 
L 477.952467 112.132668 
L 477.952467 112.132668 
" clip-path="url(#p489e05055c)" style="fill: none; stroke-dasharray: 1.33,1.235; stroke-dashoffset: 0; stroke: #a94c45; stroke-width: 0.95"/>
   </g>
   <g id="line2d_34">
    <path d="M 199.396518 73.110357 
L 204.67442 72.181898 
L 209.952322 71.472906 
L 215.230225 70.983381 
L 218.162393 70.887833 
L 222.267428 70.827721 
L 242.206169 70.491922 
L 254.521274 70.508887 
L 271.527848 70.332128 
L 279.737918 70.361596 
L 287.361555 70.195929 
L 299.090226 70.212722 
L 303.781695 70.251419 
L 310.232464 70.034531 
L 311.405331 69.782088 
L 313.751066 69.15843 
L 314.337499 69.253464 
L 315.510366 69.768113 
L 317.856101 71.190158 
L 319.615401 71.952498 
L 321.374702 72.377293 
L 324.30687 72.635068 
L 326.066171 72.688859 
L 327.239038 72.530839 
L 328.998339 72.014239 
L 331.344073 71.054441 
L 333.103374 70.094259 
L 336.621975 67.857433 
L 338.381276 67.134518 
L 341.313444 65.980908 
L 341.899877 65.962693 
L 342.486311 66.117957 
L 343.072744 66.432862 
L 344.245612 67.490047 
L 345.418479 69.047807 
L 347.177779 71.734163 
L 348.350647 73.102742 
L 349.523514 73.85818 
L 351.869248 75.257367 
L 353.628549 76.506999 
L 354.801416 77.105973 
L 355.974283 77.387233 
L 357.14715 77.278641 
L 357.733584 77.01455 
L 358.906451 76.090176 
L 360.665752 74.19285 
L 364.770787 69.45933 
L 365.943654 68.553842 
L 367.116521 68.011965 
L 368.289388 67.90187 
L 369.462255 68.058819 
L 371.221556 68.620107 
L 372.394423 69.226069 
L 374.153724 70.16165 
L 375.326591 70.428772 
L 377.085892 70.430441 
L 378.258759 70.568202 
L 379.431626 70.756212 
L 380.604493 70.5953 
L 382.363794 69.982244 
L 385.882395 68.686039 
L 387.641696 67.744991 
L 388.22813 67.526493 
L 388.814563 67.481538 
L 389.400997 67.669851 
L 389.98743 68.062491 
L 391.160298 69.335927 
L 392.919598 72.009573 
L 397.024633 78.498286 
L 398.197501 79.892 
L 398.783934 80.358933 
L 399.370368 80.662767 
L 399.956801 80.830744 
L 400.543235 80.859067 
L 401.129668 80.735513 
L 401.716102 80.423292 
L 402.888969 79.319697 
L 404.061836 77.79954 
L 405.234703 75.752674 
L 407.580438 71.232957 
L 408.166871 70.522814 
L 409.339738 69.681372 
L 411.099039 68.76883 
L 412.271906 67.949892 
L 413.444774 67.514564 
L 414.031207 67.56111 
L 414.617641 67.838002 
L 415.790508 68.765008 
L 416.963375 69.810318 
L 417.549809 70.086614 
L 418.722676 70.257427 
L 419.895543 70.301053 
L 420.481976 70.723384 
L 421.06841 71.453988 
L 422.241277 73.36718 
L 423.414144 75.21178 
L 424.000578 75.765127 
L 425.173445 76.388592 
L 426.932746 76.796079 
L 428.105613 76.940062 
L 428.692047 76.880175 
L 429.27848 76.699342 
L 429.864914 76.269162 
L 431.037781 74.821603 
L 433.969949 70.608095 
L 435.142816 69.456772 
L 435.729249 69.048784 
L 436.315683 68.779944 
L 437.48855 68.624248 
L 438.661417 68.88797 
L 439.247851 69.277638 
L 441.593585 71.409156 
L 442.180019 71.480999 
L 442.766452 71.110614 
L 443.93932 69.632239 
L 445.112187 67.928609 
L 445.69862 67.353253 
L 446.285054 66.998738 
L 447.457921 66.682883 
L 448.044355 66.671758 
L 449.217222 66.258385 
L 450.390089 65.83287 
L 450.976522 65.78775 
L 451.562956 66.016934 
L 452.14939 66.588814 
L 453.90869 68.790567 
L 455.081557 69.776166 
L 456.254425 70.363119 
L 457.427292 71.415633 
L 459.186593 73.012132 
L 460.35946 73.65057 
L 463.291628 74.45787 
L 466.223795 75.023542 
L 469.155963 75.347586 
L 472.088131 75.430001 
L 475.020299 75.270789 
L 477.952467 74.869949 
L 477.952467 74.869949 
" clip-path="url(#p489e05055c)" style="fill: none; stroke-dasharray: 4,1.8; stroke-dashoffset: 0; stroke: #397a78"/>
   </g>
   <g id="line2d_35">
    <path d="M 477.952467 100.127791 
L 482.409362 100.127791 
" style="fill: none; stroke-dasharray: 0.91,0.845; stroke-dashoffset: 0; stroke: #a94c45; stroke-width: 0.65"/>
   </g>
   <g id="line2d_36">
    <path d="M 477.952467 48.743909 
L 482.409362 48.743909 
" style="fill: none; stroke: #254f73; stroke-width: 0.65; stroke-linecap: square"/>
   </g>
   <g id="line2d_37">
    <path d="M 477.952467 74.966226 
L 482.409362 74.966226 
" style="fill: none; stroke-dasharray: 2.6,1.17; stroke-dashoffset: 0; stroke: #397a78; stroke-width: 0.65"/>
   </g>
   <g id="patch_6">
    <path d="M 291.46659 152.012101 
L 291.46659 39.770079 
" style="fill: none; stroke: #20252a; stroke-width: 0.8; stroke-linejoin: miter; stroke-linecap: square"/>
   </g>
   <g id="patch_7">
    <path d="M 291.46659 152.012101 
L 502.582677 152.012101 
" style="fill: none; stroke: #20252a; stroke-width: 0.8; stroke-linejoin: miter; stroke-linecap: square"/>
   </g>
   <g id="text_11">
    <text style="fill: #20252a; font: 700 8px 'TeX Gyre Termes', serif; text-anchor: start" x="269.2994" y="31.956768" transform="rotate(-0 269.2994 31.956768)">b</text>
   </g>
   <g id="line2d_38">
    <path d="M 199.396518 74.235241 
L 202.328686 73.09357 
L 205.260854 72.179189 
L 208.193022 71.492097 
L 211.12519 71.032293 
L 218.748826 70.87584 
L 224.026728 70.906035 
L 228.718197 70.646605 
L 234.582533 70.407704 
L 238.101134 70.514369 
L 242.206169 70.588258 
L 250.416239 70.486283 
L 257.453442 70.570368 
L 264.490645 70.281257 
L 269.182114 70.347359 
L 274.460016 70.38038 
L 280.324352 70.378289 
L 285.01582 70.269634 
L 291.46659 70.056345 
L 303.781695 70.197451 
L 311.405331 70.034289 
L 314.923933 69.945569 
L 316.0968 69.93971 
L 317.269667 69.539381 
L 318.442534 69.043402 
L 319.028968 68.876555 
L 319.615401 69.075176 
L 320.201835 69.599095 
L 321.374702 71.244104 
L 322.547569 73.097203 
L 323.720436 74.392572 
L 324.30687 74.811926 
L 324.893303 75.080705 
L 325.479737 75.200512 
L 326.066171 75.160124 
L 326.652604 74.975292 
L 327.825471 74.240999 
L 331.930506 70.680869 
L 336.035541 66.336413 
L 337.208409 65.766 
L 338.381276 65.728975 
L 338.967709 65.901896 
L 339.554143 66.256765 
L 341.313444 67.8152 
L 341.899877 68.215135 
L 342.486311 68.422832 
L 344.245612 68.09543 
L 345.418479 67.696108 
L 346.004912 67.636083 
L 347.177779 67.905528 
L 347.764213 68.409271 
L 348.350647 69.234322 
L 349.523514 71.557581 
L 351.869248 76.740264 
L 353.042115 78.625239 
L 353.628549 79.341553 
L 354.214982 79.826489 
L 354.801416 80.110519 
L 355.387849 80.228107 
L 355.974283 80.176635 
L 357.14715 79.607991 
L 358.320017 78.686915 
L 359.492884 77.326366 
L 360.665752 75.551485 
L 363.011486 71.328556 
L 365.943654 65.238066 
L 366.530087 64.427627 
L 367.116521 63.909283 
L 367.702955 63.746287 
L 368.289388 63.972484 
L 368.875822 64.384352 
L 369.462255 64.967316 
L 372.980857 69.550722 
L 375.326591 72.991008 
L 376.499458 74.310336 
L 377.672325 75.224994 
L 378.258759 75.431144 
L 378.845193 75.339832 
L 379.431626 74.790243 
L 380.01806 73.852419 
L 381.190927 71.144296 
L 381.77736 69.658769 
L 382.363794 68.506068 
L 382.950228 67.65556 
L 383.536661 67.07163 
L 384.123095 66.709651 
L 387.055263 65.764344 
L 387.641696 65.776761 
L 388.22813 65.910966 
L 388.814563 66.206583 
L 389.400997 66.665041 
L 390.573864 68.025031 
L 392.333165 70.433257 
L 394.678899 73.358637 
L 395.851766 75.813342 
L 397.611067 79.615114 
L 398.783934 81.339022 
L 399.370368 81.906344 
L 399.956801 82.304918 
L 401.716102 83.142278 
L 402.888969 83.812406 
L 403.475403 83.860639 
L 404.061836 83.53692 
L 404.64827 82.755755 
L 405.234703 81.461035 
L 406.407571 77.517102 
L 408.753305 68.883252 
L 410.512606 63.765713 
L 411.685473 60.656236 
L 412.271906 59.461107 
L 412.85834 58.651882 
L 413.444774 58.515677 
L 414.031207 59.221459 
L 414.617641 60.641316 
L 415.790508 64.993888 
L 416.963375 69.769594 
L 417.549809 71.806625 
L 418.722676 74.7993 
L 421.06841 79.451682 
L 421.654844 80.428916 
L 422.241277 81.132445 
L 422.827711 81.243286 
L 423.414144 80.533459 
L 424.000578 79.172854 
L 425.173445 75.213453 
L 425.759879 73.17272 
L 426.346312 71.93844 
L 426.932746 71.337264 
L 427.519179 71.22701 
L 428.105613 71.455438 
L 428.692047 71.892172 
L 429.27848 72.172126 
L 430.451347 72.3238 
L 431.624214 72.42321 
L 432.210648 72.596262 
L 432.797082 73.013121 
L 433.383515 73.671124 
L 434.556382 75.424669 
L 435.142816 76.045506 
L 435.729249 76.079419 
L 436.315683 75.50436 
L 436.902117 74.270243 
L 439.247851 67.817519 
L 439.834284 66.667309 
L 441.007152 65.061665 
L 442.180019 64.042081 
L 443.352886 63.553934 
L 443.93932 63.631689 
L 444.525753 64.067509 
L 445.112187 65.115669 
L 445.69862 66.77182 
L 447.457921 73.946412 
L 448.044355 75.419848 
L 448.630788 75.799488 
L 449.217222 75.029784 
L 451.562956 67.607646 
L 452.14939 66.75526 
L 452.735823 66.522399 
L 453.90869 66.696071 
L 454.495124 66.398194 
L 455.081557 65.787403 
L 456.840858 63.430239 
L 457.427292 63.265861 
L 458.013725 63.736824 
L 458.600159 64.854522 
L 459.773026 68.628822 
L 460.945893 73.44167 
L 462.705194 80.687219 
L 463.291628 82.700161 
L 463.878061 84.028323 
L 464.464495 84.736115 
L 465.050928 84.881003 
L 465.637362 84.52856 
L 466.223795 83.749874 
L 466.810229 83.643635 
L 467.396663 83.344863 
L 467.983096 82.853557 
L 468.56953 82.169717 
L 469.742397 80.224437 
L 470.915264 77.509022 
L 472.088131 74.023473 
L 473.260998 69.767789 
L 474.433865 64.74197 
L 475.606733 58.946018 
L 477.366033 48.808086 
L 477.952467 45.043709 
L 477.952467 45.043709 
" clip-path="url(#p489e05055c)" style="fill: none; stroke: #254f73; stroke-width: 1.25; stroke-linecap: round"/>
   </g>
   <g id="text_12">
    <text style="fill: #a94c45; font: 6.5px 'TeX Gyre Termes', serif; text-anchor: start" x="483.816803" y="101.642088" transform="rotate(-0 483.816803 101.642088)">5.25</text>
   </g>
   <g id="text_13">
    <text style="fill: #254f73; font: 700 6.5px 'TeX Gyre Termes', serif; text-anchor: start" x="483.816803" y="50.274455" transform="rotate(-0 483.816803 50.274455)">10.25</text>
   </g>
   <g id="text_14">
    <text style="fill: #397a78; font: 6.5px 'TeX Gyre Termes', serif; text-anchor: start" x="483.816803" y="76.480523" transform="rotate(-0 483.816803 76.480523)">15.25</text>
   </g>
   <g id="text_15">
    <text style="font: 700 7.5px 'TeX Gyre Termes', serif; text-anchor: start" x="291.46659" y="36.770079" transform="rotate(-0 291.46659 36.770079)">Cycle 21</text>
   </g>
   <g id="line2d_39">
    <g clip-path="url(#p489e05055c)">
     <use xlink:href="#ma21ae32733" x="331.344073" y="68.445814" style="fill: #ffffff; stroke: #a94c45; stroke-width: 0.9"/>
    </g>
   </g>
   <g id="line2d_40">
    <g clip-path="url(#p489e05055c)">
     <use xlink:href="#m7fe1c782aa" x="316.683233" y="69.778938" style="fill: #ffffff; stroke: #254f73; stroke-width: 0.9"/>
    </g>
   </g>
   <g id="line2d_41">
    <g clip-path="url(#p489e05055c)">
     <use xlink:href="#mfb0c565a02" x="333.689807" y="69.707814" style="fill: #ffffff; stroke: #397a78; stroke-width: 0.9"/>
    </g>
   </g>
   <g id="line2d_42">
    <g clip-path="url(#p489e05055c)">
     <use xlink:href="#m7a35896668" x="440.420718" y="47.921026" style="fill: #a94c45; stroke: #ffffff; stroke-width: 0.45; stroke-linejoin: miter"/>
    </g>
   </g>
   <g id="line2d_43">
    <g clip-path="url(#p489e05055c)">
     <use xlink:href="#md25c2cedfb" x="413.444774" y="58.515677" style="fill: #254f73; stroke: #ffffff; stroke-width: 0.45; stroke-linejoin: miter"/>
    </g>
   </g>
   <g id="line2d_44">
    <g clip-path="url(#p489e05055c)">
     <use xlink:href="#m5be1fc0a9c" x="450.976522" y="65.78775" style="fill: #397a78; stroke: #ffffff; stroke-width: 0.45; stroke-linejoin: miter"/>
    </g>
   </g>
  </g>
  <g id="axes_3">
   <g id="patch_8">
    <path d="M 42.349606 295.68189 
L 253.465694 295.68189 
L 253.465694 183.439867 
L 42.349606 183.439867 
z
" style="fill: #ffffff"/>
   </g>
   <g id="line2d_45">
    <path d="M 42.349606 215.509017 
L 253.465694 215.509017 
" clip-path="url(#pe411dd627c)" style="fill: none; stroke: #d9dde0; stroke-width: 0.7; stroke-linecap: square"/>
   </g>
   <g id="matplotlib.axis_5">
    <g id="xtick_11">
     <g id="line2d_46">
      <g>
       <use xlink:href="#m6e40f44cce" x="42.349606" y="295.68189" style="fill: #20252a; stroke: #20252a; stroke-width: 0.7"/>
      </g>
     </g>
     <g id="text_16">
      <text style="fill: #20252a; font: 6.5px 'TeX Gyre Termes', serif; text-anchor: middle" x="42.349606" y="304.821187" transform="rotate(-0 42.349606 304.821187)">40</text>
     </g>
    </g>
    <g id="xtick_12">
     <g id="line2d_47">
      <g>
       <use xlink:href="#m6e40f44cce" x="89.264292" y="295.68189" style="fill: #20252a; stroke: #20252a; stroke-width: 0.7"/>
      </g>
     </g>
     <g id="text_17">
      <text style="fill: #20252a; font: 6.5px 'TeX Gyre Termes', serif; text-anchor: middle" x="89.264292" y="304.821187" transform="rotate(-0 89.264292 304.821187)">60</text>
     </g>
    </g>
    <g id="xtick_13">
     <g id="line2d_48">
      <g>
       <use xlink:href="#m6e40f44cce" x="136.178979" y="295.68189" style="fill: #20252a; stroke: #20252a; stroke-width: 0.7"/>
      </g>
     </g>
     <g id="text_18">
      <text style="fill: #20252a; font: 6.5px 'TeX Gyre Termes', serif; text-anchor: middle" x="136.178979" y="304.821187" transform="rotate(-0 136.178979 304.821187)">80</text>
     </g>
    </g>
    <g id="xtick_14">
     <g id="line2d_49">
      <g>
       <use xlink:href="#m6e40f44cce" x="183.093665" y="295.68189" style="fill: #20252a; stroke: #20252a; stroke-width: 0.7"/>
      </g>
     </g>
     <g id="text_19">
      <text style="fill: #20252a; font: 6.5px 'TeX Gyre Termes', serif; text-anchor: middle" x="183.093665" y="304.821187" transform="rotate(-0 183.093665 304.821187)">100</text>
     </g>
    </g>
    <g id="xtick_15">
     <g id="line2d_50">
      <g>
       <use xlink:href="#m6e40f44cce" x="230.008351" y="295.68189" style="fill: #20252a; stroke: #20252a; stroke-width: 0.7"/>
      </g>
     </g>
     <g id="text_20">
      <text style="fill: #20252a; font: 6.5px 'TeX Gyre Termes', serif; text-anchor: middle" x="230.008351" y="304.821187" transform="rotate(-0 230.008351 304.821187)">120</text>
     </g>
    </g>
    <g id="text_21">
     <text style="font: 7.2px 'TeX Gyre Termes', serif; text-anchor: middle" x="147.90765" y="315.149265" transform="rotate(-0 147.90765 315.149265)">Areal charge capacity, Q (mAh cm−2)</text>
    </g>
   </g>
   <g id="matplotlib.axis_6">
    <g id="ytick_9">
     <g id="line2d_51">
      <g>
       <use xlink:href="#m9fb00feedb" x="42.349606" y="284.228622" style="fill: #20252a; stroke: #20252a; stroke-width: 0.7"/>
      </g>
     </g>
     <g id="text_22">
      <text style="fill: #20252a; font: 6.5px 'TeX Gyre Termes', serif; text-anchor: end" x="37.649606" y="286.448271" transform="rotate(-0 37.649606 286.448271)">−30</text>
     </g>
    </g>
    <g id="ytick_10">
     <g id="line2d_52">
      <g>
       <use xlink:href="#m9fb00feedb" x="42.349606" y="249.868819" style="fill: #20252a; stroke: #20252a; stroke-width: 0.7"/>
      </g>
     </g>
     <g id="text_23">
      <text style="fill: #20252a; font: 6.5px 'TeX Gyre Termes', serif; text-anchor: end" x="37.649606" y="252.088468" transform="rotate(-0 37.649606 252.088468)">−15</text>
     </g>
    </g>
    <g id="ytick_11">
     <g id="line2d_53">
      <g>
       <use xlink:href="#m9fb00feedb" x="42.349606" y="215.509017" style="fill: #20252a; stroke: #20252a; stroke-width: 0.7"/>
      </g>
     </g>
     <g id="text_24">
      <text style="fill: #20252a; font: 6.5px 'TeX Gyre Termes', serif; text-anchor: end" x="37.649606" y="217.728665" transform="rotate(-0 37.649606 217.728665)">0</text>
     </g>
    </g>
    <g id="ytick_12">
     <g id="line2d_54">
      <g>
       <use xlink:href="#m9fb00feedb" x="42.349606" y="188.021174" style="fill: #20252a; stroke: #20252a; stroke-width: 0.7"/>
      </g>
     </g>
     <g id="text_25">
      <text style="fill: #20252a; font: 6.5px 'TeX Gyre Termes', serif; text-anchor: end" x="37.649606" y="190.240823" transform="rotate(-0 37.649606 190.240823)">12</text>
     </g>
    </g>
    <g id="text_26">
     <text style="font: 7.2px 'TeX Gyre Termes', serif; text-anchor: middle" x="21.920575" y="239.560879" transform="rotate(-90 21.920575 239.560879)">dV/dQ (mV per mAh cm−2)</text>
    </g>
   </g>
   <g id="line2d_55">
    <path d="M -1 213.9689 
L 0.712822 213.607264 
L 1.88569 213.521717 
L 3.058557 213.633089 
L 7.750025 214.49511 
L 9.509326 214.48568 
L 13.614361 214.047589 
L 20.651564 214.205939 
L 24.170165 214.214476 
L 25.929466 213.889151 
L 27.688767 213.581098 
L 29.448068 213.583796 
L 34.139536 213.891953 
L 40.003872 213.946991 
L 40.590306 213.975055 
L 42.349606 213.350868 
L 42.93604 213.499289 
L 43.522473 213.977858 
L 44.108907 214.9596 
L 45.281774 217.964773 
L 46.454641 220.925472 
L 47.041075 222.017571 
L 47.627508 222.765053 
L 48.213942 223.047186 
L 48.800376 222.805477 
L 49.386809 222.04226 
L 50.559676 219.335894 
L 52.318977 214.330603 
L 54.664711 209.576116 
L 55.251145 208.795206 
L 55.837579 208.244981 
L 56.424012 208.15497 
L 57.010446 208.765025 
L 57.596879 209.865269 
L 59.35618 214.00812 
L 59.942614 214.851815 
L 60.529047 215.333339 
L 61.115481 215.565876 
L 61.701914 215.599872 
L 62.288348 215.431511 
L 62.874781 215.53745 
L 63.461215 216.003196 
L 64.634082 217.317338 
L 65.806949 218.830641 
L 66.393383 219.066389 
L 66.979817 218.814643 
L 67.56625 218.034383 
L 68.152684 216.671948 
L 69.325551 212.64668 
L 70.498418 208.681607 
L 71.084852 207.423613 
L 71.671285 207.073548 
L 72.257719 207.318716 
L 72.844152 208.028924 
L 74.017019 210.065588 
L 74.603453 210.758298 
L 75.189887 211.152326 
L 76.362754 211.469926 
L 77.535621 211.813032 
L 78.122054 212.185487 
L 79.294922 213.676897 
L 80.467789 215.066278 
L 81.054222 215.448373 
L 81.640656 215.369141 
L 82.22709 214.782038 
L 84.572824 211.078922 
L 85.159257 210.146851 
L 85.745691 209.538869 
L 86.332125 209.547421 
L 86.918558 210.372641 
L 87.504992 212.087883 
L 88.091425 215.31134 
L 89.264292 223.276982 
L 89.850726 226.318922 
L 90.43716 227.842749 
L 91.023593 227.578942 
L 91.610027 225.463598 
L 92.19646 222.000122 
L 94.542195 204.970418 
L 95.128628 201.724834 
L 95.715062 199.721816 
L 96.301495 199.349881 
L 96.887929 200.80576 
L 97.474362 203.765485 
L 99.233663 215.690054 
L 99.820097 217.767314 
L 100.40653 218.74701 
L 100.992964 218.814705 
L 101.579398 218.148934 
L 104.511565 212.82504 
L 105.097999 211.961444 
L 105.684433 211.396053 
L 106.270866 211.25192 
L 106.8573 211.278736 
L 109.203034 211.818765 
L 111.548768 211.228408 
L 112.135202 211.535082 
L 112.721635 212.168541 
L 113.894503 214.809817 
L 114.480936 216.178199 
L 115.06737 217.246453 
L 115.653803 217.839386 
L 116.240237 217.486078 
L 116.826671 216.371787 
L 117.999538 213.667076 
L 118.585971 212.769609 
L 119.172405 212.799876 
L 119.758838 214.184328 
L 121.518139 220.038845 
L 122.104573 221.190779 
L 122.691006 220.24626 
L 123.27744 218.039604 
L 125.036741 209.050876 
L 125.623174 207.275541 
L 126.209608 206.950981 
L 126.796041 207.868025 
L 127.382475 209.957952 
L 129.141776 219.77813 
L 129.728209 222.00732 
L 130.314643 223.368682 
L 130.901076 223.404151 
L 131.48751 222.205355 
L 132.073944 221.636918 
L 132.660377 221.362391 
L 133.246811 221.343885 
L 133.833244 221.880296 
L 134.419678 223.570667 
L 135.006111 224.270664 
L 135.592545 223.883078 
L 136.178979 222.86499 
L 136.765412 221.391917 
L 137.351846 219.363572 
L 137.938279 217.864032 
L 138.524713 218.083149 
L 139.111146 219.310642 
L 139.69758 221.150707 
L 140.870447 226.065631 
L 141.456881 227.412163 
L 142.043314 227.499465 
L 142.629748 226.221896 
L 143.216181 223.353047 
L 144.389049 212.791639 
L 145.561916 201.702284 
L 146.148349 198.487132 
L 146.734783 198.247358 
L 147.321216 200.724973 
L 147.90765 205.483854 
L 149.666951 222.41961 
L 150.253384 225.217407 
L 150.839818 226.910302 
L 151.426252 227.346047 
L 152.012685 226.549372 
L 152.599119 224.762541 
L 153.185552 222.452845 
L 153.771986 219.056791 
L 155.531287 207.248898 
L 156.11772 205.291133 
L 156.704154 204.953766 
L 157.290587 206.332537 
L 158.463454 211.802713 
L 159.049888 214.55623 
L 159.636322 216.609308 
L 160.222755 217.871583 
L 160.809189 218.362987 
L 161.395622 218.149025 
L 161.982056 217.270117 
L 163.154923 213.989015 
L 164.32779 210.803007 
L 164.914224 209.914441 
L 165.500657 209.998515 
L 166.087091 210.88711 
L 167.846392 215.159247 
L 168.432825 215.770664 
L 169.019259 215.416204 
L 169.605692 214.55472 
L 170.77856 211.781956 
L 171.364993 210.279274 
L 172.53786 207.824825 
L 173.710727 205.362982 
L 174.297161 204.752773 
L 174.883595 204.731184 
L 175.470028 205.467933 
L 176.056462 207.356694 
L 177.815762 214.833247 
L 178.402196 216.52156 
L 178.98863 216.940708 
L 179.575063 216.3665 
L 180.74793 213.959093 
L 181.334364 212.774239 
L 181.920798 211.95996 
L 182.507231 211.726868 
L 183.093665 212.243539 
L 183.680098 213.682383 
L 184.266532 216.236485 
L 185.439399 223.755739 
L 186.612266 231.266207 
L 187.1987 233.503578 
L 187.785133 234.103849 
L 188.371567 233.168425 
L 188.958 231.082732 
L 190.130868 226.132038 
L 190.717301 224.805169 
L 191.303735 225.0847 
L 193.063035 231.608631 
L 193.649469 231.802614 
L 194.235903 229.745709 
L 194.822336 223.172071 
L 197.168071 189.123743 
L 197.754504 186.545572 
L 198.340938 188.077141 
L 198.927371 192.523523 
L 200.100238 206.557039 
L 200.686672 213.286907 
L 201.273106 217.487696 
L 201.859539 219.587412 
L 202.445973 219.476445 
L 203.032406 216.515936 
L 203.61884 211.548878 
L 204.205273 208.163736 
L 204.791707 205.986785 
L 205.378141 205.251596 
L 205.964574 206.817289 
L 207.137441 216.078939 
L 207.723875 219.390042 
L 208.310308 221.257452 
L 208.896742 220.904558 
L 209.483176 217.123057 
L 211.242476 201.758971 
L 211.82891 198.540264 
L 212.415343 198.127703 
L 213.001777 200.475804 
L 214.174644 207.40638 
L 214.761078 210.836149 
L 215.347511 212.949347 
L 215.933945 212.550517 
L 216.520379 211.111373 
L 217.693246 207.106333 
L 218.279679 206.074139 
L 218.866113 206.833235 
L 219.452546 209.125349 
L 220.625414 216.921945 
L 221.211847 220.875666 
L 221.798281 223.886587 
L 222.384714 225.593173 
L 222.971148 225.765824 
L 223.557581 225.207417 
L 224.144015 223.917953 
L 224.730449 221.89743 
L 225.316882 219.14585 
L 225.903316 215.663212 
L 227.076183 206.504764 
L 228.24905 194.422084 
L 228.24905 194.422084 
" clip-path="url(#pe411dd627c)" style="fill: none; stroke-dasharray: 1.33,1.235; stroke-dashoffset: 0; stroke: #a94c45; stroke-width: 0.95"/>
   </g>
   <g id="line2d_56">
    <path d="M -1 214.066564 
L 7.163592 214.108179 
L 19.478697 214.154987 
L 30.620935 213.581463 
L 32.380235 213.27193 
L 33.553103 213.261241 
L 35.312403 213.540498 
L 37.071704 214.137054 
L 38.831005 214.941457 
L 41.763173 216.45465 
L 42.93604 216.770103 
L 44.108907 216.873239 
L 47.627508 216.750612 
L 48.800376 216.480374 
L 50.559676 215.769525 
L 51.732544 215.339792 
L 53.491844 214.987818 
L 58.769746 214.221719 
L 61.701914 213.761434 
L 63.461215 213.675292 
L 66.979817 213.693023 
L 69.911984 213.439578 
L 71.084852 213.133597 
L 72.844152 212.44855 
L 75.77632 210.767615 
L 76.362754 210.668735 
L 76.949187 210.779831 
L 78.122054 211.408113 
L 80.467789 213.044801 
L 83.399957 214.638943 
L 84.572824 215.018709 
L 85.745691 215.123719 
L 88.091425 214.864679 
L 91.023593 214.358755 
L 99.233663 212.472577 
L 102.165831 211.657639 
L 103.338698 211.616209 
L 106.8573 212.145408 
L 107.443733 212.327346 
L 108.030167 212.685349 
L 110.375901 214.658038 
L 110.962335 214.823127 
L 111.548768 214.706379 
L 112.721635 214.162148 
L 113.894503 213.622601 
L 114.480936 213.554983 
L 115.653803 213.726492 
L 117.999538 214.335751 
L 119.172405 214.385385 
L 120.345272 214.43742 
L 121.518139 214.832413 
L 123.863873 215.975731 
L 125.036741 216.087272 
L 126.209608 216.069572 
L 126.796041 216.252754 
L 127.968908 217.01279 
L 131.48751 220.098725 
L 132.660377 220.766062 
L 133.833244 221.006729 
L 135.006111 220.832201 
L 137.938279 219.871754 
L 139.111146 219.726311 
L 140.870447 219.752622 
L 141.456881 219.623892 
L 142.043314 219.328993 
L 142.629748 218.817896 
L 144.975482 216.330926 
L 145.561916 215.999435 
L 148.494084 215.475116 
L 150.839818 214.455624 
L 152.012685 214.338752 
L 153.771986 214.505344 
L 154.944853 214.418803 
L 156.11772 214.181358 
L 157.290587 214.23931 
L 157.877021 214.414593 
L 159.636322 215.20945 
L 160.222755 215.288614 
L 160.809189 215.171684 
L 161.395622 214.795109 
L 164.32779 211.977964 
L 165.500657 211.539423 
L 166.673525 211.452783 
L 169.019259 211.353434 
L 170.192126 211.037572 
L 173.124294 209.86257 
L 174.297161 209.808526 
L 174.883595 209.943448 
L 175.470028 210.200566 
L 176.642895 211.042967 
L 178.98863 213.331521 
L 179.575063 214.033975 
L 180.74793 216.112932 
L 183.093665 221.325687 
L 183.680098 222.093308 
L 184.266532 222.569636 
L 184.852965 222.792809 
L 186.025833 222.875271 
L 187.1987 223.309237 
L 188.371567 223.839134 
L 188.958 223.918375 
L 189.544434 223.641344 
L 190.130868 223.062097 
L 191.303735 221.262663 
L 192.476602 219.20658 
L 193.649469 217.69716 
L 197.168071 213.983642 
L 200.100238 209.893409 
L 201.273106 208.799025 
L 201.859539 208.434277 
L 203.032406 208.074001 
L 204.791707 207.896093 
L 207.137441 207.764062 
L 208.310308 207.970298 
L 209.483176 208.57108 
L 210.656043 209.532241 
L 213.588211 210.649089 
L 216.520379 212.043435 
L 219.452546 213.715278 
L 222.384714 215.664619 
L 225.316882 217.891458 
L 228.24905 220.395795 
L 228.24905 220.395795 
" clip-path="url(#pe411dd627c)" style="fill: none; stroke-dasharray: 4,1.8; stroke-dashoffset: 0; stroke: #397a78"/>
   </g>
   <g id="line2d_57">
    <path d="M 228.24905 200.585267 
L 233.292379 200.585267 
" style="fill: none; stroke-dasharray: 0.91,0.845; stroke-dashoffset: 0; stroke: #a94c45; stroke-width: 0.65"/>
   </g>
   <g id="line2d_58">
    <path d="M 228.24905 230.307619 
L 233.292379 230.307619 
" style="fill: none; stroke: #254f73; stroke-width: 0.65; stroke-linecap: square"/>
   </g>
   <g id="line2d_59">
    <path d="M 228.24905 219.876428 
L 233.292379 219.876428 
" style="fill: none; stroke-dasharray: 2.6,1.17; stroke-dashoffset: 0; stroke: #397a78; stroke-width: 0.65"/>
   </g>
   <g id="patch_9">
    <path d="M 42.349606 295.68189 
L 42.349606 183.439867 
" style="fill: none; stroke: #20252a; stroke-width: 0.8; stroke-linejoin: miter; stroke-linecap: square"/>
   </g>
   <g id="patch_10">
    <path d="M 42.349606 295.68189 
L 253.465694 295.68189 
" style="fill: none; stroke: #20252a; stroke-width: 0.8; stroke-linejoin: miter; stroke-linecap: square"/>
   </g>
   <g id="text_27">
    <text style="fill: #20252a; font: 700 8px 'TeX Gyre Termes', serif; text-anchor: start" x="20.182417" y="175.626556" transform="rotate(-0 20.182417 175.626556)">c</text>
   </g>
   <g id="line2d_60">
    <path d="M -1 213.994157 
L 2.472123 213.947772 
L 7.163592 214.146953 
L 11.268627 214.318951 
L 17.719396 214.202587 
L 21.824431 214.164307 
L 32.966669 213.731677 
L 35.312403 213.729472 
L 38.244571 213.261517 
L 39.417438 213.626197 
L 40.590306 214.330197 
L 41.763173 215.281509 
L 45.281774 218.389362 
L 46.454641 219.102957 
L 47.041075 219.313435 
L 47.627508 219.343978 
L 48.213942 219.169806 
L 48.800376 218.826429 
L 49.973243 217.762507 
L 52.905411 214.678992 
L 54.078278 213.473961 
L 55.837579 211.603516 
L 56.424012 211.14496 
L 57.010446 210.915354 
L 57.596879 210.978419 
L 58.183313 211.312964 
L 59.35618 212.608101 
L 61.115481 214.769414 
L 62.288348 215.773162 
L 63.461215 216.407818 
L 64.047649 216.547789 
L 64.634082 216.556089 
L 65.806949 216.204566 
L 66.979817 215.426887 
L 68.152684 214.261875 
L 70.498418 211.779017 
L 71.671285 210.988393 
L 72.844152 210.504358 
L 74.017019 210.400333 
L 75.189887 210.550975 
L 76.362754 210.938263 
L 77.535621 211.606905 
L 78.708488 212.33908 
L 79.294922 212.511423 
L 79.881355 212.525884 
L 81.640656 212.010688 
L 82.22709 212.179838 
L 82.813523 212.66643 
L 83.98639 214.23818 
L 85.159257 215.953333 
L 85.745691 216.568804 
L 86.332125 217.005521 
L 86.918558 217.283178 
L 87.504992 217.403642 
L 88.091425 217.372704 
L 88.677859 217.154232 
L 89.850726 216.323375 
L 92.19646 214.221827 
L 93.955761 213.182166 
L 95.128628 212.470437 
L 98.060796 210.449983 
L 98.64723 210.329593 
L 99.233663 210.38949 
L 100.40653 210.939646 
L 101.579398 211.912428 
L 103.925132 214.442038 
L 104.511565 214.675993 
L 105.097999 214.582644 
L 106.270866 213.458255 
L 106.8573 212.832991 
L 107.443733 212.370325 
L 108.030167 212.0947 
L 108.6166 212.04343 
L 110.962335 212.484408 
L 112.721635 212.612103 
L 113.308069 212.82189 
L 113.894503 213.341292 
L 115.653803 215.571311 
L 116.240237 216.324413 
L 116.826671 216.641159 
L 117.413104 216.62804 
L 117.999538 216.381541 
L 120.345272 214.853749 
L 121.518139 214.753003 
L 122.691006 214.850208 
L 123.863873 214.468662 
L 125.036741 213.983692 
L 125.623174 213.830149 
L 126.209608 214.072723 
L 126.796041 214.637416 
L 127.968908 216.427202 
L 128.555342 217.445684 
L 129.141776 218.215333 
L 129.728209 218.635219 
L 130.314643 218.772349 
L 131.48751 218.57347 
L 132.073944 218.636214 
L 132.660377 219.194615 
L 133.246811 220.155621 
L 135.006111 224.029212 
L 135.592545 224.852898 
L 136.178979 225.194345 
L 136.765412 224.9805 
L 137.351846 224.306339 
L 138.524713 222.421086 
L 139.69758 220.236566 
L 143.802615 214.82614 
L 144.389049 214.283787 
L 144.975482 213.995779 
L 145.561916 213.983893 
L 146.148349 214.274537 
L 147.321216 215.299792 
L 147.90765 215.629444 
L 148.494084 215.667404 
L 149.080517 215.399949 
L 150.253384 214.224249 
L 150.839818 213.812714 
L 151.426252 213.768456 
L 152.012685 214.118078 
L 153.185552 215.843067 
L 153.771986 216.707697 
L 154.358419 217.288974 
L 154.944853 217.476374 
L 155.531287 217.158904 
L 156.704154 215.515863 
L 157.877021 213.796008 
L 158.463454 213.102782 
L 159.636322 212.260099 
L 160.222755 212.030653 
L 160.809189 212.00748 
L 161.395622 212.203163 
L 162.568489 213.181998 
L 163.741357 214.190059 
L 164.32779 214.526607 
L 164.914224 214.65419 
L 166.087091 214.348604 
L 166.673525 213.958409 
L 167.259958 213.343671 
L 168.432825 211.65964 
L 169.605692 209.978029 
L 170.192126 209.498008 
L 170.77856 209.327308 
L 171.364993 209.478013 
L 173.124294 210.422001 
L 173.710727 210.402122 
L 174.297161 210.173387 
L 175.470028 209.44926 
L 176.056462 209.212402 
L 176.642895 209.138338 
L 177.229329 209.275667 
L 177.815762 209.670035 
L 178.402196 210.243396 
L 178.98863 210.988233 
L 180.161497 213.115593 
L 183.093665 219.403293 
L 184.266532 221.145684 
L 184.852965 221.87996 
L 185.439399 222.842616 
L 186.612266 226.004756 
L 187.785133 229.408152 
L 188.371567 230.735138 
L 188.958 230.945021 
L 189.544434 230.299448 
L 190.130868 229.044752 
L 190.717301 227.308354 
L 191.890168 223.253404 
L 193.649469 218.662617 
L 194.822336 215.754211 
L 197.754504 205.919943 
L 198.340938 204.938775 
L 198.927371 204.596801 
L 199.513805 204.763271 
L 200.100238 205.320795 
L 201.273106 206.963288 
L 202.445973 208.17643 
L 203.61884 209.103044 
L 204.205273 209.678715 
L 205.378141 211.348849 
L 206.551008 213.246132 
L 207.137441 213.867547 
L 207.723875 214.002987 
L 208.310308 213.541833 
L 208.896742 212.356106 
L 210.656043 207.736268 
L 211.242476 206.691512 
L 211.82891 206.296185 
L 213.001777 207.253464 
L 214.174644 208.349406 
L 214.761078 208.696689 
L 215.933945 208.489338 
L 216.520379 208.647772 
L 217.693246 209.355557 
L 218.866113 210.432509 
L 220.03898 211.878628 
L 221.211847 213.693914 
L 222.384714 215.878368 
L 223.557581 218.431989 
L 225.316882 222.954609 
L 227.076183 228.307856 
L 228.24905 232.338146 
L 228.24905 232.338146 
" clip-path="url(#pe411dd627c)" style="fill: none; stroke: #254f73; stroke-width: 1.25; stroke-linecap: round"/>
   </g>
   <g id="text_28">
    <text style="fill: #a94c45; font: 6.5px 'TeX Gyre Termes', serif; text-anchor: start" x="234.699819" y="202.099564" transform="rotate(-0 234.699819 202.099564)">5.25</text>
   </g>
   <g id="text_29">
    <text style="fill: #254f73; font: 700 6.5px 'TeX Gyre Termes', serif; text-anchor: start" x="234.699819" y="231.838166" transform="rotate(-0 234.699819 231.838166)">10.25</text>
   </g>
   <g id="text_30">
    <text style="fill: #397a78; font: 6.5px 'TeX Gyre Termes', serif; text-anchor: start" x="234.699819" y="221.390725" transform="rotate(-0 234.699819 221.390725)">15.25</text>
   </g>
   <g id="text_31">
    <text style="font: 700 7.5px 'TeX Gyre Termes', serif; text-anchor: start" x="42.349606" y="180.439867" transform="rotate(-0 42.349606 180.439867)">Cycle 22</text>
   </g>
   <g id="line2d_61">
    <g clip-path="url(#pe411dd627c)">
     <use xlink:href="#ma21ae32733" x="69.325551" y="212.64668" style="fill: #ffffff; stroke: #a94c45; stroke-width: 0.9"/>
    </g>
   </g>
   <g id="line2d_62">
    <g clip-path="url(#pe411dd627c)">
     <use xlink:href="#m7fe1c782aa" x="69.911984" y="212.341062" style="fill: #ffffff; stroke: #254f73; stroke-width: 0.9"/>
    </g>
   </g>
   <g id="line2d_63">
    <g clip-path="url(#pe411dd627c)">
     <use xlink:href="#mfb0c565a02" x="71.084852" y="213.133597" style="fill: #ffffff; stroke: #397a78; stroke-width: 0.9"/>
    </g>
   </g>
   <g id="line2d_64">
    <g clip-path="url(#pe411dd627c)">
     <use xlink:href="#m7a35896668" x="197.754504" y="186.545572" style="fill: #a94c45; stroke: #ffffff; stroke-width: 0.45; stroke-linejoin: miter"/>
    </g>
   </g>
   <g id="line2d_65">
    <g clip-path="url(#pe411dd627c)">
     <use xlink:href="#md25c2cedfb" x="198.927371" y="204.596801" style="fill: #254f73; stroke: #ffffff; stroke-width: 0.45; stroke-linejoin: miter"/>
    </g>
   </g>
   <g id="line2d_66">
    <g clip-path="url(#pe411dd627c)">
     <use xlink:href="#m5be1fc0a9c" x="207.137441" y="207.764062" style="fill: #397a78; stroke: #ffffff; stroke-width: 0.45; stroke-linejoin: miter"/>
    </g>
   </g>
  </g>
  <g id="axes_4">
   <g id="patch_11">
    <path d="M 291.46659 295.68189 
L 502.582677 295.68189 
L 502.582677 183.439867 
L 291.46659 183.439867 
z
" style="fill: #ffffff"/>
   </g>
   <g id="line2d_67">
    <path d="M 291.46659 215.509017 
L 502.582677 215.509017 
" clip-path="url(#p4e29cd193a)" style="fill: none; stroke: #d9dde0; stroke-width: 0.7; stroke-linecap: square"/>
   </g>
   <g id="matplotlib.axis_7">
    <g id="xtick_16">
     <g id="line2d_68">
      <g>
       <use xlink:href="#m6e40f44cce" x="291.46659" y="295.68189" style="fill: #20252a; stroke: #20252a; stroke-width: 0.7"/>
      </g>
     </g>
     <g id="text_32">
      <text style="fill: #20252a; font: 6.5px 'TeX Gyre Termes', serif; text-anchor: middle" x="291.46659" y="304.821187" transform="rotate(-0 291.46659 304.821187)">40</text>
     </g>
    </g>
    <g id="xtick_17">
     <g id="line2d_69">
      <g>
       <use xlink:href="#m6e40f44cce" x="338.381276" y="295.68189" style="fill: #20252a; stroke: #20252a; stroke-width: 0.7"/>
      </g>
     </g>
     <g id="text_33">
      <text style="fill: #20252a; font: 6.5px 'TeX Gyre Termes', serif; text-anchor: middle" x="338.381276" y="304.821187" transform="rotate(-0 338.381276 304.821187)">60</text>
     </g>
    </g>
    <g id="xtick_18">
     <g id="line2d_70">
      <g>
       <use xlink:href="#m6e40f44cce" x="385.295962" y="295.68189" style="fill: #20252a; stroke: #20252a; stroke-width: 0.7"/>
      </g>
     </g>
     <g id="text_34">
      <text style="fill: #20252a; font: 6.5px 'TeX Gyre Termes', serif; text-anchor: middle" x="385.295962" y="304.821187" transform="rotate(-0 385.295962 304.821187)">80</text>
     </g>
    </g>
    <g id="xtick_19">
     <g id="line2d_71">
      <g>
       <use xlink:href="#m6e40f44cce" x="432.210648" y="295.68189" style="fill: #20252a; stroke: #20252a; stroke-width: 0.7"/>
      </g>
     </g>
     <g id="text_35">
      <text style="fill: #20252a; font: 6.5px 'TeX Gyre Termes', serif; text-anchor: middle" x="432.210648" y="304.821187" transform="rotate(-0 432.210648 304.821187)">100</text>
     </g>
    </g>
    <g id="xtick_20">
     <g id="line2d_72">
      <g>
       <use xlink:href="#m6e40f44cce" x="479.125334" y="295.68189" style="fill: #20252a; stroke: #20252a; stroke-width: 0.7"/>
      </g>
     </g>
     <g id="text_36">
      <text style="fill: #20252a; font: 6.5px 'TeX Gyre Termes', serif; text-anchor: middle" x="479.125334" y="304.821187" transform="rotate(-0 479.125334 304.821187)">120</text>
     </g>
    </g>
    <g id="text_37">
     <text style="font: 7.2px 'TeX Gyre Termes', serif; text-anchor: middle" x="397.024633" y="315.149265" transform="rotate(-0 397.024633 315.149265)">Areal charge capacity, Q (mAh cm−2)</text>
    </g>
   </g>
   <g id="matplotlib.axis_8">
    <g id="ytick_13">
     <g id="line2d_73">
      <g>
       <use xlink:href="#m9fb00feedb" x="291.46659" y="284.228622" style="fill: #20252a; stroke: #20252a; stroke-width: 0.7"/>
      </g>
     </g>
    </g>
    <g id="ytick_14">
     <g id="line2d_74">
      <g>
       <use xlink:href="#m9fb00feedb" x="291.46659" y="249.868819" style="fill: #20252a; stroke: #20252a; stroke-width: 0.7"/>
      </g>
     </g>
    </g>
    <g id="ytick_15">
     <g id="line2d_75">
      <g>
       <use xlink:href="#m9fb00feedb" x="291.46659" y="215.509017" style="fill: #20252a; stroke: #20252a; stroke-width: 0.7"/>
      </g>
     </g>
    </g>
    <g id="ytick_16">
     <g id="line2d_76">
      <g>
       <use xlink:href="#m9fb00feedb" x="291.46659" y="188.021174" style="fill: #20252a; stroke: #20252a; stroke-width: 0.7"/>
      </g>
     </g>
    </g>
   </g>
   <g id="line2d_77">
    <path d="M 198.810085 222.313235 
L 200.569385 219.551946 
L 201.742252 218.071353 
L 202.91512 216.878972 
L 204.087987 215.974804 
L 205.260854 215.411815 
L 206.433721 215.27903 
L 207.606588 215.267271 
L 209.952322 215.020383 
L 212.298057 215.006503 
L 214.057358 215.030824 
L 215.230225 214.867863 
L 218.162393 214.34094 
L 219.921693 214.409952 
L 223.440295 214.799613 
L 224.613162 214.589106 
L 226.958896 214.053625 
L 228.718197 214.019413 
L 231.063931 214.313506 
L 232.823232 214.51935 
L 234.582533 214.422483 
L 239.860435 213.844042 
L 241.619736 214.031032 
L 245.138337 214.514026 
L 246.897638 214.425463 
L 249.829806 214.131435 
L 257.453442 213.932571 
L 258.039876 214.098648 
L 258.626309 214.460215 
L 260.972044 216.718585 
L 261.558477 216.924725 
L 262.144911 216.556486 
L 263.904212 214.746786 
L 264.490645 214.52333 
L 265.077079 214.726764 
L 265.663512 215.361515 
L 266.249946 216.372866 
L 266.836379 217.708565 
L 268.009247 221.125026 
L 269.182114 224.631698 
L 269.768547 225.707202 
L 270.354981 225.994765 
L 270.941414 225.461983 
L 271.527848 224.448807 
L 272.114282 222.928771 
L 274.460016 214.942469 
L 275.632883 210.652756 
L 276.80575 207.374582 
L 277.392184 206.405779 
L 277.978617 206.000243 
L 278.565051 206.108824 
L 279.151485 206.6086 
L 280.324352 208.079378 
L 282.670086 211.327099 
L 285.01582 213.291743 
L 286.775121 214.674554 
L 287.361555 214.634039 
L 289.120855 213.952424 
L 289.707289 213.92425 
L 290.293722 214.549048 
L 292.639457 218.364338 
L 293.22589 218.775144 
L 293.812324 218.671676 
L 294.398757 218.032734 
L 294.985191 216.851687 
L 295.571625 215.130492 
L 296.744492 210.456885 
L 297.330925 208.067744 
L 297.917359 206.242292 
L 298.503793 205.377378 
L 299.090226 205.6287 
L 299.67666 206.875286 
L 300.263093 208.873079 
L 301.43596 213.666737 
L 302.608828 217.048805 
L 303.195261 218.207718 
L 303.781695 218.989007 
L 304.368128 219.416735 
L 304.954562 219.546062 
L 306.127429 219.389579 
L 307.300296 218.916882 
L 309.059597 218.256398 
L 309.64603 217.808282 
L 310.232464 217.058285 
L 310.818898 215.932083 
L 311.405331 214.371359 
L 312.578198 210.028289 
L 313.164632 207.813971 
L 313.751066 206.055753 
L 314.337499 205.023368 
L 314.923933 204.836347 
L 315.510366 205.562527 
L 316.0968 206.985016 
L 318.442534 214.113335 
L 319.028968 215.452696 
L 319.615401 216.416217 
L 320.201835 216.898749 
L 320.788268 216.803288 
L 321.374702 216.304297 
L 323.134003 213.821498 
L 323.720436 213.434586 
L 325.479737 213.07907 
L 326.066171 213.164932 
L 326.652604 213.40615 
L 327.239038 213.782632 
L 327.825471 214.799224 
L 329.584772 218.878822 
L 330.171206 219.768432 
L 330.757639 220.154258 
L 331.344073 219.965289 
L 331.930506 219.178719 
L 332.51694 217.823252 
L 333.103374 215.973454 
L 333.689807 213.624629 
L 334.862674 207.003487 
L 335.449108 204.516084 
L 336.035541 203.46452 
L 336.621975 204.212865 
L 337.208409 207.682033 
L 338.967709 224.136284 
L 339.554143 227.816437 
L 340.140576 229.43471 
L 340.72701 228.721215 
L 341.313444 226.127735 
L 341.899877 222.119159 
L 343.072744 211.789711 
L 344.245612 201.435154 
L 344.832045 198.21632 
L 345.418479 197.42233 
L 346.004912 199.576412 
L 346.591346 204.172003 
L 348.350647 222.326308 
L 348.93708 225.175293 
L 349.523514 225.844151 
L 350.109947 224.483799 
L 350.696381 221.77769 
L 351.869248 215.483381 
L 352.455682 213.114285 
L 353.042115 211.621443 
L 353.628549 210.909033 
L 354.214982 210.951323 
L 354.801416 211.78865 
L 357.14715 218.411557 
L 357.733584 218.999925 
L 358.320017 218.286262 
L 359.492884 215.4363 
L 360.665752 212.198319 
L 361.252185 211.047975 
L 361.838619 210.279758 
L 363.59792 205.746831 
L 364.184353 204.755727 
L 364.770787 204.155686 
L 365.35722 205.066385 
L 365.943654 207.273639 
L 367.702955 216.120963 
L 368.289388 218.178057 
L 368.875822 218.895024 
L 369.462255 218.546825 
L 370.048689 217.310178 
L 370.635122 215.270293 
L 372.394423 207.60553 
L 372.980857 206.28251 
L 373.56729 206.601709 
L 374.153724 209.1258 
L 374.740157 213.555375 
L 375.913025 224.896814 
L 376.499458 229.342956 
L 377.085892 231.422633 
L 377.672325 231.18589 
L 378.258759 228.77417 
L 378.845193 224.699008 
L 381.77736 200.071023 
L 382.363794 196.907895 
L 382.950228 195.491098 
L 383.536661 196.158957 
L 384.123095 198.604719 
L 384.709528 202.495075 
L 385.882395 212.000974 
L 387.055263 218.871481 
L 387.641696 221.717761 
L 388.22813 223.879222 
L 388.814563 225.136195 
L 389.400997 225.48435 
L 389.98743 224.914456 
L 390.573864 222.743535 
L 392.333165 212.944796 
L 392.919598 210.867948 
L 393.506032 209.640396 
L 394.092466 209.351191 
L 394.678899 209.955336 
L 395.265333 211.337897 
L 396.4382 215.596329 
L 398.197501 221.810843 
L 398.783934 223.419045 
L 399.370368 224.582974 
L 401.129668 232.103637 
L 401.716102 233.520711 
L 402.302536 234.031653 
L 402.888969 232.362836 
L 403.475403 228.475551 
L 404.64827 216.972119 
L 405.821137 204.881246 
L 406.407571 200.724735 
L 406.994004 198.032793 
L 407.580438 196.786968 
L 408.166871 197.054257 
L 408.753305 198.702054 
L 409.926172 200.632072 
L 410.512606 201.498779 
L 411.099039 202.086389 
L 411.685473 201.61189 
L 412.271906 201.748933 
L 412.85834 202.923085 
L 413.444774 205.30109 
L 414.031207 209.112728 
L 414.617641 214.68851 
L 416.963375 241.321634 
L 417.549809 244.580073 
L 418.136242 245.061447 
L 418.722676 243.723363 
L 419.309109 240.740438 
L 421.654844 224.773043 
L 423.414144 214.325006 
L 424.587011 208.465517 
L 425.173445 206.429176 
L 426.346312 203.706382 
L 427.519179 201.064613 
L 429.27848 193.493091 
L 429.864914 192.645328 
L 430.451347 193.302278 
L 431.037781 196.474237 
L 431.624214 202.328032 
L 433.969949 231.86066 
L 434.556382 236.859774 
L 435.142816 239.845331 
L 435.729249 240.513451 
L 436.315683 238.726664 
L 436.902117 234.590198 
L 438.074984 222.401159 
L 439.247851 209.942512 
L 439.834284 206.562004 
L 441.007152 202.200711 
L 441.593585 200.978702 
L 442.180019 200.428517 
L 442.766452 200.043131 
L 443.352886 200.127878 
L 443.93932 202.13069 
L 445.112187 208.85378 
L 446.285054 215.224818 
L 446.871487 217.19234 
L 447.457921 218.005395 
L 448.044355 217.534135 
L 448.630788 215.700987 
L 449.217222 212.473256 
L 449.803655 207.607367 
L 450.976522 194.994505 
L 451.562956 190.754865 
L 452.14939 189.772137 
L 452.735823 192.496372 
L 453.322257 199.740325 
L 455.667991 239.008153 
L 456.254425 245.041126 
L 456.840858 248.550674 
L 457.427292 249.121689 
L 458.013725 246.656183 
L 458.600159 241.374048 
L 459.186593 233.55107 
L 460.945893 204.323963 
L 461.532327 197.984494 
L 462.11876 195.029106 
L 462.705194 195.29996 
L 463.291628 197.661809 
L 464.464495 203.462474 
L 465.050928 203.970426 
L 465.637362 201.604495 
L 466.810229 192.412233 
L 467.396663 189.085289 
L 467.983096 187.943646 
L 468.56953 190.479793 
L 469.155963 197.852321 
L 470.32883 220.450641 
L 471.501698 244.848067 
L 472.088131 248.56371 
L 472.674565 250.826326 
L 473.260998 251.635915 
L 473.847432 250.992478 
L 474.433865 248.896014 
L 475.020299 245.346524 
L 475.606733 240.344007 
L 476.193166 233.888464 
L 477.366033 216.618298 
L 477.366033 216.618298 
" clip-path="url(#p4e29cd193a)" style="fill: none; stroke-dasharray: 1.33,1.235; stroke-dashoffset: 0; stroke: #a94c45; stroke-width: 0.95"/>
   </g>
   <g id="line2d_78">
    <path d="M 198.810085 217.824392 
L 203.501553 216.592412 
L 208.193022 215.620622 
L 212.298057 214.983744 
L 216.403092 214.546074 
L 221.09456 214.489191 
L 238.101134 214.160975 
L 244.551903 214.155743 
L 247.484071 214.017016 
L 251.589106 214.185236 
L 254.521274 213.977374 
L 256.280575 214.127626 
L 257.453442 214.478305 
L 259.212743 215.315198 
L 260.972044 216.492296 
L 262.731344 217.713398 
L 263.904212 218.320757 
L 265.077079 218.717593 
L 266.249946 218.904117 
L 267.422813 218.887254 
L 268.59568 218.67777 
L 269.768547 218.232638 
L 270.941414 217.583241 
L 274.460016 215.153073 
L 276.219317 213.792004 
L 277.978617 212.375053 
L 279.151485 211.750753 
L 280.324352 211.424817 
L 282.083652 211.285924 
L 283.25652 211.388461 
L 284.429387 211.71318 
L 290.880156 213.902818 
L 292.639457 214.004553 
L 296.158058 213.985081 
L 297.330925 214.173604 
L 300.849527 215.072587 
L 302.022394 215.050711 
L 312.578198 213.918505 
L 313.751066 213.377037 
L 316.0968 212.125337 
L 317.269667 211.910847 
L 318.442534 212.020829 
L 319.615401 212.451179 
L 322.547569 213.94734 
L 323.720436 213.956002 
L 325.479737 213.799139 
L 326.066171 214.015484 
L 327.239038 214.769191 
L 328.411905 215.629281 
L 329.584772 216.080486 
L 330.757639 216.185703 
L 331.930506 215.961606 
L 333.689807 215.074948 
L 334.862674 214.547702 
L 336.035541 214.500185 
L 338.381276 214.71227 
L 340.140576 214.329886 
L 341.313444 214.052931 
L 342.486311 213.973956 
L 344.245612 214.090023 
L 346.591346 214.441137 
L 347.764213 214.799217 
L 349.523514 215.509682 
L 350.109947 215.660673 
L 350.696381 215.616306 
L 351.869248 215.060486 
L 353.628549 213.896654 
L 354.801416 213.555663 
L 355.974283 213.642451 
L 358.320017 214.253974 
L 358.906451 214.198254 
L 359.492884 213.986826 
L 360.079318 213.555512 
L 362.425052 210.909364 
L 363.011486 210.537278 
L 363.59792 210.450808 
L 364.184353 210.589869 
L 365.35722 211.280324 
L 368.875822 214.205479 
L 369.462255 214.407481 
L 370.635122 214.379728 
L 372.394423 214.18523 
L 379.431626 214.387432 
L 380.604493 214.074613 
L 382.363794 213.295336 
L 383.536661 212.797762 
L 384.709528 212.586154 
L 385.882395 212.635845 
L 388.22813 212.809013 
L 388.814563 213.071311 
L 389.400997 213.500038 
L 390.573864 214.867493 
L 393.506032 218.799518 
L 396.4382 221.882062 
L 397.024633 222.184997 
L 397.611067 222.092381 
L 398.197501 221.588087 
L 399.370368 219.887915 
L 402.888969 213.838843 
L 403.475403 213.056337 
L 404.061836 212.470573 
L 405.234703 211.831535 
L 406.407571 211.624392 
L 407.580438 211.869455 
L 408.753305 212.463942 
L 411.099039 214.079573 
L 412.271906 215.111491 
L 413.444774 216.442221 
L 415.790508 219.623815 
L 416.376941 220.120873 
L 416.963375 220.353695 
L 417.549809 220.378539 
L 418.136242 220.245624 
L 419.895543 219.6044 
L 421.06841 219.409258 
L 421.654844 219.219673 
L 422.241277 218.910396 
L 422.827711 218.440698 
L 425.173445 215.844762 
L 426.346312 215.038029 
L 428.105613 214.179802 
L 428.692047 213.777182 
L 429.864914 212.540302 
L 431.037781 211.357487 
L 431.624214 210.972958 
L 432.210648 210.928973 
L 432.797082 211.249333 
L 433.969949 212.292036 
L 436.902117 215.336163 
L 437.48855 215.798358 
L 438.074984 216.041887 
L 438.661417 215.903896 
L 439.247851 215.441113 
L 440.420718 213.917369 
L 441.593585 212.133016 
L 442.766452 210.816769 
L 443.93932 209.967098 
L 445.112187 209.575711 
L 446.285054 209.59352 
L 447.457921 209.921791 
L 448.630788 210.359468 
L 449.803655 211.121324 
L 450.390089 211.710214 
L 450.976522 212.622002 
L 453.322257 217.525727 
L 453.90869 218.15701 
L 454.495124 218.157692 
L 455.081557 217.680181 
L 455.667991 216.905919 
L 457.427292 214.072885 
L 458.013725 213.44805 
L 458.600159 212.991899 
L 459.773026 212.491183 
L 461.532327 213.263402 
L 463.291628 214.28416 
L 465.050928 215.553454 
L 466.810229 217.071287 
L 468.56953 218.837657 
L 470.32883 220.852564 
L 472.674565 223.925721 
L 475.020299 227.440723 
L 477.366033 231.397569 
L 477.366033 231.397569 
" clip-path="url(#p4e29cd193a)" style="fill: none; stroke-dasharray: 4,1.8; stroke-dashoffset: 0; stroke: #397a78"/>
   </g>
   <g id="line2d_79">
    <path d="M 477.366033 225.495552 
L 482.409362 220.755395 
" style="fill: none; stroke-dasharray: 0.91,0.845; stroke-dashoffset: 0; stroke: #a94c45; stroke-width: 0.65"/>
   </g>
   <g id="line2d_80">
    <path d="M 477.366033 282.166923 
L 482.409362 282.166923 
" style="fill: none; stroke: #254f73; stroke-width: 0.65; stroke-linecap: square"/>
   </g>
   <g id="line2d_81">
    <path d="M 477.366033 230.37614 
L 482.409362 230.37614 
" style="fill: none; stroke-dasharray: 2.6,1.17; stroke-dashoffset: 0; stroke: #397a78; stroke-width: 0.65"/>
   </g>
   <g id="patch_12">
    <path d="M 291.46659 295.68189 
L 291.46659 183.439867 
" style="fill: none; stroke: #20252a; stroke-width: 0.8; stroke-linejoin: miter; stroke-linecap: square"/>
   </g>
   <g id="patch_13">
    <path d="M 291.46659 295.68189 
L 502.582677 295.68189 
" style="fill: none; stroke: #20252a; stroke-width: 0.8; stroke-linejoin: miter; stroke-linecap: square"/>
   </g>
   <g id="text_38">
    <text style="fill: #20252a; font: 700 8px 'TeX Gyre Termes', serif; text-anchor: start" x="269.2994" y="175.626556" transform="rotate(-0 269.2994 175.626556)">d</text>
   </g>
   <g id="line2d_82">
    <path d="M 198.810085 219.148478 
L 201.742252 217.624274 
L 204.67442 216.400069 
L 207.020155 215.636706 
L 209.365889 215.065343 
L 211.12519 214.835869 
L 216.403092 214.689021 
L 222.267428 214.454717 
L 226.372463 214.345666 
L 232.823232 214.217579 
L 243.379036 214.181948 
L 248.656939 214.284042 
L 250.416239 214.158545 
L 252.761974 213.92238 
L 253.934841 214.07384 
L 256.280575 214.61915 
L 258.039876 214.489182 
L 259.212743 214.438544 
L 260.38561 214.643483 
L 261.558477 215.109323 
L 262.731344 215.943014 
L 264.490645 217.746412 
L 267.422813 220.735629 
L 268.009247 221.112079 
L 268.59568 221.31184 
L 269.182114 221.320928 
L 269.768547 221.154283 
L 270.354981 220.82853 
L 271.527848 219.764369 
L 272.700715 218.30138 
L 274.460016 215.645829 
L 277.978617 209.47651 
L 278.565051 208.886515 
L 279.151485 208.559097 
L 279.737918 208.516548 
L 280.910785 208.866129 
L 282.083652 209.438001 
L 283.25652 210.192671 
L 283.842953 210.662458 
L 285.01582 212.065846 
L 287.361555 214.990659 
L 288.534422 215.936352 
L 289.707289 216.278776 
L 290.293722 216.262828 
L 290.880156 216.066398 
L 292.053023 215.375575 
L 295.571625 212.789934 
L 296.744492 212.252559 
L 297.917359 211.981804 
L 299.090226 212.078216 
L 299.67666 212.246465 
L 300.849527 212.950981 
L 302.022394 213.91832 
L 303.195261 215.147036 
L 305.540995 218.069752 
L 306.127429 218.48101 
L 306.713863 218.57605 
L 307.300296 218.348904 
L 307.88673 217.785385 
L 309.059597 216.234165 
L 311.405331 212.916222 
L 312.578198 211.565428 
L 313.164632 211.058256 
L 313.751066 210.717617 
L 314.923933 210.45986 
L 316.0968 210.542658 
L 317.269667 210.871906 
L 319.028968 211.761278 
L 320.788268 212.83109 
L 321.961136 213.722898 
L 323.720436 215.307762 
L 324.893303 216.130387 
L 326.066171 216.597877 
L 327.239038 216.612579 
L 327.825471 216.465555 
L 328.411905 216.000619 
L 330.757639 213.428279 
L 331.344073 213.216538 
L 331.930506 213.398507 
L 332.51694 213.837303 
L 334.862674 216.098728 
L 335.449108 216.300545 
L 336.035541 216.348911 
L 336.621975 216.261958 
L 337.208409 216.050756 
L 338.381276 215.125038 
L 340.140576 213.422826 
L 340.72701 213.16256 
L 341.313444 213.192506 
L 341.899877 213.46493 
L 343.659178 214.788607 
L 344.245612 214.910588 
L 344.832045 214.781605 
L 346.004912 213.915052 
L 347.177779 213.051355 
L 347.764213 212.820656 
L 348.350647 212.723104 
L 348.93708 212.769056 
L 349.523514 212.976625 
L 350.109947 213.349492 
L 350.696381 213.919391 
L 351.282814 214.733842 
L 352.455682 216.724868 
L 353.042115 217.516748 
L 353.628549 218.093407 
L 354.214982 218.289162 
L 354.801416 217.92985 
L 355.974283 216.657338 
L 358.906451 211.602414 
L 359.492884 210.987534 
L 360.079318 210.740242 
L 360.665752 210.813294 
L 362.425052 211.900069 
L 363.011486 211.976407 
L 363.59792 211.785042 
L 366.530087 209.513951 
L 367.116521 209.464211 
L 367.702955 209.64663 
L 368.289388 209.955646 
L 368.875822 210.597488 
L 370.048689 212.69847 
L 372.394423 217.264713 
L 372.980857 218.084058 
L 373.56729 218.711091 
L 374.153724 219.112603 
L 374.740157 219.268026 
L 375.326591 219.016486 
L 375.913025 218.4095 
L 377.085892 216.381422 
L 378.258759 214.127898 
L 378.845193 213.193355 
L 379.431626 212.507168 
L 380.604493 211.834996 
L 381.77736 211.458969 
L 382.363794 211.31557 
L 383.536661 210.807641 
L 385.295962 210.537225 
L 385.882395 210.707039 
L 387.055263 211.586225 
L 388.22813 213.008163 
L 389.400997 214.983919 
L 390.573864 216.896106 
L 391.160298 217.466861 
L 391.746731 217.682579 
L 392.333165 217.484535 
L 393.506032 216.740032 
L 394.092466 216.856126 
L 394.678899 217.393588 
L 395.265333 218.256864 
L 397.024633 221.403662 
L 397.611067 222.075015 
L 398.783934 222.934348 
L 399.370368 223.086283 
L 401.129668 223.013021 
L 401.716102 222.792119 
L 402.302536 222.373012 
L 402.888969 221.713278 
L 403.475403 220.386302 
L 404.061836 218.463442 
L 405.234703 213.386753 
L 406.407571 208.11733 
L 407.580438 204.07637 
L 408.166871 202.832933 
L 408.753305 202.024345 
L 409.339738 201.694626 
L 409.926172 201.963494 
L 410.512606 202.772565 
L 411.099039 204.06084 
L 411.685473 205.789314 
L 412.271906 207.91652 
L 413.444774 213.407207 
L 415.790508 225.879157 
L 416.376941 228.235345 
L 416.963375 229.921213 
L 417.549809 230.737513 
L 418.136242 231.100633 
L 418.722676 231.091002 
L 419.309109 230.812047 
L 419.895543 230.309306 
L 420.481976 229.653586 
L 421.06841 228.700124 
L 421.654844 227.301825 
L 422.241277 225.032241 
L 422.827711 221.959186 
L 425.759879 203.953202 
L 426.346312 202.218049 
L 426.932746 201.555419 
L 427.519179 201.541348 
L 428.105613 202.057946 
L 428.692047 203.042475 
L 429.27848 204.406152 
L 430.451347 207.919111 
L 433.969949 219.794285 
L 434.556382 221.066772 
L 435.142816 221.795419 
L 435.729249 222.014044 
L 436.315683 221.74387 
L 436.902117 221.13095 
L 439.834284 216.720974 
L 441.007152 214.355158 
L 443.352886 208.617516 
L 445.112187 204.264942 
L 445.69862 203.448972 
L 446.285054 202.899107 
L 446.871487 202.596842 
L 447.457921 202.991703 
L 448.044355 203.846233 
L 449.217222 206.166894 
L 450.390089 209.543012 
L 453.322257 219.275797 
L 453.90869 220.608882 
L 454.495124 221.57662 
L 455.081557 222.178343 
L 455.667991 222.515786 
L 456.254425 222.664671 
L 457.427292 223.378668 
L 458.600159 224.222542 
L 459.186593 224.222322 
L 459.773026 223.108825 
L 460.35946 220.745666 
L 460.945893 217.394893 
L 462.705194 205.112146 
L 463.291628 202.114864 
L 463.878061 200.013375 
L 464.464495 198.784067 
L 465.050928 198.397731 
L 466.223795 199.389697 
L 466.810229 200.355491 
L 467.396663 201.747761 
L 467.983096 203.566506 
L 469.155963 208.483424 
L 470.32883 215.106244 
L 471.501698 223.434967 
L 472.674565 233.469593 
L 473.847432 245.210121 
L 475.020299 258.656551 
L 476.7796 282.024764 
L 477.366033 290.66712 
L 477.366033 290.66712 
" clip-path="url(#p4e29cd193a)" style="fill: none; stroke: #254f73; stroke-width: 1.25; stroke-linecap: round"/>
   </g>
   <g id="text_39">
    <text style="fill: #a94c45; font: 6.5px 'TeX Gyre Termes', serif; text-anchor: start" x="483.816803" y="222.269692" transform="rotate(-0 483.816803 222.269692)">5.25</text>
   </g>
   <g id="text_40">
    <text style="fill: #254f73; font: 700 6.5px 'TeX Gyre Termes', serif; text-anchor: start" x="483.816803" y="283.69747" transform="rotate(-0 483.816803 283.69747)">10.25</text>
   </g>
   <g id="text_41">
    <text style="fill: #397a78; font: 6.5px 'TeX Gyre Termes', serif; text-anchor: start" x="483.816803" y="231.890436" transform="rotate(-0 483.816803 231.890436)">15.25</text>
   </g>
   <g id="text_42">
    <text style="font: 700 7.5px 'TeX Gyre Termes', serif; text-anchor: start" x="291.46659" y="180.439867" transform="rotate(-0 291.46659 180.439867)">Cycle 23</text>
   </g>
   <g id="line2d_83">
    <g clip-path="url(#p4e29cd193a)">
     <use xlink:href="#ma21ae32733" x="344.245612" y="201.435154" style="fill: #ffffff; stroke: #a94c45; stroke-width: 0.9"/>
    </g>
   </g>
   <g id="line2d_84">
    <g clip-path="url(#p4e29cd193a)">
     <use xlink:href="#m7fe1c782aa" x="406.994004" y="205.877553" style="fill: #ffffff; stroke: #254f73; stroke-width: 0.9"/>
    </g>
   </g>
   <g id="line2d_85">
    <g clip-path="url(#p4e29cd193a)">
     <use xlink:href="#mfb0c565a02" x="362.425052" y="210.909364" style="fill: #ffffff; stroke: #397a78; stroke-width: 0.9"/>
    </g>
   </g>
   <g id="line2d_86">
    <g clip-path="url(#p4e29cd193a)">
     <use xlink:href="#m7a35896668" x="467.983096" y="187.943646" style="fill: #a94c45; stroke: #ffffff; stroke-width: 0.45; stroke-linejoin: miter"/>
    </g>
   </g>
   <g id="line2d_87">
    <g clip-path="url(#p4e29cd193a)">
     <use xlink:href="#md25c2cedfb" x="465.050928" y="198.397731" style="fill: #254f73; stroke: #ffffff; stroke-width: 0.45; stroke-linejoin: miter"/>
    </g>
   </g>
   <g id="line2d_88">
    <g clip-path="url(#p4e29cd193a)">
     <use xlink:href="#m5be1fc0a9c" x="445.69862" y="209.537757" style="fill: #397a78; stroke: #ffffff; stroke-width: 0.45; stroke-linejoin: miter"/>
    </g>
   </g>
  </g>
  <g id="text_43">
   <text style="fill: #20252a; font: 700 7.5px 'TeX Gyre Termes', serif; text-anchor: start" x="42.349606" y="20.744236" transform="rotate(-0 42.349606 20.744236)">One physical cell; four sequential charge cycles</text>
  </g>
  <g id="text_44">
   <text style="fill: #6d7378; font: 6.5px 'TeX Gyre Termes', serif; text-anchor: end" x="502.582677" y="20.001502" transform="rotate(-0 502.582677 20.001502)">window (mAh cm−2)</text>
  </g>
  <g id="text_45">
   <text style="fill: #6d7378; font: 6.5px 'TeX Gyre Termes', serif; text-anchor: start" x="42.349606" y="332.306038" transform="rotate(-0 42.349606 332.306038)">Open circle: threshold onset   Filled triangle: registered search-window maximum</text>
  </g>
  <g id="text_46">
   <text style="fill: #6d7378; font: 6.5px 'TeX Gyre Termes', serif; text-anchor: end" x="502.582677" y="332.312132" transform="rotate(-0 502.582677 332.312132)">All panels share the same derivative scale</text>
  </g>
 </g>
 <defs>
  <clipPath id="p8f81d7c027">
   <rect x="42.349606" y="39.770079" width="211.116088" height="112.242022"/>
  </clipPath>
  <clipPath id="p489e05055c">
   <rect x="291.46659" y="39.770079" width="211.116088" height="112.242022"/>
  </clipPath>
  <clipPath id="pe411dd627c">
   <rect x="42.349606" y="183.439867" width="211.116088" height="112.242022"/>
  </clipPath>
  <clipPath id="p4e29cd193a">
   <rect x="291.46659" y="183.439867" width="211.116088" height="112.242022"/>
  </clipPath>
 </defs>
</svg>
